<svg width="435" height="58" viewBox="0 0 435 58" fill="none" xmlns="http://www.w3.org/2000/svg">
<path d="M1 56.6893H0V57.6893H1V56.6893ZM1 2.31074V1.31074H0V2.31074H1ZM31.4525 4.48588L31.0409 5.39727L31.0463 5.39969L31.4525 4.48588ZM38.9102 10.7006L38.0658 11.2364L38.0706 11.2438L38.9102 10.7006ZM38.9102 30.0438L39.7545 30.5796L39.7545 30.5796L38.9102 30.0438ZM31.4525 36.2585L31.0463 35.3446L31.0409 35.3471L31.4525 36.2585ZM2.47601 38.4336L1.74648 37.7497L0.167755 39.4336H2.47601V38.4336ZM3.64128 56.6893V57.6893H4.64128V56.6893H3.64128ZM2.47601 36.0254V35.0254H0.0617678L1.76891 36.7325L2.47601 36.0254ZM34.016 31.9082L33.3723 31.1429L33.3663 31.1481L34.016 31.9082ZM34.016 8.83616L33.3663 9.59628L33.3728 9.60189L33.3795 9.60738L34.016 8.83616ZM2.47601 4.71893L1.74648 4.03498L0.167758 5.71893H2.47601V4.71893ZM3.64128 3.47599H4.64128V0.947232L2.91175 2.79204L3.64128 3.47599ZM58.4983 27.8686V26.8686H57.4983V27.8686H58.4983ZM88.4846 27.8686H89.4846V26.8686H88.4846V27.8686ZM88.4846 30.2768V31.2768H89.4846V30.2768H88.4846ZM58.4983 30.2768H57.4983V31.2768H58.4983V30.2768ZM58.9644 54.2811H57.9644V55.2811H58.9644V54.2811ZM93.068 54.2811H94.068V53.2811H93.068V54.2811ZM93.068 56.6893V57.6893H94.068V56.6893H93.068ZM56.3231 56.6893H55.3231V57.6893H56.3231V56.6893ZM56.3231 2.31074V1.31074H55.3231V2.31074H56.3231ZM91.9805 2.31074H92.9805V1.31074H91.9805V2.31074ZM91.9805 4.71893V5.71893H92.9805V4.71893H91.9805ZM58.9644 4.71893V3.71893H57.9644V4.71893H58.9644ZM108.991 56.6893H107.991V57.6893H108.991V56.6893ZM108.991 2.31074V1.31074H107.991V2.31074H108.991ZM111.166 2.31074L111.955 1.69629L111.655 1.31074H111.166V2.31074ZM151.096 53.5819V54.5819H153.142L151.885 52.9675L151.096 53.5819ZM149.776 53.5819H148.776V54.5819H149.776V53.5819ZM149.776 2.31074V1.31074H148.776V2.31074H149.776ZM152.417 2.31074H153.417V1.31074H152.417V2.31074ZM152.417 56.6893V57.6893H153.417V56.6893H152.417ZM150.242 56.6893L149.453 57.3037L149.753 57.6893H150.242V56.6893ZM110.312 5.41808V4.41808H108.265L109.523 6.03252L110.312 5.41808ZM111.632 5.41808H112.632V4.41808H111.632V5.41808ZM111.632 56.6893V57.6893H112.632V56.6893H111.632ZM183.446 56.6893H182.446V57.6893H183.446V56.6893ZM183.446 4.71893H184.446V3.71893H183.446V4.71893ZM163.481 4.71893H162.481V5.71893H163.481V4.71893ZM163.481 2.31074V1.31074H162.481V2.31074H163.481ZM205.975 2.31074H206.975V1.31074H205.975V2.31074ZM205.975 4.71893V5.71893H206.975V4.71893H205.975ZM186.01 4.71893V3.71893H185.01V4.71893H186.01ZM186.01 56.6893V57.6893H187.01V56.6893H186.01ZM204.851 56.6893L203.944 56.2692L203.286 57.6893H204.851V56.6893ZM230.021 2.31074V1.31074H229.382L229.113 1.89069L230.021 2.31074ZM232.585 2.31074L233.492 1.89069L233.224 1.31074H232.585V2.31074ZM257.754 56.6893V57.6893H259.319L258.662 56.2692L257.754 56.6893ZM254.88 56.6893L253.971 57.1067L254.239 57.6893H254.88V56.6893ZM230.72 4.09746V3.09746H229.16L229.811 4.5149L230.72 4.09746ZM231.885 4.09746L232.794 4.5149L233.445 3.09746H231.885V4.09746ZM207.725 56.6893V57.6893H208.366L208.634 57.1067L207.725 56.6893ZM213.552 40.7641L212.639 40.3551L212.008 41.7641H213.552V40.7641ZM214.562 38.5113V37.5113H213.914L213.649 38.1022L214.562 38.5113ZM247.811 38.5113L248.723 38.1022L248.458 37.5113H247.811V38.5113ZM248.821 40.7641V41.7641H250.365L249.733 40.3551L248.821 40.7641ZM279.858 54.9802L279.479 55.9058L279.487 55.9092L279.496 55.9125L279.858 54.9802ZM270.846 49.154L270.146 49.8684L270.154 49.8753L270.846 49.154ZM264.942 40.4534L264.019 40.837L264.021 40.8421L264.942 40.4534ZM264.942 18.6243L265.863 19.013L265.866 19.0079L264.942 18.6243ZM270.846 9.84604L270.154 9.12462L270.146 9.13168L270.846 9.84604ZM279.858 4.09746L280.224 5.0279L280.231 5.02498L279.858 4.09746ZM310.232 9.14689L310.987 9.80308L311.592 9.10699L310.947 8.44759L310.232 9.14689ZM308.679 10.9336L307.987 11.6556L308.744 12.3818L309.433 11.5898L308.679 10.9336ZM300.599 5.88418L300.921 4.9372L300.921 4.9372L300.599 5.88418ZM280.945 6.35029L281.316 7.2788L281.324 7.27559L280.945 6.35029ZM272.788 11.6328L272.089 10.9178L272.089 10.9178L272.788 11.6328ZM267.35 19.6342L266.429 19.244L266.426 19.2518L267.35 19.6342ZM267.35 39.4435L266.424 39.8203L266.428 39.8299L266.432 39.8393L267.35 39.4435ZM280.945 52.7274L280.56 53.6505L280.57 53.6543L280.579 53.658L280.945 52.7274ZM300.599 53.1158L300.916 54.0646L300.925 54.0612L300.599 53.1158ZM308.601 48.0664L309.382 47.4417L308.684 46.5693L307.894 47.3593L308.601 48.0664ZM310.155 50.0085L310.854 50.7233L311.155 50.4291V50.0085H310.155ZM301.609 55.291L301.934 56.2367L301.947 56.232L301.609 55.291ZM307.669 49.8531H306.669V50.7926L307.606 50.8512L307.669 49.8531ZM307.669 29.8884V28.8884H306.669V29.8884H307.669ZM310.155 29.8884H311.155V28.8884H310.155V29.8884ZM390.574 56.6893H389.574V57.6893H390.574V56.6893ZM390.574 2.31074V1.31074H389.574V2.31074H390.574ZM392.749 2.31074L393.538 1.69629L393.238 1.31074H392.749V2.31074ZM432.679 53.5819V54.5819H434.726L433.468 52.9675L432.679 53.5819ZM431.359 53.5819H430.359V54.5819H431.359V53.5819ZM431.359 2.31074V1.31074H430.359V2.31074H431.359ZM434 2.31074H435V1.31074H434V2.31074ZM434 56.6893V57.6893H435V56.6893H434ZM431.825 56.6893L431.036 57.3037L431.336 57.6893H431.825V56.6893ZM391.895 5.41808V4.41808H389.849L391.106 6.03252L391.895 5.41808ZM393.215 5.41808H394.215V4.41808H393.215V5.41808ZM393.215 56.6893V57.6893H394.215V56.6893H393.215ZM348.846 3.68639L349.471 4.46727L349.471 4.46702L348.846 3.68639ZM352.386 2.44375V3.44375V2.44375ZM355.926 3.68639L355.302 4.46702L355.302 4.46731L355.926 3.68639ZM377.537 20.9714L378.161 20.1905L378.161 20.1905L377.537 20.9714ZM379.321 27.3325L378.381 26.9904L378.381 26.9908L379.321 27.3325ZM370.736 50.9362L369.797 50.5944L369.796 50.5947L370.736 50.9362ZM365.412 54.6663L365.412 53.6663H365.412V54.6663ZM339.361 54.6663L339.361 53.6663L339.36 53.6663L339.361 54.6663ZM334.036 50.9362L334.976 50.5947L334.976 50.5945L334.036 50.9362ZM325.454 27.3325L326.394 26.9909L326.394 26.9904L325.454 27.3325ZM327.239 20.9714L327.863 21.7523L327.863 21.7523L327.239 20.9714ZM2 56.6893V2.31074H0V56.6893H2ZM1 3.31074H19.8774V1.31074H1V3.31074ZM19.8774 3.31074C24.2793 3.31074 27.99 4.01945 31.0409 5.39725L31.864 3.5745C28.493 2.05211 24.4869 1.31074 19.8774 1.31074V3.31074ZM31.0463 5.39969C34.1512 6.77964 36.4748 8.72926 38.0659 11.2364L39.7545 10.1647C37.9275 7.28581 35.2792 5.0923 31.8586 3.57206L31.0463 5.39969ZM38.0706 11.2438C39.6555 13.6931 40.4738 16.7062 40.4738 20.3333H42.4738C42.4738 16.3993 41.583 12.9905 39.7498 10.1573L38.0706 11.2438ZM40.4738 20.3333C40.4738 23.9598 39.6557 27.0028 38.0659 29.508L39.7545 30.5796C41.5828 27.6987 42.4738 24.2681 42.4738 20.3333H40.4738ZM38.0659 29.508C36.4748 32.0151 34.1512 33.9647 31.0463 35.3447L31.8586 37.1723C35.2792 35.652 37.9275 33.4585 39.7545 30.5796L38.0659 29.508ZM31.0409 35.3471C27.99 36.7249 24.2793 37.4336 19.8774 37.4336V39.4336C24.4869 39.4336 28.493 38.6922 31.864 37.1698L31.0409 35.3471ZM19.8774 37.4336H2.47601V39.4336H19.8774V37.4336ZM3.20554 39.1176L4.37082 37.8746L2.91175 36.5067L1.74648 37.7497L3.20554 39.1176ZM2.64128 37.1907V56.6893H4.64128V37.1907H2.64128ZM3.64128 55.6893H1V57.6893H3.64128V55.6893ZM4.34838 36.4836L3.18311 35.3183L1.76891 36.7325L2.93418 37.8978L4.34838 36.4836ZM2.47601 37.0254H20.0328V35.0254H2.47601V37.0254ZM20.0328 37.0254C26.2779 37.0254 31.2077 35.6244 34.6658 32.6683L33.3663 31.1481C30.4024 33.6816 26.01 35.0254 20.0328 35.0254V37.0254ZM34.6598 32.6734C38.187 29.7061 39.9102 25.5458 39.9102 20.3333H37.9102C37.9102 25.0644 36.3706 28.6206 33.3723 31.143L34.6598 32.6734ZM39.9102 20.3333C39.9102 15.1213 38.1869 10.9821 34.6526 8.06493L33.3795 9.60738C36.3707 12.0763 37.9102 15.6019 37.9102 20.3333H39.9102ZM34.6658 8.07603C31.2077 5.11996 26.2779 3.71893 20.0328 3.71893V5.71893C26.01 5.71893 30.4024 7.06271 33.3663 9.59628L34.6658 8.07603ZM20.0328 3.71893H2.47601V5.71893H20.0328V3.71893ZM3.20554 5.40287L4.37082 4.15993L2.91175 2.79204L1.74648 4.03498L3.20554 5.40287ZM2.64128 3.47599V37.1907H4.64128V3.47599H2.64128ZM58.4983 28.8686H88.4846V26.8686H58.4983V28.8686ZM87.4846 27.8686V30.2768H89.4846V27.8686H87.4846ZM88.4846 29.2768H58.4983V31.2768H88.4846V29.2768ZM59.4983 30.2768V27.8686H57.4983V30.2768H59.4983ZM58.9644 55.2811H93.068V53.2811H58.9644V55.2811ZM92.068 54.2811V56.6893H94.068V54.2811H92.068ZM93.068 55.6893H56.3231V57.6893H93.068V55.6893ZM57.3231 56.6893V2.31074H55.3231V56.6893H57.3231ZM56.3231 3.31074H91.9805V1.31074H56.3231V3.31074ZM90.9805 2.31074V4.71893H92.9805V2.31074H90.9805ZM91.9805 3.71893H58.9644V5.71893H91.9805V3.71893ZM57.9644 4.71893V54.2811H59.9644V4.71893H57.9644ZM109.991 56.6893V2.31074H107.991V56.6893H109.991ZM108.991 3.31074H111.166V1.31074H108.991V3.31074ZM110.377 2.92518L150.307 54.1964L151.885 52.9675L111.955 1.69629L110.377 2.92518ZM151.096 52.5819H149.776V54.5819H151.096V52.5819ZM150.776 53.5819V2.31074H148.776V53.5819H150.776ZM149.776 3.31074H152.417V1.31074H149.776V3.31074ZM151.417 2.31074V56.6893H153.417V2.31074H151.417ZM152.417 55.6893H150.242V57.6893H152.417V55.6893ZM151.031 56.0748L111.101 4.80364L109.523 6.03252L149.453 57.3037L151.031 56.0748ZM110.312 6.41808H111.632V4.41808H110.312V6.41808ZM110.632 5.41808V56.6893H112.632V5.41808H110.632ZM111.632 55.6893H108.991V57.6893H111.632V55.6893ZM184.446 56.6893V4.71893H182.446V56.6893H184.446ZM183.446 3.71893H163.481V5.71893H183.446V3.71893ZM164.481 4.71893V2.31074H162.481V4.71893H164.481ZM163.481 3.31074H205.975V1.31074H163.481V3.31074ZM204.975 2.31074V4.71893H206.975V2.31074H204.975ZM205.975 3.71893H186.01V5.71893H205.975V3.71893ZM185.01 4.71893V56.6893H187.01V4.71893H185.01ZM186.01 55.6893H183.446V57.6893H186.01V55.6893ZM205.759 57.1093L230.928 2.73078L229.113 1.89069L203.944 56.2692L205.759 57.1093ZM230.021 3.31074H232.585V1.31074H230.021V3.31074ZM231.677 2.73078L256.847 57.1093L258.662 56.2692L233.492 1.89069L231.677 2.73078ZM257.754 55.6893H254.88V57.6893H257.754V55.6893ZM255.789 56.2718L231.629 3.68001L229.811 4.5149L253.971 57.1067L255.789 56.2718ZM230.72 5.09746H231.885V3.09746H230.72V5.09746ZM230.977 3.68001L206.817 56.2718L208.634 57.1067L232.794 4.5149L230.977 3.68001ZM207.725 55.6893H204.851V57.6893H207.725V55.6893ZM214.464 41.1732L215.474 38.9204L213.649 38.1022L212.639 40.3551L214.464 41.1732ZM214.562 39.5113H247.811V37.5113H214.562V39.5113ZM246.898 38.9204L247.908 41.1732L249.733 40.3551L248.723 38.1022L246.898 38.9204ZM248.821 39.7641H213.552V41.7641H248.821V39.7641ZM291.122 56C287.195 56 283.564 55.346 280.219 54.048L279.496 55.9125C283.091 57.3075 286.969 58 291.122 58V56ZM280.236 54.0547C276.931 52.7026 274.035 50.8287 271.539 48.4326L270.154 49.8753C272.837 52.451 275.948 54.4612 279.479 55.9058L280.236 54.0547ZM271.546 48.4396C269.104 46.0477 267.211 43.2586 265.863 40.0647L264.021 40.8421C265.47 44.2772 267.513 47.2885 270.146 49.8683L271.546 48.4396ZM265.866 40.0698C264.522 36.8345 263.845 33.3149 263.845 29.5H261.845C261.845 33.557 262.566 37.3397 264.019 40.837L265.866 40.0698ZM263.845 29.5C263.845 25.6849 264.522 22.1933 265.863 19.013L264.021 18.2356C262.566 21.6842 261.845 25.4432 261.845 29.5H263.845ZM265.866 19.0079C267.214 15.7625 269.107 12.9497 271.546 10.5604L270.146 9.13168C267.51 11.7141 265.467 14.7535 264.019 18.2407L265.866 19.0079ZM271.539 10.5674C274.032 8.17395 276.924 6.32777 280.224 5.02787L279.491 3.16705C275.955 4.56018 272.839 6.54639 270.154 9.12465L271.539 10.5674ZM280.231 5.02498C283.573 3.67825 287.2 3 291.122 3V1C286.964 1 283.082 1.72005 279.484 3.16994L280.231 5.02498ZM291.122 3C294.796 3 298.228 3.57841 301.426 4.7278L302.103 2.84565C298.672 1.61274 295.009 1 291.122 1V3ZM301.426 4.7278C304.607 5.87082 307.299 7.57802 309.517 9.84619L310.947 8.44759C308.505 5.95117 305.551 4.08492 302.103 2.84565L301.426 4.7278ZM309.478 8.49071L307.924 10.2774L309.433 11.5898L310.987 9.80308L309.478 8.49071ZM309.37 10.2116C306.792 7.74076 303.976 5.97372 300.921 4.9372L300.278 6.83116C303.023 7.76263 305.593 9.36188 307.987 11.6556L309.37 10.2116ZM300.921 4.9372C297.907 3.9148 294.664 3.40819 291.2 3.40819V5.40819C294.467 5.40819 297.491 5.88558 300.278 6.83116L300.921 4.9372ZM291.2 3.40819C287.402 3.40819 283.854 4.07724 280.566 5.42498L281.324 7.27559C284.354 6.03388 287.642 5.40819 291.2 5.40819V3.40819ZM280.574 5.42181C277.347 6.7123 274.516 8.54452 272.089 10.9178L273.487 12.3478C275.721 10.1636 278.328 8.47415 281.316 7.27876L280.574 5.42181ZM272.089 10.9178C269.662 13.2907 267.775 16.0688 266.43 19.244L268.271 20.0243C269.515 17.0884 271.253 14.5322 273.487 12.3478L272.089 10.9178ZM266.426 19.2518C265.128 22.3883 264.486 25.8084 264.486 29.5H266.486C266.486 26.0447 267.086 22.8875 268.274 20.0165L266.426 19.2518ZM264.486 29.5C264.486 33.1918 265.128 36.6354 266.424 39.8203L268.277 39.0667C267.086 36.1404 266.486 32.9551 266.486 29.5H264.486ZM266.432 39.8393C267.778 42.9623 269.665 45.7121 272.089 48.0822L273.487 46.6522C271.25 44.4649 269.512 41.9322 268.269 39.0477L266.432 39.8393ZM272.089 48.0822C274.513 50.4525 277.34 52.3086 280.56 53.6505L281.33 51.8043C278.335 50.5567 275.724 48.8393 273.487 46.6522L272.089 48.0822ZM280.579 53.658C283.864 54.9505 287.408 55.5918 291.2 55.5918V53.5918C287.637 53.5918 284.344 52.9902 281.311 51.7968L280.579 53.658ZM291.2 55.5918C294.615 55.5918 297.855 55.0846 300.916 54.0645L300.283 52.1671C297.44 53.115 294.414 53.5918 291.2 53.5918V55.5918ZM300.925 54.0612C304.078 52.9741 306.874 51.2072 309.308 48.7735L307.894 47.3593C305.666 49.5866 303.128 51.186 300.273 52.1704L300.925 54.0612ZM307.82 48.6911L309.374 50.6332L310.935 49.3838L309.382 47.4417L307.82 48.6911ZM309.455 49.2936C307.181 51.518 304.458 53.2045 301.271 54.3499L301.947 56.232C305.389 54.9951 308.363 53.16 310.854 50.7233L309.455 49.2936ZM301.284 54.3453C298.079 55.4469 294.694 56 291.122 56V58C294.904 58 298.51 57.4137 301.934 56.2366L301.284 54.3453ZM308.669 49.8531V29.8884H306.669V49.8531H308.669ZM307.669 30.8884H310.155V28.8884H307.669V30.8884ZM309.155 29.8884V50.0085H311.155V29.8884H309.155ZM310.217 49.0104L307.731 48.8551L307.606 50.8512L310.092 51.0065L310.217 49.0104ZM391.574 56.6893V2.31074H389.574V56.6893H391.574ZM390.574 3.31074H392.749V1.31074H390.574V3.31074ZM391.96 2.92518L431.89 54.1964L433.468 52.9675L393.538 1.69629L391.96 2.92518ZM432.679 52.5819H431.359V54.5819H432.679V52.5819ZM432.359 53.5819V2.31074H430.359V53.5819H432.359ZM431.359 3.31074H434V1.31074H431.359V3.31074ZM433 2.31074V56.6893H435V2.31074H433ZM434 55.6893H431.825V57.6893H434V55.6893ZM432.614 56.0748L392.684 4.80364L391.106 6.03252L431.036 57.3037L432.614 56.0748ZM391.895 6.41808H393.215V4.41808H391.895V6.41808ZM392.215 5.41808V56.6893H394.215V5.41808H392.215ZM393.215 55.6893H390.574V57.6893H393.215V55.6893ZM349.471 4.46702C350.298 3.80465 351.326 3.44375 352.386 3.44375V1.44375C350.872 1.44375 349.403 1.95939 348.221 2.90576L349.471 4.46702ZM352.386 3.44375C353.446 3.44375 354.474 3.80465 355.302 4.46702L356.551 2.90576C355.369 1.95939 353.9 1.44375 352.386 1.44375V3.44375ZM355.302 4.46731L376.912 21.7523L378.161 20.1905L356.551 2.90546L355.302 4.46731ZM376.912 21.7523C377.674 22.3619 378.226 23.1953 378.489 24.135L380.415 23.5948C380.038 22.2522 379.25 21.0615 378.161 20.1905L376.912 21.7523ZM378.489 24.135C378.753 25.0747 378.715 26.0734 378.381 26.9904L380.261 27.6747C380.738 26.3644 380.792 24.9374 380.415 23.5948L378.489 24.135ZM378.381 26.9908L369.797 50.5944L371.676 51.278L380.261 27.6743L378.381 26.9908ZM369.796 50.5947C369.469 51.4949 368.873 52.2726 368.089 52.8221L369.236 54.4602C370.357 53.675 371.209 52.5639 371.676 51.2777L369.796 50.5947ZM368.089 52.8221C367.304 53.3716 366.37 53.6664 365.412 53.6663L365.412 55.6663C366.78 55.6664 368.115 55.2453 369.236 54.4602L368.089 52.8221ZM365.412 53.6663H339.361V55.6663H365.412V53.6663ZM339.36 53.6663C338.403 53.6664 337.468 53.3716 336.684 52.8221L335.536 54.4602C336.657 55.2453 337.992 55.6664 339.361 55.6663L339.36 53.6663ZM336.684 52.8221C335.899 52.2726 335.303 51.4949 334.976 50.5947L333.096 51.2777C333.563 52.5639 334.415 53.675 335.536 54.4602L336.684 52.8221ZM334.976 50.5945L326.394 26.9909L324.514 27.6742L333.096 51.2779L334.976 50.5945ZM326.394 26.9904C326.06 26.0734 326.022 25.0747 326.286 24.135L324.36 23.5948C323.983 24.9374 324.037 26.3644 324.515 27.6747L326.394 26.9904ZM326.286 24.135C326.549 23.1953 327.101 22.3619 327.863 21.7523L326.614 20.1905C325.525 21.0615 324.737 22.2522 324.36 23.5948L326.286 24.135ZM327.863 21.7523L349.471 4.46727L348.221 2.9055L326.614 20.1905L327.863 21.7523Z" fill="white"/>
</svg>
