<svg width="314" height="43" viewBox="0 0 314 43" fill="none" xmlns="http://www.w3.org/2000/svg">
<path d="M2 41.545H1V42.545H2V41.545ZM2 2.22469V1.22469H1V2.22469H2ZM23.802 3.7975L23.387 4.70735L23.3925 4.70981L23.802 3.7975ZM29.1413 8.29126L28.2945 8.82332L28.2992 8.83071L29.1413 8.29126ZM29.1413 22.2781L29.988 22.8101V22.8101L29.1413 22.2781ZM23.802 26.7718L23.3925 25.8595L23.387 25.862L23.802 26.7718ZM3.05673 28.3446L2.32382 27.6643L0.764066 29.3446H3.05673V28.3446ZM3.89099 41.545V42.545H4.89099V41.545H3.89099ZM3.05673 26.6033V25.6033H0.659349L2.34612 27.3069L3.05673 26.6033ZM25.6374 23.6262L24.9898 22.8641L24.9839 22.8693L25.6374 23.6262ZM25.6374 6.94313L24.9839 7.70006L24.9904 7.70571L24.997 7.71124L25.6374 6.94313ZM3.05673 3.96602L2.32381 3.2857L0.764071 4.96602H3.05673V3.96602ZM3.89099 3.06727H4.89099V0.520067L3.15807 2.38695L3.89099 3.06727ZM43.1651 20.7053V19.7053H42.1651V20.7053H43.1651ZM64.6334 20.7053H65.6334V19.7053H64.6334V20.7053ZM64.6334 22.4466V23.4466H65.6334V22.4466H64.6334ZM43.1651 22.4466H42.1651V23.4466H43.1651V22.4466ZM43.4988 39.8037H42.4988V40.8037H43.4988V39.8037ZM67.9148 39.8037H68.9148V38.8037H67.9148V39.8037ZM67.9148 41.545V42.545H68.9148V41.545H67.9148ZM41.6078 41.545H40.6078V42.545H41.6078V41.545ZM41.6078 2.22469V1.22469H40.6078V2.22469H41.6078ZM67.1361 2.22469H68.1361V1.22469H67.1361V2.22469ZM67.1361 3.96602V4.96602H68.1361V3.96602H67.1361ZM43.4988 3.96602V2.96602H42.4988V3.96602H43.4988ZM79.3146 41.545H78.3146V42.545H79.3146V41.545ZM79.3146 2.22469V1.22469H78.3146V2.22469H79.3146ZM80.8719 2.22469L81.6638 1.61405L81.3635 1.22469H80.8719V2.22469ZM109.459 39.2982V40.2982H111.493L110.251 38.6875L109.459 39.2982ZM108.514 39.2982H107.514V40.2982H108.514V39.2982ZM108.514 2.22469V1.22469H107.514V2.22469H108.514ZM110.405 2.22469H111.405V1.22469H110.405V2.22469ZM110.405 41.545V42.545H111.405V41.545H110.405ZM108.847 41.545L108.055 42.1557L108.356 42.545H108.847V41.545ZM80.2601 4.47157V3.47157H78.2262L79.4682 5.08221L80.2601 4.47157ZM81.2056 4.47157H82.2056V3.47157H81.2056V4.47157ZM81.2056 41.545V42.545H82.2056V41.545H81.2056ZM132.62 41.545H131.62V42.545H132.62V41.545ZM132.62 3.96602H133.62V2.96602H132.62V3.96602ZM118.326 3.96602H117.326V4.96602H118.326V3.96602ZM118.326 2.22469V1.22469H117.326V2.22469H118.326ZM148.749 2.22469H149.749V1.22469H148.749V2.22469ZM148.749 3.96602V4.96602H149.749V3.96602H148.749ZM134.455 3.96602V2.96602H133.455V3.96602H134.455ZM134.455 41.545V42.545H135.455V41.545H134.455ZM147.944 41.545L147.035 41.1284L146.386 42.545H147.944V41.545ZM165.964 2.22469V1.22469H165.322L165.055 1.80807L165.964 2.22469ZM167.8 2.22469L168.709 1.80807L168.441 1.22469H167.8V2.22469ZM185.82 41.545V42.545H187.378L186.729 41.1284L185.82 41.545ZM183.762 41.545L182.851 41.9591L183.118 42.545H183.762V41.545ZM166.465 3.51664V2.51664H164.911L165.554 3.93067L166.465 3.51664ZM167.299 3.51664L168.209 3.93067L168.852 2.51664H167.299V3.51664ZM150.002 41.545V42.545H150.646L150.912 41.9591L150.002 41.545ZM154.173 30.0298L153.259 29.6241L152.635 31.0298H154.173V30.0298ZM154.896 28.4008V27.4008H154.246L153.982 27.9951L154.896 28.4008ZM178.701 28.4008L179.615 27.9951L179.351 27.4008H178.701V28.4008ZM179.424 30.0298V31.0298H180.961L180.338 29.6241L179.424 30.0298ZM201.644 40.3093L201.262 41.2335L201.271 41.237L201.279 41.2403L201.644 40.3093ZM195.192 36.0964L194.489 36.8073L194.496 36.8143L195.192 36.0964ZM190.965 29.8051L190.041 30.1855L190.043 30.1905L190.965 29.8051ZM190.965 14.0208L191.888 14.4062L191.89 14.4012L190.965 14.0208ZM195.192 7.67337L194.496 6.95539L194.489 6.96249L195.192 7.67337ZM201.644 3.51664L202.014 4.44583L202.021 4.44287L201.644 3.51664ZM223.39 7.16782L224.148 7.82029L224.744 7.12813L224.109 6.47208L223.39 7.16782ZM222.278 8.45977L221.583 9.17832L222.344 9.91554L223.036 9.11224L222.278 8.45977ZM216.494 4.8086L216.818 3.8626V3.8626L216.494 4.8086ZM202.423 5.14563L202.797 6.07286L202.805 6.06961L202.423 5.14563ZM196.583 8.96532L195.88 8.25379V8.25379L196.583 8.96532ZM192.69 14.751L191.767 14.3641L191.764 14.3719L192.69 14.751ZM192.69 29.0749L191.762 29.4485L191.766 29.458L191.77 29.4674L192.69 29.0749ZM202.423 38.6803L202.035 39.602L202.044 39.6059L202.053 39.6096L202.423 38.6803ZM216.494 38.9611L216.813 39.9089L216.823 39.9055L216.494 38.9611ZM222.222 35.31L223.006 34.6891L222.306 33.8046L221.512 34.6064L222.222 35.31ZM223.335 36.7143L224.038 37.4256L224.335 37.132V36.7143H223.335ZM217.217 40.534L217.545 41.4787L217.558 41.474L217.217 40.534ZM221.555 36.6019H220.555V37.5408L221.492 37.5999L221.555 36.6019ZM221.555 22.1657V21.1657H220.555V22.1657H221.555ZM223.335 22.1657H224.335V21.1657H223.335V22.1657ZM280.91 41.545H279.91V42.545H280.91V41.545ZM280.91 2.22469V1.22469H279.91V2.22469H280.91ZM282.467 2.22469L283.259 1.61405L282.959 1.22469H282.467V2.22469ZM311.055 39.2982V40.2982H313.088L311.846 38.6875L311.055 39.2982ZM310.109 39.2982H309.109V40.2982H310.109V39.2982ZM310.109 2.22469V1.22469H309.109V2.22469H310.109ZM312 2.22469H313V1.22469H312V2.22469ZM312 41.545V42.545H313V41.545H312ZM310.443 41.545L309.651 42.1557L309.951 42.545H310.443V41.545ZM281.855 4.47157V3.47157H279.822L281.064 5.08221L281.855 4.47157ZM282.801 4.47157H283.801V3.47157H282.801V4.47157ZM282.801 41.545V42.545H283.801V41.545H282.801ZM251.035 3.2194L251.664 3.99725L251.664 3.99699L251.035 3.2194ZM253.57 2.32087V3.32087V2.32087ZM256.104 3.2194L255.476 3.99699L255.476 3.99729L256.104 3.2194ZM271.576 15.718L272.204 14.9401L272.204 14.9401L271.576 15.718ZM272.853 20.3176L271.913 19.9785L271.913 19.9788L272.853 20.3176ZM266.707 37.3851L265.766 37.0463L265.766 37.0466L266.707 37.3851ZM262.895 40.0822L262.895 39.0822H262.895V40.0822ZM244.244 40.0822V39.0822H244.244L244.244 40.0822ZM240.432 37.3851L241.373 37.0466L241.373 37.0464L240.432 37.3851ZM234.288 20.3176L235.229 19.9789L235.229 19.9785L234.288 20.3176ZM235.566 15.718L236.194 16.4958L236.194 16.4958L235.566 15.718ZM3 41.545V2.22469H1V41.545H3ZM2 3.22469H15.515V1.22469H2V3.22469ZM15.515 3.22469C18.6358 3.22469 21.2492 3.73225 23.387 4.70733L24.217 2.88768C21.7571 1.76567 18.8458 1.22469 15.515 1.22469V3.22469ZM23.3925 4.70981C25.5695 5.68703 27.1877 7.06176 28.2945 8.8233L29.988 7.75922C28.6477 5.62617 26.7063 4.00506 24.2115 2.8852L23.3925 4.70981ZM28.2992 8.83071C29.4002 10.5492 29.9766 12.6745 29.9766 15.2566H31.9766C31.9766 12.3713 31.3295 9.85306 29.9833 7.75181L28.2992 8.83071ZM29.9766 15.2566C29.9766 17.838 29.4004 19.986 28.2945 21.746L29.988 22.8101C31.3292 20.6755 31.9766 18.1426 31.9766 15.2566H29.9766ZM28.2945 21.746C27.1877 23.5076 25.5695 24.8823 23.3925 25.8595L24.2115 27.6841C26.7063 26.5643 28.6477 24.9432 29.988 22.8101L28.2945 21.746ZM23.387 25.862C21.2492 26.8371 18.6358 27.3446 15.515 27.3446V29.3446C18.8458 29.3446 21.7571 28.8037 24.217 27.6817L23.387 25.862ZM15.515 27.3446H3.05673V29.3446H15.515V27.3446ZM3.78964 29.025L4.6239 28.1262L3.15807 26.7656L2.32382 27.6643L3.78964 29.025ZM2.89099 27.4459V41.545H4.89099V27.4459H2.89099ZM3.89099 40.545H2V42.545H3.89099V40.545ZM4.60159 26.7423L3.76733 25.8997L2.34612 27.3069L3.18038 28.1495L4.60159 26.7423ZM3.05673 27.6033H15.6262V25.6033H3.05673V27.6033ZM15.6262 27.6033C20.1375 27.6033 23.7448 26.5813 26.2909 24.3831L24.9839 22.8693C22.9323 24.6405 19.8654 25.6033 15.6262 25.6033V27.6033ZM26.2849 24.3883C28.8839 22.1799 30.1413 19.0889 30.1413 15.2566H28.1413C28.1413 18.6143 27.0626 21.103 24.9899 22.8641L26.2849 24.3883ZM30.1413 15.2566C30.1413 11.4248 28.8838 8.34759 26.2777 6.17502L24.997 7.71124C27.0627 9.43326 28.1413 11.8984 28.1413 15.2566H30.1413ZM26.2909 6.18621C23.7448 3.98799 20.1375 2.96602 15.6262 2.96602V4.96602C19.8654 4.96602 22.9323 5.92879 24.9839 7.70006L26.2909 6.18621ZM15.6262 2.96602H3.05673V4.96602H15.6262V2.96602ZM3.78964 4.64634L4.6239 3.74759L3.15807 2.38695L2.32381 3.2857L3.78964 4.64634ZM2.89099 3.06727V27.4459H4.89099V3.06727H2.89099ZM43.1651 21.7053H64.6334V19.7053H43.1651V21.7053ZM63.6334 20.7053V22.4466H65.6334V20.7053H63.6334ZM64.6334 21.4466H43.1651V23.4466H64.6334V21.4466ZM44.1651 22.4466V20.7053H42.1651V22.4466H44.1651ZM43.4988 40.8037H67.9148V38.8037H43.4988V40.8037ZM66.9148 39.8037V41.545H68.9148V39.8037H66.9148ZM67.9148 40.545H41.6078V42.545H67.9148V40.545ZM42.6078 41.545V2.22469H40.6078V41.545H42.6078ZM41.6078 3.22469H67.1361V1.22469H41.6078V3.22469ZM66.1361 2.22469V3.96602H68.1361V2.22469H66.1361ZM67.1361 2.96602H43.4988V4.96602H67.1361V2.96602ZM42.4988 3.96602V39.8037H44.4988V3.96602H42.4988ZM80.3146 41.545V2.22469H78.3146V41.545H80.3146ZM79.3146 3.22469H80.8719V1.22469H79.3146V3.22469ZM80.08 2.83533L108.667 39.9088L110.251 38.6875L81.6638 1.61405L80.08 2.83533ZM109.459 38.2982H108.514V40.2982H109.459V38.2982ZM109.514 39.2982V2.22469H107.514V39.2982H109.514ZM108.514 3.22469H110.405V1.22469H108.514V3.22469ZM109.405 2.22469V41.545H111.405V2.22469H109.405ZM110.405 40.545H108.847V42.545H110.405V40.545ZM109.639 40.9344L81.052 3.86093L79.4682 5.08221L108.055 42.1557L109.639 40.9344ZM80.2601 5.47157H81.2056V3.47157H80.2601V5.47157ZM80.2056 4.47157V41.545H82.2056V4.47157H80.2056ZM81.2056 40.545H79.3146V42.545H81.2056V40.545ZM133.62 41.545V3.96602H131.62V41.545H133.62ZM132.62 2.96602H118.326V4.96602H132.62V2.96602ZM119.326 3.96602V2.22469H117.326V3.96602H119.326ZM118.326 3.22469H148.749V1.22469H118.326V3.22469ZM147.749 2.22469V3.96602H149.749V2.22469H147.749ZM148.749 2.96602H134.455V4.96602H148.749V2.96602ZM133.455 3.96602V41.545H135.455V3.96602H133.455ZM134.455 40.545H132.62V42.545H134.455V40.545ZM148.853 41.9617L166.873 2.64131L165.055 1.80807L147.035 41.1284L148.853 41.9617ZM165.964 3.22469H167.8V1.22469H165.964V3.22469ZM166.89 2.64131L184.91 41.9617L186.729 41.1284L168.709 1.80807L166.89 2.64131ZM185.82 40.545H183.762V42.545H185.82V40.545ZM184.672 41.131L167.375 3.10261L165.554 3.93067L182.851 41.9591L184.672 41.131ZM166.465 4.51664H167.299V2.51664H166.465V4.51664ZM166.389 3.10261L149.092 41.131L150.912 41.9591L168.209 3.93067L166.389 3.10261ZM150.002 40.545H147.944V42.545H150.002V40.545ZM155.087 30.4355L155.81 28.8065L153.982 27.9951L153.259 29.6241L155.087 30.4355ZM154.896 29.4008H178.701V27.4008H154.896V29.4008ZM177.787 28.8065L178.51 30.4355L180.338 29.6241L179.615 27.9951L177.787 28.8065ZM179.424 29.0298H154.173V31.0298H179.424V29.0298ZM209.708 40.7697C206.931 40.7697 204.367 40.3026 202.009 39.3782L201.279 41.2403C203.889 42.2632 206.702 42.7697 209.708 42.7697V40.7697ZM202.026 39.385C199.692 38.421 197.649 37.0857 195.888 35.3784L194.496 36.8143C196.443 38.7021 198.701 40.1754 201.262 41.2335L202.026 39.385ZM195.896 35.3855C194.174 33.6824 192.839 31.6965 191.888 29.4197L190.043 30.1905C191.094 32.7071 192.577 34.9153 194.489 36.8072L195.896 35.3855ZM191.89 29.4247C190.943 27.1208 190.464 24.6111 190.464 21.8849H188.464C188.464 24.8507 188.986 27.6212 190.041 30.1855L191.89 29.4247ZM190.464 21.8849C190.464 19.1584 190.943 16.6696 191.888 14.4062L190.043 13.6354C188.986 16.1654 188.464 18.9192 188.464 21.8849H190.464ZM191.89 14.4012C192.842 12.0872 194.177 10.0847 195.896 8.38424L194.489 6.96249C192.574 8.85704 191.091 11.0862 190.041 13.6404L191.89 14.4012ZM195.888 8.39131C197.647 6.68673 199.686 5.37207 202.014 4.4458L201.274 2.58748C198.708 3.60852 196.446 5.065 194.496 6.95542L195.888 8.39131ZM202.021 4.44287C204.376 3.4842 206.935 3 209.708 3V1C206.697 1 203.88 1.5269 201.267 2.59042L202.021 4.44287ZM209.708 3C212.307 3 214.731 3.41313 216.987 4.23195L217.669 2.35196C215.179 1.44818 212.523 1 209.708 1V3ZM216.987 4.23195C219.225 5.04429 221.115 6.25566 222.672 7.86356L224.109 6.47208C222.329 4.63476 220.177 3.26222 217.669 2.35196L216.987 4.23195ZM222.633 6.51535L221.52 7.80731L223.036 9.11224L224.148 7.82029L222.633 6.51535ZM222.973 7.74123C221.102 5.92962 219.05 4.62751 216.818 3.8626L216.17 5.7546C218.09 6.41271 219.895 7.54471 221.583 9.17832L222.973 7.74123ZM216.818 3.8626C214.628 3.112 212.274 2.74133 209.764 2.74133V4.74133C212.075 4.74133 214.207 5.08217 216.17 5.7546L216.818 3.8626ZM209.764 2.74133C207.01 2.74133 204.432 3.23158 202.04 4.22166L202.805 6.06961C204.937 5.18729 207.253 4.74133 209.764 4.74133V2.74133ZM202.048 4.21844C199.704 5.16551 197.645 6.51104 195.88 8.25379L197.285 9.67685C198.858 8.12418 200.692 6.92325 202.797 6.07283L202.048 4.21844ZM195.88 8.25379C194.116 9.99623 192.744 12.0358 191.767 14.3642L193.612 15.1379C194.489 13.0474 195.713 11.2298 197.285 9.67685L195.88 8.25379ZM191.764 14.3719C190.82 16.6758 190.355 19.1841 190.355 21.8849H192.355C192.355 19.4178 192.779 17.1702 193.615 15.1302L191.764 14.3719ZM190.355 21.8849C190.355 24.5859 190.82 27.1106 191.762 29.4485L193.617 28.7013C192.779 26.6203 192.355 24.3517 192.355 21.8849H190.355ZM191.77 29.4674C192.747 31.7579 194.119 33.7763 195.88 35.5159L197.285 34.0929C195.71 32.5371 194.486 30.7358 193.609 28.6824L191.77 29.4674ZM195.88 35.5159C197.642 37.2557 199.696 38.6179 202.035 39.602L202.81 37.7586C200.7 36.8703 198.861 35.6485 197.285 34.0929L195.88 35.5159ZM202.053 39.6096C204.442 40.5587 207.015 41.0284 209.764 41.0284V39.0284C207.248 39.0284 204.927 38.5993 202.792 37.751L202.053 39.6096ZM209.764 41.0284C212.239 41.0284 214.59 40.6572 216.813 39.9089L216.175 38.0134C214.17 38.6881 212.036 39.0284 209.764 39.0284V41.0284ZM216.823 39.9055C219.123 39.1043 221.162 37.8024 222.933 36.0136L221.512 34.6064C219.946 36.1878 218.165 37.32 216.165 38.0168L216.823 39.9055ZM221.438 35.9309L222.551 37.3352L224.119 36.0933L223.006 34.6891L221.438 35.9309ZM222.632 36.0029C221.034 37.5813 219.12 38.7792 216.876 39.594L217.558 41.474C220.059 40.5661 222.224 39.2175 224.038 37.4256L222.632 36.0029ZM216.889 39.5893C214.626 40.3748 212.235 40.7697 209.708 40.7697V42.7697C212.447 42.7697 215.061 42.3408 217.545 41.4786L216.889 39.5893ZM222.555 36.6019V22.1657H220.555V36.6019H222.555ZM221.555 23.1657H223.335V21.1657H221.555V23.1657ZM222.335 22.1657V36.7143H224.335V22.1657H222.335ZM223.398 35.7162L221.618 35.6039L221.492 37.5999L223.272 37.7123L223.398 35.7162ZM281.91 41.545V2.22469H279.91V41.545H281.91ZM280.91 3.22469H282.467V1.22469H280.91V3.22469ZM281.675 2.83533L310.263 39.9088L311.846 38.6875L283.259 1.61405L281.675 2.83533ZM311.055 38.2982H310.109V40.2982H311.055V38.2982ZM311.109 39.2982V2.22469H309.109V39.2982H311.109ZM310.109 3.22469H312V1.22469H310.109V3.22469ZM311 2.22469V41.545H313V2.22469H311ZM312 40.545H310.443V42.545H312V40.545ZM311.235 40.9344L282.647 3.86093L281.064 5.08221L309.651 42.1557L311.235 40.9344ZM281.855 5.47157H282.801V3.47157H281.855V5.47157ZM281.801 4.47157V41.545H283.801V4.47157H281.801ZM282.801 40.545H280.91V42.545H282.801V40.545ZM251.664 3.99699C252.206 3.55865 252.878 3.32087 253.57 3.32087V1.32087C252.419 1.32087 251.303 1.7169 250.406 2.44182L251.664 3.99699ZM253.57 3.32087C254.261 3.32087 254.934 3.55865 255.476 3.99699L256.733 2.44182C255.837 1.7169 254.721 1.32087 253.57 1.32087V3.32087ZM255.476 3.99729L270.947 16.4958L272.204 14.9401L256.733 2.44152L255.476 3.99729ZM270.947 16.4958C271.447 16.8994 271.81 17.4523 271.984 18.0778L273.911 17.5426C273.626 16.5178 273.03 15.6072 272.204 14.9401L270.947 16.4958ZM271.984 18.0778C272.158 18.7034 272.133 19.3683 271.913 19.9785L273.794 20.6567C274.155 19.6563 274.195 18.5674 273.911 17.5426L271.984 18.0778ZM271.913 19.9788L265.766 37.0463L267.648 37.7239L273.794 20.6564L271.913 19.9788ZM265.766 37.0466C265.551 37.6455 265.159 38.1611 264.645 38.5247L265.8 40.1573C266.65 39.5558 267.295 38.7057 267.648 37.7236L265.766 37.0466ZM264.645 38.5247C264.131 38.8881 263.52 39.0823 262.895 39.0822L262.895 41.0822C263.935 41.0824 264.95 40.759 265.8 40.1573L264.645 38.5247ZM262.895 39.0822H244.244V41.0822H262.895V39.0822ZM244.244 39.0822C243.619 39.0823 243.008 38.8881 242.495 38.5247L241.339 40.1573C242.19 40.759 243.204 41.0824 244.244 41.0822L244.244 39.0822ZM242.495 38.5247C241.981 38.1611 241.589 37.6455 241.373 37.0466L239.491 37.7236C239.845 38.7057 240.489 39.5558 241.339 40.1573L242.495 38.5247ZM241.373 37.0464L235.229 19.9789L233.347 20.6563L239.491 37.7238L241.373 37.0464ZM235.229 19.9785C235.009 19.3683 234.984 18.7033 235.158 18.0778L233.231 17.5426C232.946 18.5674 232.987 19.6564 233.347 20.6567L235.229 19.9785ZM235.158 18.0778C235.331 17.4524 235.695 16.8994 236.194 16.4958L234.937 14.9401C234.112 15.6072 233.515 16.5177 233.231 17.5426L235.158 18.0778ZM236.194 16.4958L251.664 3.99725L250.407 2.44156L234.937 14.9401L236.194 16.4958Z" fill="#533E85"/>
</svg>
