<svg width="1440" height="1024" viewBox="0 0 1440 1024" fill="none" xmlns="http://www.w3.org/2000/svg">
<path fill-rule="evenodd" clip-rule="evenodd" d="M417.376 -35.8841C430.02 -95.8466 452.259 -155.383 527.8 -195.3C604.002 -235.566 713.44 -258.343 833.773 -255.913C948.7 -253.592 1069.5 -225.384 1167.56 -182.38C1255.07 -144 1364.46 -116.185 1419 -64.9999C1472.2 -15.0738 1530.85 19.9912 1525 71C1519.15 122.018 1451.25 172.191 1387 205.215C1322.52 238.358 1244.56 280.699 1146.95 285.002C1048.55 289.339 994.86 228.275 894.821 205.215C771.797 176.856 536.865 213.715 453.707 156.074C370.355 98.2992 404.148 26.8457 417.376 -35.8841Z" fill="url(#paint0_linear_320_228)" fill-opacity="0.7"/>
<path fill-rule="evenodd" clip-rule="evenodd" d="M1009.27 1182.12C989.833 1255.91 960.028 1328.98 874.299 1376.72C787.821 1424.87 666.973 1450.73 536.721 1445.24C412.32 1439.99 284.028 1402.64 181.806 1347.5C90.5762 1298.28 65.5877 1226.16 11.3409 1161.81C-41.5718 1099.04 -142.746 1038.7 -131.531 975.817C-120.314 912.927 -19.8255 876.454 53 837C126.09 797.403 194.747 770.29 301 767C408.118 763.683 532.725 796.444 639 827C769.692 864.575 928.287 806.325 1012.95 879.24C1097.81 952.324 1029.61 1104.92 1009.27 1182.12Z" fill="url(#paint1_linear_320_228)" fill-opacity="0.7"/>
<defs>
<linearGradient id="paint0_linear_320_228" x1="411.65" y1="-53.2711" x2="1487.3" y2="73.0479" gradientUnits="userSpaceOnUse">
<stop stop-color="#25100B"/>
<stop offset="0.727083" stop-color="#FDB246"/>
</linearGradient>
<linearGradient id="paint1_linear_320_228" x1="1013.82" y1="1203.71" x2="-135.168" y2="995.93" gradientUnits="userSpaceOnUse">
<stop stop-color="#25100B"/>
<stop offset="0.727083" stop-color="#FDB246"/>
</linearGradient>
</defs>
</svg>
