<svg width="372" height="534" viewBox="0 0 372 534" fill="none" xmlns="http://www.w3.org/2000/svg">
<g filter="url(#filter0_d_172_183)">
<path d="M115.414 104V76H121.894V98.72H135.934V104H115.414ZM151.682 104.48C147.709 104.48 144.602 103.373 142.362 101.16C140.122 98.9467 139.002 95.7867 139.002 91.68V76H145.482V91.44C145.482 94.1067 146.029 96.0267 147.122 97.2C148.215 98.3733 149.749 98.96 151.722 98.96C153.695 98.96 155.229 98.3733 156.322 97.2C157.415 96.0267 157.962 94.1067 157.962 91.44V76H164.362V91.68C164.362 95.7867 163.242 98.9467 161.002 101.16C158.762 103.373 155.655 104.48 151.682 104.48ZM170.765 104V76H176.125L188.045 95.76H185.205L196.925 76H202.245L202.325 104H196.245L196.205 85.32H197.325L187.965 101.04H185.045L175.485 85.32H176.845V104H170.765ZM222.568 104.48C220.355 104.48 218.302 104.12 216.408 103.4C214.542 102.68 212.915 101.667 211.528 100.36C210.168 99.0533 209.102 97.52 208.328 95.76C207.582 94 207.208 92.08 207.208 90C207.208 87.92 207.582 86 208.328 84.24C209.102 82.48 210.182 80.9467 211.568 79.64C212.955 78.3333 214.582 77.32 216.448 76.6C218.315 75.88 220.342 75.52 222.528 75.52C224.742 75.52 226.768 75.88 228.608 76.6C230.475 77.32 232.088 78.3333 233.448 79.64C234.835 80.9467 235.915 82.48 236.688 84.24C237.462 85.9733 237.848 87.8933 237.848 90C237.848 92.08 237.462 94.0133 236.688 95.8C235.915 97.56 234.835 99.0933 233.448 100.4C232.088 101.68 230.475 102.68 228.608 103.4C226.768 104.12 224.755 104.48 222.568 104.48ZM222.528 98.96C223.782 98.96 224.928 98.7467 225.968 98.32C227.035 97.8933 227.968 97.28 228.768 96.48C229.568 95.68 230.182 94.7333 230.608 93.64C231.062 92.5467 231.288 91.3333 231.288 90C231.288 88.6667 231.062 87.4533 230.608 86.36C230.182 85.2667 229.568 84.32 228.768 83.52C227.995 82.72 227.075 82.1067 226.008 81.68C224.942 81.2533 223.782 81.04 222.528 81.04C221.275 81.04 220.115 81.2533 219.048 81.68C218.008 82.1067 217.088 82.72 216.288 83.52C215.488 84.32 214.862 85.2667 214.408 86.36C213.982 87.4533 213.768 88.6667 213.768 90C213.768 91.3067 213.982 92.52 214.408 93.64C214.862 94.7333 215.475 95.68 216.248 96.48C217.048 97.28 217.982 97.8933 219.048 98.32C220.115 98.7467 221.275 98.96 222.528 98.96ZM251.918 104.48C249.678 104.48 247.532 104.187 245.478 103.6C243.425 102.987 241.772 102.2 240.518 101.24L242.718 96.36C243.918 97.2133 245.332 97.92 246.958 98.48C248.612 99.0133 250.278 99.28 251.958 99.28C253.238 99.28 254.265 99.16 255.038 98.92C255.838 98.6533 256.425 98.2933 256.798 97.84C257.172 97.3867 257.358 96.8667 257.358 96.28C257.358 95.5333 257.065 94.9467 256.478 94.52C255.892 94.0667 255.118 93.7067 254.158 93.44C253.198 93.1467 252.132 92.88 250.958 92.64C249.812 92.3733 248.652 92.0533 247.478 91.68C246.332 91.3067 245.278 90.8267 244.318 90.24C243.358 89.6533 242.572 88.88 241.958 87.92C241.372 86.96 241.078 85.7333 241.078 84.24C241.078 82.64 241.505 81.1867 242.358 79.88C243.238 78.5467 244.545 77.4933 246.278 76.72C248.038 75.92 250.238 75.52 252.878 75.52C254.638 75.52 256.372 75.7333 258.078 76.16C259.785 76.56 261.292 77.1733 262.598 78L260.598 82.92C259.292 82.1733 257.985 81.6267 256.678 81.28C255.372 80.9067 254.092 80.72 252.838 80.72C251.585 80.72 250.558 80.8667 249.758 81.16C248.958 81.4533 248.385 81.84 248.038 82.32C247.692 82.7733 247.518 83.3067 247.518 83.92C247.518 84.64 247.812 85.2267 248.398 85.68C248.985 86.1067 249.758 86.4533 250.718 86.72C251.678 86.9867 252.732 87.2533 253.878 87.52C255.052 87.7867 256.212 88.0933 257.358 88.44C258.532 88.7867 259.598 89.2533 260.558 89.84C261.518 90.4267 262.292 91.2 262.878 92.16C263.492 93.12 263.798 94.3333 263.798 95.8C263.798 97.3733 263.358 98.8133 262.478 100.12C261.598 101.427 260.278 102.48 258.518 103.28C256.785 104.08 254.585 104.48 251.918 104.48Z" fill="#B48C00"/>
</g>
<rect x="2" y="2" width="368" height="530" rx="22" stroke="#B48C00" stroke-opacity="0.5" stroke-width="4"/>
<path d="M45.904 46.744H37.008L35.536 51H30.832L38.864 28.632H44.08L52.112 51H47.376L45.904 46.744ZM44.688 43.16L41.456 33.816L38.224 43.16H44.688ZM59.5943 35.864C60.1703 35.0107 60.9596 34.3173 61.9623 33.784C62.9863 33.2507 64.1489 32.984 65.4503 32.984C66.9649 32.984 68.3303 33.3573 69.5463 34.104C70.7836 34.8507 71.7543 35.9173 72.4583 37.304C73.1836 38.6693 73.5463 40.2587 73.5463 42.072C73.5463 43.8853 73.1836 45.496 72.4583 46.904C71.7543 48.2907 70.7836 49.368 69.5463 50.136C68.3303 50.904 66.9649 51.288 65.4503 51.288C64.1276 51.288 62.9649 51.032 61.9623 50.52C60.9809 49.9867 60.1916 49.304 59.5943 48.472V51H55.1143V27.32H59.5943V35.864ZM68.9703 42.072C68.9703 41.0053 68.7463 40.088 68.2983 39.32C67.8716 38.5307 67.2956 37.9333 66.5703 37.528C65.8663 37.1227 65.0983 36.92 64.2663 36.92C63.4556 36.92 62.6876 37.1333 61.9623 37.56C61.2583 37.9653 60.6823 38.5627 60.2343 39.352C59.8076 40.1413 59.5943 41.0693 59.5943 42.136C59.5943 43.2027 59.8076 44.1307 60.2343 44.92C60.6823 45.7093 61.2583 46.3173 61.9623 46.744C62.6876 47.1493 63.4556 47.352 64.2663 47.352C65.0983 47.352 65.8663 47.1387 66.5703 46.712C67.2956 46.2853 67.8716 45.6773 68.2983 44.888C68.7463 44.0987 68.9703 43.16 68.9703 42.072ZM84.6738 51.288C82.9671 51.288 81.4311 50.9147 80.0658 50.168C78.7004 49.4 77.6231 48.3227 76.8338 46.936C76.0658 45.5493 75.6818 43.9493 75.6818 42.136C75.6818 40.3227 76.0764 38.7227 76.8658 37.336C77.6764 35.9493 78.7751 34.8827 80.1618 34.136C81.5484 33.368 83.0951 32.984 84.8018 32.984C86.5084 32.984 88.0551 33.368 89.4418 34.136C90.8284 34.8827 91.9164 35.9493 92.7058 37.336C93.5164 38.7227 93.9218 40.3227 93.9218 42.136C93.9218 43.9493 93.5058 45.5493 92.6737 46.936C91.8631 48.3227 90.7538 49.4 89.3458 50.168C87.9591 50.9147 86.4018 51.288 84.6738 51.288ZM84.6738 47.384C85.4844 47.384 86.2418 47.192 86.9458 46.808C87.6711 46.4027 88.2471 45.8053 88.6738 45.016C89.1004 44.2267 89.3138 43.2667 89.3138 42.136C89.3138 40.4507 88.8658 39.16 87.9698 38.264C87.0951 37.3467 86.0178 36.888 84.7378 36.888C83.4578 36.888 82.3804 37.3467 81.5058 38.264C80.6524 39.16 80.2258 40.4507 80.2258 42.136C80.2258 43.8213 80.6418 45.1227 81.4738 46.04C82.3271 46.936 83.3938 47.384 84.6738 47.384ZM113.944 33.272V51H109.432V48.76C108.856 49.528 108.099 50.136 107.16 50.584C106.243 51.0107 105.24 51.224 104.152 51.224C102.765 51.224 101.539 50.936 100.472 50.36C99.4053 49.7627 98.5627 48.8987 97.944 47.768C97.3467 46.616 97.048 45.2507 97.048 43.672V33.272H101.528V43.032C101.528 44.44 101.88 45.528 102.584 46.296C103.288 47.0427 104.248 47.416 105.464 47.416C106.701 47.416 107.672 47.0427 108.376 46.296C109.08 45.528 109.432 44.44 109.432 43.032V33.272H113.944ZM123.58 36.952V45.528C123.58 46.1253 123.719 46.5627 123.996 46.84C124.295 47.096 124.786 47.224 125.468 47.224H127.548V51H124.732C120.956 51 119.068 49.1653 119.068 45.496V36.952H116.956V33.272H119.068V28.888H123.58V33.272H127.548V36.952H123.58ZM142.812 28.664V42.488C142.812 44.0027 143.206 45.1653 143.996 45.976C144.785 46.7653 145.894 47.16 147.324 47.16C148.774 47.16 149.894 46.7653 150.684 45.976C151.473 45.1653 151.868 44.0027 151.868 42.488V28.664H156.38V42.456C156.38 44.3547 155.964 45.9653 155.132 47.288C154.321 48.5893 153.222 49.5707 151.836 50.232C150.47 50.8933 148.945 51.224 147.26 51.224C145.596 51.224 144.081 50.8933 142.716 50.232C141.372 49.5707 140.305 48.5893 139.516 47.288C138.726 45.9653 138.332 44.3547 138.332 42.456V28.664H142.812ZM167.492 51.288C166.041 51.288 164.74 51.032 163.588 50.52C162.436 49.9867 161.519 49.272 160.836 48.376C160.175 47.48 159.812 46.488 159.748 45.4H164.26C164.345 46.0827 164.676 46.648 165.252 47.096C165.849 47.544 166.585 47.768 167.46 47.768C168.313 47.768 168.975 47.5973 169.444 47.256C169.935 46.9147 170.18 46.4773 170.18 45.944C170.18 45.368 169.881 44.9413 169.284 44.664C168.708 44.3653 167.78 44.0453 166.5 43.704C165.177 43.384 164.089 43.0533 163.236 42.712C162.404 42.3707 161.679 41.848 161.06 41.144C160.463 40.44 160.164 39.4907 160.164 38.296C160.164 37.3147 160.441 36.4187 160.996 35.608C161.572 34.7973 162.383 34.1573 163.428 33.688C164.495 33.2187 165.743 32.984 167.172 32.984C169.284 32.984 170.969 33.5173 172.228 34.584C173.487 35.6293 174.18 37.048 174.308 38.84H170.02C169.956 38.136 169.657 37.5813 169.124 37.176C168.612 36.7493 167.919 36.536 167.044 36.536C166.233 36.536 165.604 36.6853 165.156 36.984C164.729 37.2827 164.516 37.6987 164.516 38.232C164.516 38.8293 164.815 39.288 165.412 39.608C166.009 39.9067 166.937 40.216 168.196 40.536C169.476 40.856 170.532 41.1867 171.364 41.528C172.196 41.8693 172.911 42.4027 173.508 43.128C174.127 43.832 174.447 44.7707 174.468 45.944C174.468 46.968 174.18 47.8853 173.604 48.696C173.049 49.5067 172.239 50.1467 171.172 50.616C170.127 51.064 168.9 51.288 167.492 51.288Z" fill="#B48C00"/>
<defs>
<filter id="filter0_d_172_183" x="115.414" y="75.52" width="148.385" height="32.96" filterUnits="userSpaceOnUse" color-interpolation-filters="sRGB">
<feFlood flood-opacity="0" result="BackgroundImageFix"/>
<feColorMatrix in="SourceAlpha" type="matrix" values="0 0 0 0 0 0 0 0 0 0 0 0 0 0 0 0 0 0 127 0" result="hardAlpha"/>
<feOffset dy="4"/>
<feComposite in2="hardAlpha" operator="out"/>
<feColorMatrix type="matrix" values="0 0 0 0 1 0 0 0 0 0.780392 0 0 0 0 0 0 0 0 1 0"/>
<feBlend mode="normal" in2="BackgroundImageFix" result="effect1_dropShadow_172_183"/>
<feBlend mode="normal" in="SourceGraphic" in2="effect1_dropShadow_172_183" result="shape"/>
</filter>
</defs>
</svg>
