<svg width="65" height="65" viewBox="0 0 65 65" fill="none" xmlns="http://www.w3.org/2000/svg">
<path d="M32.4913 21.6616C26.5236 21.6616 21.6535 26.5317 21.6535 32.4994C21.6535 38.4671 26.5236 43.3371 32.4913 43.3371C38.4589 43.3371 43.329 38.4671 43.329 32.4994C43.329 26.5317 38.4589 21.6616 32.4913 21.6616ZM64.9964 32.4994C64.9964 28.0114 65.037 23.5641 64.785 19.0843C64.5329 13.8809 63.3459 9.26288 59.5409 5.45788C55.7278 1.64475 51.1179 0.465848 45.9145 0.213807C41.4265 -0.0382335 36.9792 0.00241832 32.4994 0.00241832C28.0114 0.00241832 23.5641 -0.0382335 19.0843 0.213807C13.8809 0.465848 9.26288 1.65288 5.45788 5.45788C1.64475 9.27101 0.465848 13.8809 0.213807 19.0843C-0.0382335 23.5723 0.00241832 28.0196 0.00241832 32.4994C0.00241832 36.9792 -0.0382335 41.4346 0.213807 45.9145C0.465848 51.1179 1.65288 55.7359 5.45788 59.5409C9.27101 63.354 13.8809 64.5329 19.0843 64.785C23.5723 65.037 28.0196 64.9964 32.4994 64.9964C36.9873 64.9964 41.4346 65.037 45.9145 64.785C51.1179 64.5329 55.7359 63.3459 59.5409 59.5409C63.354 55.7278 64.5329 51.1179 64.785 45.9145C65.0452 41.4346 64.9964 36.9873 64.9964 32.4994ZM32.4913 49.1747C23.2633 49.1747 15.8159 41.7273 15.8159 32.4994C15.8159 23.2715 23.2633 15.8241 32.4913 15.8241C41.7192 15.8241 49.1666 23.2715 49.1666 32.4994C49.1666 41.7273 41.7192 49.1747 32.4913 49.1747ZM49.8495 19.0355C47.695 19.0355 45.9551 17.2957 45.9551 15.1411C45.9551 12.9866 47.695 11.2467 49.8495 11.2467C52.0041 11.2467 53.744 12.9866 53.744 15.1411C53.7446 15.6527 53.6443 16.1594 53.4488 16.6322C53.2534 17.105 52.9665 17.5346 52.6048 17.8963C52.243 18.2581 51.8134 18.5449 51.3406 18.7404C50.8679 18.9359 50.3611 19.0362 49.8495 19.0355Z" fill="#B48C00"/>
</svg>
