<svg width="471" height="292" viewBox="0 0 471 292" fill="none" xmlns="http://www.w3.org/2000/svg">
<path fill-rule="evenodd" clip-rule="evenodd" d="M347.113 235.328C344.886 237.906 341.596 239.82 339.072 242.177C336.422 244.652 333.545 246.816 330.905 249.262C319.26 235.019 303.307 226.286 289.487 214.467C282.935 208.864 278.108 201.263 274.576 193.463C272.765 189.464 271.427 185.349 270.38 181.089C269.908 179.17 269.447 177.258 269.139 175.313C268.766 172.958 268.669 172.757 267.081 170.919C266.398 170.128 265.074 167.816 263.735 168.071C262.608 168.285 260.547 171.718 259.835 172.565C256.41 176.643 253.09 180.845 249.485 184.764C243.969 190.762 238.947 196.664 233.825 203.022C223.348 216.028 212.047 228.271 200.643 240.509C199.797 241.416 197.825 244.077 196.61 244.435C195.132 244.87 192.731 243.056 191.243 242.043C187.652 239.596 184.821 236.568 181.75 233.535C175.759 227.617 171.702 219.31 168.973 211.406C167.339 206.675 166.276 201.771 164.59 197.056C163.888 195.091 162.295 192.676 163.103 190.965C163.344 190.454 164.877 189.099 165.417 188.995C166.057 188.872 167.122 189.749 167.344 189.689C169.465 189.108 168.288 186.886 169.55 185.691C170.265 185.013 173.902 185.112 174.988 184.74C178.958 183.377 182.52 180.777 186.274 179.225C201.987 172.729 217.892 166.41 231.458 155.801C234.976 153.05 237.314 150.983 241.512 149.205C245.754 147.408 250.018 145.805 254.347 144.238C258.166 142.854 262.006 141.557 265.951 140.566C270.217 139.494 276.268 138.134 280.531 139.515C288.901 142.227 291.604 149.129 294.938 156.409C299.448 166.259 304.9 175.58 310.812 184.647C322.184 202.09 336.016 217.743 347.113 235.328Z" fill="url(#paint0_linear_139_14)"/>
<path fill-rule="evenodd" clip-rule="evenodd" d="M95.0272 81.1144C94.5665 80.8805 90.9704 82.3452 90.3668 82.5692C87.9557 83.4644 85.6847 84.9518 83.4131 86.1618C85.154 88.2819 86.8954 90.4024 88.6357 92.5229C90.3421 88.3347 92.5352 84.8788 95.0272 81.1144ZM96.2142 107.173C95.6219 107.24 100.623 119.265 101.207 120.615C103.332 125.526 105.563 130.388 107.716 135.287C109.802 140.034 112.448 144.4 115.114 148.835C117.395 152.627 119.74 158.513 123.18 161.322C121.008 151.68 121.294 140.594 115.064 132.498C108.607 124.105 102.222 115.91 96.2142 107.173ZM347.113 235.757C337.464 220.466 325.384 206.939 315.322 191.921C309.687 183.512 304.203 174.995 299.46 166.044C296.011 159.533 293.866 150.243 288.538 145.266C286.19 143.073 283.682 140.926 280.531 139.943C276.219 138.599 270.282 139.931 265.951 140.994C257.879 142.975 249.994 146.05 242.349 149.28C234.594 152.556 227.977 158.44 220.97 163.168C213.454 168.24 205.318 171.935 196.897 175.169C189.564 177.985 183.041 182.029 175.748 184.863C174.294 185.428 171.329 185.345 170.109 186.082C168.796 186.875 169.313 189.217 167.718 190.081C166.999 190.471 166.759 189.058 166.207 189.081C165.531 189.109 164.915 189.903 164.264 190.405C161.613 192.452 163.237 193.816 164.287 196.632C167.708 205.807 169.546 215.142 174.35 223.803C178.299 230.923 183.951 237.303 190.606 242.016C191.618 242.734 194.918 245.513 196.106 245.328C197.176 245.162 199.352 242.317 200.091 241.544C203.442 238.037 206.505 234.265 209.854 230.753C215.029 225.325 220.011 219.751 225.034 214.249C230.864 207.862 236.024 200.625 241.275 193.801C243.69 190.661 246.8 188.104 249.485 185.193C253.095 181.278 256.41 177.07 259.835 172.994C260.871 171.76 262.607 168.604 264.217 168.641C265.345 168.667 267.335 171.326 267.925 172.159C270.119 175.255 270.109 180.848 271.2 184.713C273.862 194.139 278.662 203.345 285.245 210.618C291.791 217.852 300.177 222.995 307.92 228.809C316.307 235.108 324.254 241.554 330.906 249.69C333.545 247.244 336.422 245.08 339.072 242.605C341.597 240.248 344.886 238.335 347.113 235.757ZM222.901 279.016C224.777 279.035 227.954 280.19 229.632 279.495C224.654 273.983 220.082 269.254 213.784 265.215C207.248 261.023 200.734 256.869 194.386 252.398C181.593 243.388 172.183 232.702 166.839 217.697C165.463 213.833 164.542 209.78 163.533 205.808C162.991 203.669 161.911 193.661 160.076 192.797C158.99 192.285 150.813 198.035 149.518 198.752C146.489 200.428 143.448 201.728 140.317 203.04C133.586 205.86 126.646 208.011 119.508 209.807C110.95 211.96 105.121 208.398 99.8197 201.667C93.8051 194.031 88.8069 185.415 83.3076 177.396C80.8068 173.748 78.735 170.107 76.8881 166.084C75.6793 163.452 70.8853 156.35 72.5418 153.545C77.2678 157.146 78.9683 164.305 82.1876 169.126C86.2 175.134 90.7218 180.799 94.7549 186.802C98.1464 191.849 101.606 197.966 106.617 201.594C111.024 204.786 115.211 203.805 119.955 202.37C125.703 200.632 131.662 199.775 137.296 197.619C143.393 195.287 149.162 191.977 155.11 189.279C157.883 188.021 161.204 187.305 163.817 185.737C166.069 184.385 165.734 183.672 165.899 180.794C166.092 177.437 166.315 174.077 166.463 170.717C166.563 168.46 165.342 165.398 166.171 163.713C159.417 164.885 152.817 166.454 146.111 167.842C142.439 168.602 138.899 169.542 135.189 170.139C133.776 170.366 131.843 170.36 130.577 170.976C129.567 170.686 129.052 170.871 129.032 171.53C128.984 171.887 128.908 172.24 128.802 172.587C126.732 173.53 125.527 171.508 123.731 169.568C121.515 167.175 119.856 164.48 118.23 161.667C114.594 155.379 110.404 149.465 107.039 143C103.61 136.409 100.825 129.353 97.9181 122.515C95.2511 116.242 93.5432 109.457 90.5961 103.333C89.2808 100.599 87.6139 98.3382 85.6674 96.0287C84.0612 94.1228 81.5899 90.0115 79.1912 89.1361C78.557 88.9046 76.896 89.2935 76.1755 89.2422C74.7394 89.1395 73.4596 88.612 71.99 88.7275C68.8081 88.9767 65.3392 90.9901 62.7964 92.7603C64.4396 94.2259 68.5502 96.0074 65.5976 98.6476C62.7323 101.211 61.1497 96.613 60.0564 94.5985C54.9078 98.8292 55.652 104.663 55.0572 110.64C54.7465 113.761 53.9293 116.835 53.4021 119.909C53.0224 122.121 53.2887 124.409 53.1802 126.668C52.9036 132.408 52.327 137.902 52.3552 143.561C52.3847 149.61 52.7965 155.452 53.2803 161.457C54.0945 171.568 55.9602 181.682 57.56 191.712C58.46 197.35 59.692 202.828 60.8879 208.375C62.2451 214.67 64.7558 220.633 66.1637 226.912C67.5984 225.088 68.6774 225.079 70.9977 225.32C72.7825 225.507 73.9814 225.082 73.8768 227.56C73.8093 229.168 72.3919 230.396 70.8237 230.677C68.7785 231.042 68.0836 230.021 67.0297 228.471C66.7832 231.407 68.7558 234.476 69.536 237.342C70.2743 240.059 70.7635 242.722 72.0043 245.322C73.215 247.859 74.2516 250.361 75.4767 252.873C76.0408 254.029 76.5685 255.203 77.1391 256.356C77.4276 256.939 77.7674 257.744 78.1979 258.236C79.2079 259.389 79.0472 258.83 80.2293 259.487C82.8046 260.919 81.8375 260.562 81.8977 263.518C81.9563 266.434 83.4506 268.576 85.8469 270.215C90.9309 273.693 95.9454 274.661 101.725 276.418C107.111 278.055 112.783 279.46 118.485 279.428C125.47 279.389 132.361 278.473 139.345 278.38C147.051 278.278 154.83 278.32 162.519 278.586C165.687 278.696 168.628 278.837 171.687 279.646C175.238 280.587 178.673 280.214 182.333 280.071C190.142 279.767 198.22 279.163 205.927 279.108C211.476 279.069 217.331 278.682 222.901 279.016ZM425.388 282.045C426.776 282.779 429.888 282.478 431.284 282.274C433.742 281.915 434.005 280.94 435.565 278.747C438.25 274.969 440.43 271.351 442.009 266.975C445.033 258.6 446.267 250.032 447.594 241.272C449.069 231.537 446.375 221.447 445.412 211.778C445.19 209.56 444.888 207.362 444.537 205.16C444.328 203.844 444.273 199.367 443.408 198.227C441.745 196.038 434.012 197.804 430.971 198.002C422.485 198.557 413.943 198.687 405.461 198.783C400.938 198.834 396.39 199.024 391.912 199.059C389.855 199.075 387.845 198.973 385.781 198.773C385.09 198.706 384.416 198.547 383.721 198.509C381.34 198.377 381.519 198.031 380.904 200.141C379.825 203.837 380.655 208.54 380.372 212.376C379.993 217.503 379.788 222.701 379.882 227.839C379.969 232.586 379.807 237.323 379.984 242.08C380.058 244.051 380.273 245.657 380.793 247.539C381.38 249.666 382.026 254.637 383.489 256.109C383.655 256.277 384.898 255.886 385.228 256.303C385.737 256.946 385.643 258.307 385.992 258.722C387.122 260.068 389.457 260.174 391.151 260.779C395.8 262.437 400.063 264.238 404.444 266.475C408.358 268.473 414.669 270.173 417.023 274.115C418.102 275.922 418.247 278.305 419.24 280.17C420.369 282.294 418.109 281.183 420.877 282.045C422.124 282.433 424.11 282.045 425.388 282.045ZM12.7304 258.023C12.3783 262.928 9.61706 267.6 8.65588 272.422C8.20612 274.68 7.44319 276.9 6.91452 279.145C6.40755 281.298 4.57594 283.849 4.76137 285.98C11.5217 283.57 18.3692 282.964 25.4348 282.314C32.1315 281.697 39.2059 281.452 45.8464 281.449C52.6131 281.446 59.8483 280.784 66.8157 280.682C74.1022 280.575 81.4987 280.386 88.6796 279.629C84.9247 276.847 80.2263 274.233 77.4538 270.361C74.4395 266.152 72.8742 260.879 70.222 256.437C64.8998 247.525 61.5162 236.465 58.7263 226.452C53.0939 206.237 46.7997 186.396 45.2827 165.429C42.3957 166.908 40.104 172.648 38.6585 175.506C36.8136 179.155 35.8475 183.111 34.6481 186.99C32.1783 194.979 30.469 203.263 27.4449 211.176C21.6651 226.303 17.9501 242.602 12.7304 258.023ZM379.7 140.209C380.95 149.25 383.572 158.407 383.672 167.557C383.694 169.57 383.354 171.805 383.773 173.79C384.221 175.909 385.677 177.783 386.518 179.797C387.852 182.993 391.232 189.546 387.973 192.255C387.906 189.684 385.556 186.42 384.371 184.172C382.587 180.785 380.242 177.688 378.307 174.385C374.257 167.472 369.719 160.707 364.5 154.612C359.416 148.676 353.558 143.41 348.167 137.757C346.547 136.058 333.554 119.71 333.038 119.939C337.068 135.491 343.919 149.022 353.295 162.043C357.891 168.427 363.409 172.627 369.004 178.035C373.664 182.538 382.447 187.354 380.836 194.733C388.12 194.032 395.357 192.912 402.708 192.912C401.499 183.603 400.573 174.441 398.415 165.284C395.965 154.887 394.306 144.178 392.232 133.689C390.117 122.98 386.528 112.613 384.296 101.924C382.158 91.6894 380.321 81.4727 378.754 71.1237C377.459 76.8581 377.937 83.1565 377.477 89.0073C377.008 94.9849 377.053 100.853 377.209 106.865C377.499 118.033 378.688 129.067 379.7 140.209ZM411.265 86.9623C411.306 82.1818 412.232 77.466 412.517 72.697C412.605 71.2338 414.061 61.251 412.703 60.7298C411.586 63.1667 411.326 66.285 410.311 68.8418C409.298 71.3961 407.942 73.8295 406.97 76.4016C404.863 81.9736 404.136 88.2784 403.909 94.2022C403.396 107.601 403.13 120.971 404.03 134.37C404.416 140.113 404.712 145.866 404.606 151.621C404.491 157.953 403.521 163.449 404.698 169.729C405.863 175.948 406.595 182.141 406.983 188.451C407.255 192.879 407.365 192.566 411.587 192.255C414.635 192.03 417.714 192.27 420.766 192.13C419.339 174.87 419.106 157.574 416.826 140.38C415.663 131.608 415.632 122.71 414.187 113.97C413.469 109.629 412.264 105.375 411.571 101.029C410.828 96.3628 411.194 91.6647 411.265 86.9623ZM102.491 76.1001C110.62 76.8048 119.267 79.2367 127.599 77.6309C126.225 77.0742 122.631 76.3064 124.249 74.1093C125.893 71.8753 128.665 74.7089 130.305 74.4163C131.317 74.2357 133.552 70.005 134.175 69.129C135.59 67.1383 135.761 66.7914 138.305 66.2811C140.77 65.7876 141.328 66.3221 141.641 63.8699C141.999 61.0501 141.024 57.8799 141.121 54.9965C141.328 48.7889 143.33 43.3452 145.192 37.5047C137.279 39.2275 129.54 41.2706 121.448 42.3809C117.989 42.8556 112.608 43.9507 109.466 41.5977C108.648 40.9858 108.779 40.1597 108.11 39.4506C106.989 38.2608 104.909 37.03 103.318 36.691C93.5304 34.606 92.5756 48.5683 97.4806 53.7929C98.7091 55.1021 100.418 55.7486 101.676 56.9482C103.356 58.5481 103.493 60.2334 103.738 62.6757C104.198 67.2552 103.574 71.8526 101.621 76.0418L102.491 76.1001ZM221.267 142.015C224.157 142.564 227.172 142.439 230.069 142.907C231.099 143.074 234.184 143.654 235.089 143.052C236.471 142.132 236.962 138.76 237.616 137.19C238.765 134.428 240.391 132.019 241.487 129.206C245.964 117.719 250.14 106.186 255.556 95.0905C253.48 94.5507 251.886 94.5294 249.794 94.2506C247.615 93.9599 245.639 92.6705 243.56 92.1163C241.584 91.5897 239.514 91.7239 237.556 91.1115C236.477 90.7745 235.552 90.0249 234.489 89.7628C232.794 89.3458 230.815 89.102 229.807 90.2153C228.774 91.3573 228.412 94.4885 227.85 95.9635C226.352 99.8932 224.613 103.686 223.359 107.706C222.227 111.331 221.152 114.918 220.156 118.577C219.103 122.44 217.029 125.623 215.766 129.313C214.804 132.121 213.897 134.993 213.754 137.987C213.614 140.909 213.189 141.095 216.109 141.562C217.583 141.797 219.881 142.674 221.267 142.015ZM411.377 278.769C412.13 279.12 412.839 279.074 413.505 278.629C406.981 275.872 400.634 272.047 393.827 270.155C387.442 268.381 381.236 266.261 375.085 264.076C370.087 262.3 365.593 260.918 361.074 257.793C358.331 255.896 355.895 253.763 354.01 250.991C351.911 247.905 351.444 243.513 349.172 240.734C346.104 244.105 342.501 246.657 338.872 249.336C337.616 250.263 334.604 252.283 334.175 253.717C333.633 255.527 335.085 257.258 335.803 259.089C337.642 263.78 338.54 268.467 339.538 273.343C339.938 275.298 340.801 278.235 342.406 279.054C343.866 279.799 348.097 279.257 349.915 279.119C359.398 278.4 368.713 277.664 378.254 278.319C389.051 279.06 400.609 279.571 411.377 278.769ZM430.319 191.86C432.043 191.866 433.726 191.65 435.444 191.65C434.452 187.019 436.77 181.026 437.591 176.403C438.51 171.232 439.21 165.884 439.823 160.671C441.115 149.692 441.701 138.845 441.718 127.785C441.733 117.083 443.68 107.303 446.408 97.0146C449.336 85.9654 454.131 76.029 458.096 65.3731C453.747 67.6737 451.34 73.0572 449.054 77.1729C446.165 82.3768 444.241 88.1387 443.061 93.9807C440.785 105.25 438.289 116.554 435.663 127.805C432.928 139.52 431.321 151.343 428.188 162.962C426.66 168.628 424.583 175.599 424.468 181.443C424.42 183.86 423.692 188.922 424.787 191.021C425.811 192.986 428.074 192.06 430.319 191.86ZM170.15 177.325C170.059 178.528 169.973 179.672 169.76 180.86C172.147 180.838 175.171 178.359 177.218 177.246C179.713 175.891 182.21 174.395 184.65 173.033C189.36 170.401 194.706 168.668 199.735 166.506C205.512 164.023 210.822 161.023 216.346 158.033C218.276 156.989 232.145 150.973 231.912 149.33C228.867 149.228 225.823 149.127 222.777 149.026C220.167 148.939 216.124 149.529 213.624 148.722C212.255 148.279 210.718 146.65 210.201 145.375C209.69 144.112 210.839 138.306 210.171 137.936C206.763 141.418 204.621 146.045 201.574 149.801C198.207 153.952 193.856 156.377 189.061 158.582C183.766 161.019 178.286 162.905 172.874 164.993C170.592 165.874 170.637 166.378 170.438 168.882C170.216 171.68 170.24 174.519 170.15 177.325ZM445.309 282.616C451.049 283.232 456.932 282.881 462.716 283.361C464.821 283.536 467.739 283.796 465.622 286.623C464.288 288.404 460.016 287.833 458.079 287.956C452.876 288.287 447.368 288.109 442.154 288.032C441.056 288.016 439.843 287.69 438.733 287.763C437.453 287.848 435.919 288.769 434.752 288.762C434.032 288.758 433.774 287.999 433.154 287.929C431.802 287.777 430.451 287.666 429.088 287.666C408.478 287.671 388.152 287.256 367.594 287.234C357.764 287.224 347.776 287.054 337.949 286.592C335.886 286.495 324.135 286.917 324.46 283.199C324.628 281.285 328.463 281.015 329.863 280.811C330.9 280.661 331.976 280.685 333.015 280.629C335.776 280.481 336.985 281.145 336.402 278.123C334.193 266.658 330.235 257.183 321.779 248.94C314.863 242.199 306.537 236.085 298.704 230.456C289.194 223.621 281.479 216.433 275.833 205.975C272.536 199.867 269.775 193.623 268.081 186.87C267.472 184.441 267.458 181.678 266.71 179.336C266.136 177.532 264.826 176.271 264.055 174.403C254.593 190.217 242.052 203.448 230.554 217.707C225.059 224.519 218.792 230.989 212.227 236.915C210.279 238.674 208.461 240.511 206.643 242.403C205.122 243.987 202.708 245.395 201.423 247.152C200.191 248.838 200.495 248.758 202.37 250.097C204.848 251.866 207.58 253.336 210.098 255.061C214.122 257.819 218.514 260.149 222.113 263.469C226.004 267.058 229.404 271.217 232.805 275.264C235.072 277.962 238.047 281.424 238.617 284.835C238.806 285.963 239.523 288.755 238.577 289.581C237.768 290.287 237.849 290.019 236.845 289.589C235.53 289.024 235.142 287.729 233.535 287.111C229.423 285.532 224.446 286.074 220.167 286.055C215.886 286.036 211.57 286.517 207.292 286.499C197.521 286.459 187.959 287.251 178.191 287.676C167.817 288.127 157.315 287.044 146.976 287.198C139.315 287.311 131.45 286.738 123.577 287.164C119.528 287.383 115.551 286.876 111.603 286.819C106.434 286.745 101.125 287.448 95.9109 287.549C87.3535 287.714 78.9007 287.713 70.291 287.919C51.7717 288.362 33.3526 288.82 14.8224 289.114C12.3507 289.153 9.64468 289.069 7.20204 289.347C4.60947 289.643 5.94792 290.195 4.16908 291.129C-0.810894 293.743 0.339165 284.053 0.458511 282.147C1.09864 271.934 3.68972 261.917 6.80356 252.221C9.75761 243.024 12.1559 233.399 14.6577 224.004C17.3962 213.721 20.9643 203.86 24.2044 193.678C27.5243 183.245 30.2274 172.405 36.2573 163.156C37.6308 161.05 39.0501 158.783 41.2595 157.455C43.7361 155.966 43.8426 156.836 43.8407 154.111C43.8392 151.545 43.997 148.117 43.3919 145.668C42.845 143.456 42.9293 144.768 41.6979 143.179C40.6958 141.886 39.6473 141.003 38.9283 139.434C34.5115 143.915 24.4011 141.55 20.1338 138.323C14.9107 134.373 10.9323 127.71 9.47453 121.363C8.30376 116.267 9.74035 106.553 15.3772 104.102C18.1251 102.907 28.2182 102.004 28.6221 98.1107C28.8302 96.1007 25.278 93.2745 24.4583 91.5463C22.9394 88.3445 21.4806 84.0857 21.0585 80.576C20.2339 73.7254 23.3418 66.0649 28.2927 61.4375C37.3748 52.9485 53.3548 48.592 65.0374 53.9779C62.5686 44.5409 61.0782 36.3998 62.3215 26.5833C63.3927 18.1264 68.379 13.3948 75.2404 9.18238C86.9491 1.99308 102.871 -0.844489 116.259 1.24593C119.302 1.72116 122.221 2.74022 125.038 3.55102C129.13 4.72898 134.03 4.33666 137.893 6.25056C140.695 7.63776 142.823 10.4013 145.283 12.2465C148.156 14.4005 150.543 17.6156 152.538 20.5889C156.807 26.947 155.139 38.7473 151.566 45.1296C150.801 46.4986 149.854 47.6509 148.587 48.5851C147.267 49.5572 145.255 49.8597 144.575 51.1206C142.834 54.3505 144.514 61.3428 144.746 64.8337C145.017 68.8872 142.969 71.9321 138.375 72.2553C135.718 72.4428 135.633 70.9002 134.361 74.0743C133.536 76.1317 132.787 78.3731 131.597 80.2592C129.144 84.1464 124.65 83.7669 120.557 83.6618C115.818 83.5394 111.151 82.7903 106.41 82.3175C107.663 86.3321 111.09 89.448 113.23 93.0243C116.124 97.8615 117.866 101.871 118.337 107.507C118.698 111.837 117.918 115.256 114.957 118.478C113.732 119.812 112.645 119.878 112.95 121.417C113.135 122.355 114.757 123.904 115.331 124.653C116.85 126.635 118.613 128.454 119.949 130.57C125.092 138.714 126.611 151.128 126.624 160.608C126.624 161.043 126.856 161.967 126.664 162.417C126.522 162.749 125.443 163.801 125.427 163.891C125.216 165.11 126.404 167.199 128.267 167.406C130.225 167.623 133.81 165.988 135.63 165.451C138.544 164.592 141.514 163.957 144.421 163.074C149.116 161.648 153.79 160.511 158.563 159.394C160.721 158.89 162.889 158.469 165.053 157.998C167.518 157.461 168.663 156.423 169.936 158.932C171.027 161.086 170.349 161.476 172.992 160.391C175.618 159.313 178.183 157.976 180.745 156.759C185.266 154.614 190.649 152.701 194.549 149.533C201.053 144.249 203.462 135.833 209.687 130.225C211.42 128.664 212.454 128.636 213.55 126.473C214.724 124.158 215.329 121.189 215.945 118.699C217.026 114.339 217.794 109.963 218.774 105.606C219.995 100.179 222.633 95.2637 224.558 90.087C225.308 88.0702 225.696 85.5065 226.906 83.6939C227.227 83.2132 227.839 82.9423 228.089 82.5445C228.95 81.1791 228.941 80.804 229.164 79.1612C230.207 71.485 234.786 75.5232 239.79 77.2835C241.898 78.0252 251.909 82.8352 248.086 86.034C252.643 87.3571 259.941 86.638 259.88 93.1728C259.848 96.5212 257.847 100.103 256.773 103.237C255.819 106.02 254.897 108.813 253.928 111.592C251.805 117.678 249.229 123.582 247.157 129.687C246.213 132.469 245.433 135.317 244.119 137.943C242.959 140.259 240.152 142.812 239.689 145.346C251.832 140.161 263.066 132.666 276.658 133.144C282.609 133.353 288.011 135.856 291.298 141.093C295.418 147.656 298.13 155.005 302.158 161.629C316.81 185.725 334.286 207.617 350.371 230.716C351.606 232.491 353.195 234.169 353.624 236.363C353.903 237.794 353.361 239.226 353.696 240.6C354.392 243.458 357.908 247.025 360.292 248.667C364.861 251.814 372.29 256.254 377.992 255.861C374.413 247.255 374.461 237.824 374.628 228.644C374.786 219.924 375.728 211.273 376.846 202.643C377.099 200.69 377.319 198.88 377.88 196.987C378.523 194.816 379.407 195.022 377.479 193.07C374.513 190.065 370.984 187.592 367.992 184.549C361.524 177.969 354.894 172.811 349.802 164.953C344.96 157.479 339.852 149.789 336.268 141.605C332.578 133.18 331.103 124.182 329.271 115.259C328.528 111.638 325.818 107.596 326.362 103.815C327.05 99.0365 329.265 102.516 330.166 105.088C332.917 112.938 339.358 119.963 344.693 126.277C350.458 133.097 357.507 138.803 363.524 145.424C370.076 152.636 374.563 160.924 380.39 168.623C380.39 159.069 377.13 149.34 375.796 139.889C374.623 131.57 374.255 123.225 373.513 114.871C371.829 95.892 373.284 76.3542 375.648 57.5113C376.771 48.5624 376.134 39.8241 376.168 30.8446C376.179 27.9868 374.997 21.4002 376.504 18.8642C379.389 14.0067 381.072 24.6281 381.218 26.2117C382.091 35.6453 380.526 44.9737 381.325 54.3668C382.161 64.1759 383.973 73.7096 385.516 83.4052C387.187 93.9032 389.908 104.164 392.513 114.461C395.248 125.272 397.548 136.308 400.589 147.033C401.409 143.662 400.259 139.52 400.031 136.087C399.707 131.174 399.073 126.26 399.018 121.334C398.931 113.483 398.869 105.486 399.313 97.672C399.751 89.9696 399.619 81.8986 401.979 74.478C403.1 70.9559 404.743 67.5198 406.351 64.202C408.334 60.111 409.036 56.1443 410.134 51.7932C411.075 48.0669 412.452 44.4388 413.079 40.6379C413.468 38.2741 414.556 31.2961 417.26 36.5829C418.83 39.6514 418.152 44.2004 418.196 47.4969C418.252 51.7232 417.605 55.8324 417.506 60.0409C417.313 68.298 417.175 76.5452 416.559 84.7884C415.914 93.4369 416.477 101.188 418.122 109.709C419.921 119.037 420.448 128.385 421.38 137.827C421.861 142.702 422.672 147.55 423.064 152.433C423.271 155.018 422.208 162.432 424.06 164.273C424.239 159.795 425.521 155.313 426.493 150.95C427.645 145.78 428.11 140.346 428.958 135.103C430.333 126.608 433 118.495 434.764 110.096C438.401 92.7805 441.424 70.5266 456.666 59.1931C458.661 57.7102 460.852 56.6156 463.008 55.3952C464.229 54.7043 466.042 52.9169 467.439 52.605C468.963 52.2645 469.599 52.529 470.217 54.2987C471.079 56.7656 469.503 57.9179 468.032 59.7098C462.941 65.91 460.766 73.8581 457.623 81.1297C450.424 97.7805 447.24 115.343 447.203 133.341C447.184 142.764 446.534 151.851 445.53 161.216C444.45 171.295 443.027 181.954 439.967 191.65C443.036 192.338 446.366 191.312 447.199 194.882C447.403 195.758 447.033 196.795 447.26 197.937C447.48 199.046 448.009 200.15 448.322 201.241C448.969 203.497 449.311 205.724 449.626 208.041C450.843 216.997 452.932 225.515 453.154 234.596C453.359 242.99 451.716 251.494 450.203 259.727C448.679 268.018 444.307 275.086 440.865 282.585C442.347 282.585 443.828 282.6 445.309 282.616Z" fill="black"/>
<path fill-rule="evenodd" clip-rule="evenodd" d="M250.509 263.555C248.876 264.017 240.996 264.888 240.998 267.363C240.999 268.847 248.869 268.818 250.261 268.979C250.344 267.171 250.427 265.363 250.509 263.555ZM267.903 280.629C272.444 281.493 278.608 280.278 281.512 276.272C282.868 274.4 283.511 271.554 283.953 269.32C284.375 267.191 285.677 261.878 284.791 259.883C283.704 257.432 273.27 259.993 270.231 260.274C264.93 260.764 259.449 260.822 254.144 260.476C254.144 265.956 253.864 271.298 257.086 276.015C259.41 279.419 263.774 280.222 267.903 280.629ZM266.99 287.399C262.056 285.592 256.876 286.766 253.663 281.466C252.848 280.121 252.161 278.675 251.668 277.181C251.427 276.527 251.24 275.857 251.107 275.17C251.358 273.693 250.817 273.276 249.484 273.92C246.869 273.412 244.001 275.208 241.246 274.678C234.565 273.394 235.779 263.817 240.262 260.502C241.148 259.847 242.033 259.664 243.047 259.341C245.282 258.628 246.492 259.424 248.536 259.222C250.188 259.058 250.642 257.325 252.417 256.561C253.58 256.062 255.193 256.1 256.415 256.05C262.811 255.787 269.226 255.79 275.663 255.373C278.665 255.178 281.906 255.654 284.846 255.141C286.223 254.9 286.026 253.983 287.329 254.787C288.679 255.62 288.096 258.701 288.028 259.929C287.634 267.032 287.212 274.649 283.409 280.859C279.931 286.54 273.085 287.122 266.99 287.399Z" fill="black"/>
<path fill-rule="evenodd" clip-rule="evenodd" d="M6.40894 289.356C7.99643 289.339 9.58343 289.322 11.1655 289.306C9.57604 289.323 7.99249 289.339 6.40894 289.356Z" fill="black"/>
<path fill-rule="evenodd" clip-rule="evenodd" d="M447.213 137.916C447.21 136.39 447.207 134.864 447.203 133.341C447.206 134.868 447.21 136.392 447.213 137.916Z" fill="black"/>
<path fill-rule="evenodd" clip-rule="evenodd" d="M43.3969 144.182C43.3919 145.668 43.387 147.155 43.3821 148.638C43.3865 147.15 43.3914 145.666 43.3969 144.182Z" fill="black"/>
<path fill-rule="evenodd" clip-rule="evenodd" d="M175.352 287.671C176.615 287.673 177.878 287.674 179.135 287.678C177.87 287.676 176.612 287.674 175.352 287.671Z" fill="black"/>
<path fill-rule="evenodd" clip-rule="evenodd" d="M98.6667 287.368C99.9297 287.372 101.192 287.376 102.449 287.381C101.184 287.377 99.9258 287.372 98.6667 287.368Z" fill="black"/>
<path fill-rule="evenodd" clip-rule="evenodd" d="M374.794 225.637C374.739 226.64 374.683 227.643 374.627 228.644C374.683 227.64 374.739 226.639 374.794 225.637Z" fill="black"/>
<path fill-rule="evenodd" clip-rule="evenodd" d="M445.31 282.615C444.334 282.605 443.358 282.595 442.382 282.585C443.362 282.175 444.338 282.194 445.31 282.615Z" fill="black"/>
<path fill-rule="evenodd" clip-rule="evenodd" d="M358.657 287.057C359.358 287.047 360.059 287.036 360.752 287.024C360.05 287.034 359.354 287.046 358.657 287.057Z" fill="black"/>
<path fill-rule="evenodd" clip-rule="evenodd" d="M446.833 150.296C446.85 149.537 446.867 148.779 446.884 148.024C446.867 148.783 446.85 149.539 446.833 150.296Z" fill="black"/>
<path fill-rule="evenodd" clip-rule="evenodd" d="M381.325 54.3668C381.267 53.5846 381.21 52.8029 381.152 52.0227C381.21 52.8054 381.267 53.5861 381.325 54.3668Z" fill="black"/>
<path fill-rule="evenodd" clip-rule="evenodd" d="M447.178 140.903C447.188 140.118 447.197 139.335 447.206 138.554C447.197 139.338 447.188 140.12 447.178 140.903Z" fill="black"/>
<path fill-rule="evenodd" clip-rule="evenodd" d="M226.89 286.085C227.513 286.095 228.136 286.104 228.753 286.111C228.129 286.102 227.509 286.094 226.89 286.085Z" fill="black"/>
<path fill-rule="evenodd" clip-rule="evenodd" d="M387.319 287.363C387.928 287.375 388.537 287.388 389.14 287.4C388.529 287.389 387.924 287.376 387.319 287.363Z" fill="black"/>
<path fill-rule="evenodd" clip-rule="evenodd" d="M453.084 232.236C453.04 231.548 452.996 230.861 452.953 230.174C452.997 230.862 453.041 231.549 453.084 232.236Z" fill="black"/>
<path fill-rule="evenodd" clip-rule="evenodd" d="M442.154 288.032C442.65 288.029 443.145 288.026 443.635 288.025C443.138 288.029 442.646 288.031 442.154 288.032Z" fill="black"/>
<path fill-rule="evenodd" clip-rule="evenodd" d="M374.631 287.395C375.122 287.383 375.612 287.371 376.098 287.36C375.605 287.372 375.118 287.384 374.631 287.395Z" fill="black"/>
<path fill-rule="evenodd" clip-rule="evenodd" d="M264.316 287.02C264.857 287.017 265.397 287.014 265.932 287.01C265.39 287.013 264.853 287.017 264.316 287.02Z" fill="black"/>
<path fill-rule="evenodd" clip-rule="evenodd" d="M139.738 287.018C140.252 287.021 140.766 287.025 141.274 287.03C140.758 287.027 140.248 287.022 139.738 287.018Z" fill="black"/>
<path fill-rule="evenodd" clip-rule="evenodd" d="M109.433 287.101C109.957 287.072 110.479 287.042 110.998 287.014C110.473 287.043 109.953 287.072 109.433 287.101Z" fill="black"/>
<path fill-rule="evenodd" clip-rule="evenodd" d="M254.524 87.4261C253.745 87.359 252.966 87.2919 252.187 87.2243C252.967 87.2791 253.792 86.8172 254.524 87.4261Z" fill="black"/>
<path fill-rule="evenodd" clip-rule="evenodd" d="M453.158 282.912C452.39 282.834 451.621 282.756 450.853 282.678C451.622 282.756 452.39 282.834 453.158 282.912Z" fill="black"/>
<path fill-rule="evenodd" clip-rule="evenodd" d="M399.565 92.1602C399.513 92.8338 399.461 93.5079 399.41 94.1796C399.462 93.505 399.513 92.8323 399.565 92.1602Z" fill="black"/>
<path fill-rule="evenodd" clip-rule="evenodd" d="M447.372 120.246C447.424 119.607 447.476 118.969 447.528 118.332C447.476 118.972 447.423 119.609 447.372 120.246Z" fill="black"/>
<path fill-rule="evenodd" clip-rule="evenodd" d="M399.259 102.609C399.204 103.282 399.148 103.954 399.093 104.624C399.148 103.951 399.204 103.28 399.259 102.609Z" fill="black"/>
<path fill-rule="evenodd" clip-rule="evenodd" d="M447.046 146.025C447.041 145.375 447.036 144.725 447.032 144.077C447.451 144.725 447.434 145.373 447.046 146.025Z" fill="black"/>
<path fill-rule="evenodd" clip-rule="evenodd" d="M374.805 239.359C374.799 240.011 374.794 240.663 374.787 241.311C374.357 240.654 374.443 240.005 374.805 239.359Z" fill="black"/>
<path fill-rule="evenodd" clip-rule="evenodd" d="M423.778 163.992C423.703 163.333 423.627 162.673 423.552 162.016C423.628 162.676 423.703 163.334 423.778 163.992Z" fill="black"/>
<path fill-rule="evenodd" clip-rule="evenodd" d="M18.266 103.475C17.7565 104.149 17.0626 103.688 16.457 103.77C17.0607 103.671 17.6633 103.574 18.266 103.475Z" fill="black"/>
<path fill-rule="evenodd" clip-rule="evenodd" d="M270.17 255.84C269.527 255.841 268.883 255.841 268.24 255.842C268.884 255.841 269.527 255.84 270.17 255.84Z" fill="black"/>
<path fill-rule="evenodd" clip-rule="evenodd" d="M372.994 106.243C373.054 106.791 373.113 107.339 373.174 107.885C373.113 107.336 373.054 106.79 372.994 106.243Z" fill="black"/>
<path fill-rule="evenodd" clip-rule="evenodd" d="M54.9289 51.8406C54.2819 51.8534 53.6348 51.8663 52.9878 51.8791C53.6279 51.5021 54.273 51.393 54.9289 51.8406Z" fill="black"/>
<path fill-rule="evenodd" clip-rule="evenodd" d="M399.243 112.085C399.201 112.659 399.159 113.233 399.117 113.805C399.159 113.231 399.201 112.658 399.243 112.085Z" fill="black"/>
<path fill-rule="evenodd" clip-rule="evenodd" d="M381.499 41.5741C381.55 41.0505 381.599 40.5269 381.649 40.0062C381.599 40.5308 381.55 41.0524 381.499 41.5741Z" fill="black"/>
<path fill-rule="evenodd" clip-rule="evenodd" d="M376.415 39.9337C376.364 40.5017 376.313 41.0702 376.263 41.6362C376.313 41.0672 376.364 40.5002 376.415 39.9337Z" fill="black"/>
<path fill-rule="evenodd" clip-rule="evenodd" d="M95.364 1.98834C94.7057 2.06829 94.0473 2.14823 93.3894 2.22769C94.0478 2.14774 94.7057 2.06829 95.364 1.98834Z" fill="black"/>
<path fill-rule="evenodd" clip-rule="evenodd" d="M47.8111 52.2926C47.1354 52.3617 46.4598 52.4308 45.7847 52.4999C46.4603 52.4308 47.1359 52.3617 47.8111 52.2926Z" fill="black"/>
<path fill-rule="evenodd" clip-rule="evenodd" d="M418.046 53.9577C418.087 53.4292 418.128 52.9001 418.169 52.3746C418.128 52.9036 418.087 53.4306 418.046 53.9577Z" fill="black"/>
<path fill-rule="evenodd" clip-rule="evenodd" d="M25.6355 141.185C26.0246 141.191 26.4132 141.196 26.7964 141.202C26.4058 141.196 26.0207 141.191 25.6355 141.185Z" fill="black"/>
<path fill-rule="evenodd" clip-rule="evenodd" d="M376.435 206.417C376.396 207.003 376.357 207.587 376.318 208.171C376.357 207.586 376.396 207.002 376.435 206.417Z" fill="black"/>
<path fill-rule="evenodd" clip-rule="evenodd" d="M416.127 92.519C416.111 91.9549 416.096 91.3913 416.08 90.8288C416.097 91.3933 416.112 91.9559 416.127 92.519Z" fill="black"/>
<path fill-rule="evenodd" clip-rule="evenodd" d="M111.937 0.653698C111.337 0.653698 110.737 0.654192 110.138 0.654192C110.738 0.241634 111.338 0.251998 111.937 0.653698Z" fill="black"/>
<path fill-rule="evenodd" clip-rule="evenodd" d="M272.172 133.414C271.514 133.431 270.857 133.447 270.2 133.464C270.846 133.007 271.504 132.996 272.172 133.414Z" fill="black"/>
<path fill-rule="evenodd" clip-rule="evenodd" d="M329.62 286.062C330.01 286.07 330.4 286.078 330.785 286.088C330.393 286.08 330.007 286.071 329.62 286.062Z" fill="black"/>
<path fill-rule="evenodd" clip-rule="evenodd" d="M344.295 286.748C344.684 286.734 345.073 286.72 345.457 286.707C345.066 286.72 344.681 286.734 344.295 286.748Z" fill="black"/>
<path fill-rule="evenodd" clip-rule="evenodd" d="M114.631 287.019C115.037 287.029 115.443 287.039 115.843 287.049C115.436 287.039 115.033 287.029 114.631 287.019Z" fill="black"/>
<path fill-rule="evenodd" clip-rule="evenodd" d="M452.747 225.71C452.689 225.152 452.631 224.594 452.573 224.039C452.631 224.597 452.689 225.154 452.747 225.71Z" fill="black"/>
<path fill-rule="evenodd" clip-rule="evenodd" d="M399.74 131.701C399.786 132.233 399.832 132.764 399.878 133.292C399.832 132.76 399.786 132.231 399.74 131.701Z" fill="black"/>
<path fill-rule="evenodd" clip-rule="evenodd" d="M420.139 122.576C420.076 122.012 420.013 121.449 419.95 120.887C420.013 121.451 420.076 122.013 420.139 122.576Z" fill="black"/>
<path fill-rule="evenodd" clip-rule="evenodd" d="M117.924 287.355C118.333 287.348 118.743 287.342 119.148 287.336C118.737 287.343 118.33 287.349 117.924 287.355Z" fill="black"/>
<path fill-rule="evenodd" clip-rule="evenodd" d="M266.99 287.399C267.389 287.381 267.786 287.363 268.18 287.345C267.781 287.363 267.386 287.381 266.99 287.399Z" fill="black"/>
<path fill-rule="evenodd" clip-rule="evenodd" d="M416.809 81.4243C416.791 80.8534 416.773 80.2824 416.756 79.7124C416.774 80.2839 416.792 80.8538 416.809 81.4243Z" fill="black"/>
<path fill-rule="evenodd" clip-rule="evenodd" d="M79.1104 287.728C79.5098 287.725 79.9088 287.721 80.3028 287.719C79.9014 287.722 79.5064 287.725 79.1104 287.728Z" fill="black"/>
<path fill-rule="evenodd" clip-rule="evenodd" d="M416.643 287.722C417.053 287.726 417.464 287.73 417.869 287.735C417.456 287.731 417.049 287.726 416.643 287.722Z" fill="black"/>
<path fill-rule="evenodd" clip-rule="evenodd" d="M425.507 287.673C425.904 287.702 426.3 287.73 426.691 287.757C426.293 287.729 425.9 287.702 425.507 287.673Z" fill="black"/>
<path fill-rule="evenodd" clip-rule="evenodd" d="M429.088 287.666C429.491 287.678 429.895 287.69 430.293 287.699C429.889 287.687 429.488 287.676 429.088 287.666Z" fill="black"/>
<path fill-rule="evenodd" clip-rule="evenodd" d="M447.47 124.84C447.444 124.278 447.417 123.716 447.391 123.156C447.418 123.718 447.444 124.279 447.47 124.84Z" fill="black"/>
<path fill-rule="evenodd" clip-rule="evenodd" d="M176.559 280.305C177.787 280.241 179.015 280.177 180.243 280.113C179.015 280.177 177.787 280.24 176.559 280.305Z" fill="black"/>
<path fill-rule="evenodd" clip-rule="evenodd" d="M102.491 76.1001C103.557 76.1928 104.623 76.2856 105.687 76.3774C104.622 76.2851 103.556 76.1923 102.491 76.1001Z" fill="black"/>
<path fill-rule="evenodd" clip-rule="evenodd" d="M403.394 122.464C403.427 123.482 403.461 124.5 403.494 125.514C403.46 124.496 403.427 123.48 403.394 122.464Z" fill="black"/>
<path fill-rule="evenodd" clip-rule="evenodd" d="M425.388 282.045C426.501 282.112 427.613 282.179 428.725 282.247C427.606 282.298 426.469 282.617 425.388 282.045Z" fill="black"/>
<path fill-rule="evenodd" clip-rule="evenodd" d="M418.804 161.68C418.813 160.709 418.821 159.738 418.829 158.77C418.82 159.741 418.813 160.71 418.804 161.68Z" fill="black"/>
<path fill-rule="evenodd" clip-rule="evenodd" d="M415.957 192.177C416.933 192.19 417.909 192.203 418.885 192.216C417.908 192.203 416.933 192.19 415.957 192.177Z" fill="black"/>
<path fill-rule="evenodd" clip-rule="evenodd" d="M170.221 175.112C170.196 175.852 170.172 176.592 170.149 177.328C170.174 176.587 170.197 175.85 170.221 175.112Z" fill="black"/>
<path fill-rule="evenodd" clip-rule="evenodd" d="M432.203 143.788C432.163 144.524 432.123 145.26 432.084 145.992C432.124 145.256 432.164 144.522 432.203 143.788Z" fill="black"/>
<path fill-rule="evenodd" clip-rule="evenodd" d="M411.377 278.769C412.087 278.72 412.798 278.673 413.506 278.627C412.972 279.055 412.435 279.09 411.377 278.769Z" fill="black"/>
<path fill-rule="evenodd" clip-rule="evenodd" d="M406.625 182.539C406.673 183.333 406.722 184.126 406.77 184.917C406.722 184.123 406.673 183.331 406.625 182.539Z" fill="black"/>
<path fill-rule="evenodd" clip-rule="evenodd" d="M141.098 57.2897C141.105 56.5233 141.112 55.7569 141.12 54.9935C141.113 55.7609 141.106 56.5253 141.098 57.2897Z" fill="black"/>
<path fill-rule="evenodd" clip-rule="evenodd" d="M407.484 192.338L410.131 192.28C409.258 192.702 408.375 192.717 407.484 192.338Z" fill="black"/>
<path fill-rule="evenodd" clip-rule="evenodd" d="M431.903 197.993C431.279 197.999 430.655 198.004 430.035 198.01C430.661 198.005 431.282 197.999 431.903 197.993Z" fill="black"/>
<path fill-rule="evenodd" clip-rule="evenodd" d="M203.335 279.074C204.199 279.085 205.064 279.097 205.928 279.107C205.057 279.544 204.192 279.606 203.335 279.074Z" fill="black"/>
<path fill-rule="evenodd" clip-rule="evenodd" d="M40.5764 281.622C41.4533 281.543 42.3306 281.465 43.2074 281.386C42.3306 281.465 41.4533 281.543 40.5764 281.622Z" fill="black"/>
<path fill-rule="evenodd" clip-rule="evenodd" d="M403.698 129C403.741 129.796 403.784 130.593 403.827 131.387C403.784 130.589 403.741 129.795 403.698 129Z" fill="black"/>
<path fill-rule="evenodd" clip-rule="evenodd" d="M123.807 77.9699C124.546 77.6052 125.292 77.544 126.044 77.9304C125.298 77.9437 124.553 77.9571 123.807 77.9699Z" fill="black"/>
<path fill-rule="evenodd" clip-rule="evenodd" d="M379.517 138.197C379.578 138.868 379.639 139.541 379.7 140.21C379.638 139.538 379.578 138.867 379.517 138.197Z" fill="black"/>
<path fill-rule="evenodd" clip-rule="evenodd" d="M441.965 122.52C441.585 121.863 441.598 121.209 441.983 120.561C441.977 121.215 441.971 121.868 441.965 122.52Z" fill="black"/>
<path fill-rule="evenodd" clip-rule="evenodd" d="M403.819 99.7007C403.819 100.365 403.82 101.031 403.82 101.693C403.819 101.027 403.819 100.364 403.819 99.7007Z" fill="black"/>
<path fill-rule="evenodd" clip-rule="evenodd" d="M430.319 191.86C431.08 191.626 431.841 191.296 432.599 191.868C431.839 191.865 431.079 191.862 430.319 191.86Z" fill="black"/>
<path fill-rule="evenodd" clip-rule="evenodd" d="M184.425 280.004C185.191 279.933 185.956 279.861 186.722 279.79C185.956 279.861 185.191 279.933 184.425 280.004Z" fill="black"/>
<path fill-rule="evenodd" clip-rule="evenodd" d="M79.4575 280.006C80.1588 279.697 80.8586 279.535 81.5495 280.029C80.8517 280.021 80.1549 280.013 79.4575 280.006Z" fill="black"/>
<path fill-rule="evenodd" clip-rule="evenodd" d="M222.901 279.016C223.651 278.688 224.399 278.508 225.139 279.039C224.392 279.031 223.647 279.023 222.901 279.016Z" fill="black"/>
<path fill-rule="evenodd" clip-rule="evenodd" d="M55.9705 181.934C56.0267 182.611 56.0834 183.289 56.1391 183.965C56.0824 183.286 56.0262 182.61 55.9705 181.934Z" fill="black"/>
<path fill-rule="evenodd" clip-rule="evenodd" d="M230.069 142.907C230.807 142.638 231.542 142.498 232.267 142.947C231.534 142.933 230.802 142.92 230.069 142.907Z" fill="black"/>
<path fill-rule="evenodd" clip-rule="evenodd" d="M403.687 163.076C403.728 163.738 403.769 164.4 403.809 165.061C403.768 164.398 403.727 163.737 403.687 163.076Z" fill="black"/>
<path fill-rule="evenodd" clip-rule="evenodd" d="M55.4937 103.318C55.4326 103.851 55.3715 104.385 55.3108 104.916C55.3719 104.381 55.4326 103.85 55.4937 103.318Z" fill="black"/>
<path fill-rule="evenodd" clip-rule="evenodd" d="M12.7304 258.023C12.6924 258.543 12.6549 259.062 12.6174 259.578C12.6564 259.058 12.6934 258.54 12.7304 258.023Z" fill="black"/>
<path fill-rule="evenodd" clip-rule="evenodd" d="M419.132 166.58C419.09 166.043 419.049 165.507 419.007 164.972C419.049 165.51 419.09 166.045 419.132 166.58Z" fill="black"/>
<path fill-rule="evenodd" clip-rule="evenodd" d="M365.401 278.013C366.059 278.018 366.716 278.023 367.373 278.027C366.716 278.023 366.058 278.018 365.401 278.013Z" fill="black"/>
<path fill-rule="evenodd" clip-rule="evenodd" d="M169.972 179.681C170.095 180.072 170.217 180.463 170.34 180.855C169.52 181.053 169.397 180.662 169.972 179.681Z" fill="black"/>
<path fill-rule="evenodd" clip-rule="evenodd" d="M219.265 142.023C219.932 142.02 220.6 142.018 221.268 142.015C220.601 142.332 219.934 142.549 219.265 142.023Z" fill="black"/>
<path fill-rule="evenodd" clip-rule="evenodd" d="M56.3447 185.142C56.3674 185.734 56.3901 186.327 56.4118 186.917C56.3886 186.324 56.3664 185.733 56.3447 185.142Z" fill="black"/>
<path fill-rule="evenodd" clip-rule="evenodd" d="M63.4089 280.653C64.0535 280.653 64.6976 280.652 65.3421 280.652C64.6971 280.652 64.0535 280.653 63.4089 280.653Z" fill="black"/>
<path fill-rule="evenodd" clip-rule="evenodd" d="M381.138 191.386C381.161 191.931 381.186 192.476 381.21 193.019C381.187 192.472 381.162 191.929 381.138 191.386Z" fill="black"/>
<path fill-rule="evenodd" clip-rule="evenodd" d="M49.7256 281.318C50.3593 280.897 50.9945 280.934 51.6307 281.311C50.9955 281.314 50.3603 281.316 49.7256 281.318Z" fill="black"/>
<path fill-rule="evenodd" clip-rule="evenodd" d="M66.4133 95.7C66.4474 96.2566 66.4819 96.8138 66.5174 97.367C66.4834 96.8093 66.4483 96.2547 66.4133 95.7Z" fill="black"/>
<path fill-rule="evenodd" clip-rule="evenodd" d="M46.4282 281.375C47.0871 281.378 47.746 281.381 48.4043 281.384C47.7435 281.834 47.0851 281.855 46.4282 281.375Z" fill="black"/>
<path fill-rule="evenodd" clip-rule="evenodd" d="M411.265 86.9618C411.271 86.3962 411.275 85.8312 411.28 85.2671C411.275 85.8332 411.27 86.3972 411.265 86.9618Z" fill="black"/>
<path fill-rule="evenodd" clip-rule="evenodd" d="M108.783 77.0722C109.414 77.1546 110.044 77.2371 110.674 77.319C110.043 77.2366 109.413 77.1546 108.783 77.0722Z" fill="black"/>
<path fill-rule="evenodd" clip-rule="evenodd" d="M53.1665 125.878C53.1749 126.406 53.1833 126.934 53.1931 127.46C53.1848 126.931 53.1759 126.404 53.1665 125.878Z" fill="black"/>
<path fill-rule="evenodd" clip-rule="evenodd" d="M415.508 125.802C415.474 125.264 415.439 124.726 415.405 124.191C415.439 124.73 415.474 125.266 415.508 125.802Z" fill="black"/>
<path fill-rule="evenodd" clip-rule="evenodd" d="M268.51 280.745C269.288 280.815 270.065 280.886 270.843 280.956C270.065 280.885 269.288 280.815 268.51 280.745Z" fill="black"/>
<path fill-rule="evenodd" clip-rule="evenodd" d="M265.911 260.599C265.491 260.606 265.071 260.612 264.654 260.621C265.076 260.616 265.494 260.607 265.911 260.599Z" fill="black"/>
<path fill-rule="evenodd" clip-rule="evenodd" d="M265.947 280.437C266.599 280.501 267.252 280.566 267.904 280.63C267.251 280.565 266.599 280.501 265.947 280.437Z" fill="black"/>
<path fill-rule="evenodd" clip-rule="evenodd" d="M148.564 236.482C149.412 241.281 141.96 245.974 141.369 239.152C141.153 236.658 142.82 234.904 144.686 233.379C147.336 231.215 148.816 233.287 148.564 236.482Z" fill="black"/>
<path fill-rule="evenodd" clip-rule="evenodd" d="M66.4157 177.936C68.1713 178.655 81.5849 183.029 74.6175 185.229C72.773 185.811 69.9852 185.898 68.3863 184.872C66.463 183.637 64.5229 179.994 66.4157 177.936Z" fill="black"/>
<path fill-rule="evenodd" clip-rule="evenodd" d="M69.717 112.951C74.2698 112.422 78.4647 119.905 72.8515 119.662C68.7656 119.485 63.2708 112.951 69.717 112.951Z" fill="black"/>
<path fill-rule="evenodd" clip-rule="evenodd" d="M86.0037 131.299C89.8055 134.618 82.7587 142.047 79.961 139.171C78.5323 137.703 79.85 134.539 81.0292 133.31C82.2394 132.049 84.3926 131.813 86.0037 131.299Z" fill="black"/>
<path fill-rule="evenodd" clip-rule="evenodd" d="M97.3218 217.348C95.0774 217.704 85.2072 220.932 87.2656 215.07C88.0508 212.834 90.2404 213.497 92.2422 213.6C95.4684 213.765 97.3218 213.61 97.3218 217.348Z" fill="black"/>
<path fill-rule="evenodd" clip-rule="evenodd" d="M90.8205 232.447C94.1805 234.246 89.269 244.312 86.4841 242.17C82.6202 239.198 87.9049 233.351 90.8205 232.447Z" fill="black"/>
<path fill-rule="evenodd" clip-rule="evenodd" d="M105.474 224.355C107.108 223.688 114.81 231.101 111.878 233.163C110.375 234.22 107.528 232.408 106.622 231.315C104.924 229.266 104.77 226.739 105.474 224.355Z" fill="black"/>
<path fill-rule="evenodd" clip-rule="evenodd" d="M61.0387 163.762C62.7085 164.036 65.5916 164.123 65.6996 166.471C65.7942 168.535 63.2086 169.204 61.3883 169.366C59.4995 169.533 56.9992 169 56.9632 166.624C56.9252 164.06 60.9795 164.215 61.0387 163.762Z" fill="black"/>
<path fill-rule="evenodd" clip-rule="evenodd" d="M102.217 265.94C103.995 267.02 112.29 270.91 108.735 273.72C107.404 274.772 103.371 272.6 102.463 271.496C101.379 270.178 100.32 267.091 102.217 265.94Z" fill="black"/>
<path fill-rule="evenodd" clip-rule="evenodd" d="M125.276 237.715C125.019 233.422 132.258 231.713 130.757 237.807C130.334 239.526 129.925 242.134 127.802 242.233C125.293 242.351 125.202 239.38 125.276 237.715Z" fill="black"/>
<path fill-rule="evenodd" clip-rule="evenodd" d="M102.915 163.055C102.966 166.312 96.729 169.185 96.6806 164.022C96.6377 159.409 103.148 158.059 102.915 163.055Z" fill="black"/>
<path fill-rule="evenodd" clip-rule="evenodd" d="M98.7969 146.092C100.334 146.588 102.376 146.843 102.511 148.796C102.654 150.864 100.735 151.785 99.008 151.669C97.5916 151.573 95.4957 150.524 95.2382 148.986C94.861 146.729 97.0624 146.582 98.7969 146.092Z" fill="black"/>
<path fill-rule="evenodd" clip-rule="evenodd" d="M70.222 205.722C70.1959 203.034 75.5783 199.805 76.5695 202.923C76.8866 203.921 74.3498 208.395 73.506 208.73C71.2734 209.617 70.9618 207.55 70.222 205.722Z" fill="black"/>
<path fill-rule="evenodd" clip-rule="evenodd" d="M114.328 250.453C112.509 252.082 107.054 256.659 107.461 250.516C107.722 246.591 114.808 246.796 114.328 250.453Z" fill="black"/>
<path fill-rule="evenodd" clip-rule="evenodd" d="M203.218 268.01C203.814 265.427 212.349 269.908 209.501 273.171C208.545 274.266 206.045 273.275 205.084 272.626C203.182 271.341 203.141 270.155 203.218 268.01Z" fill="black"/>
<path fill-rule="evenodd" clip-rule="evenodd" d="M155.659 212.721C155.992 211.569 156.362 209.533 157.46 208.798C159.446 207.469 161.176 209.474 161.176 211.588C161.177 215.531 156.691 216.775 155.659 212.721Z" fill="black"/>
<path fill-rule="evenodd" clip-rule="evenodd" d="M134.504 258.822C136.72 259.33 141.655 264.721 138.793 266.92C136.039 269.037 132.375 260.432 134.504 258.822Z" fill="black"/>
<path fill-rule="evenodd" clip-rule="evenodd" d="M136.614 218.016C139.463 218.244 143.38 222.861 138.951 223.595C135.486 224.17 131.457 219.147 136.614 218.016Z" fill="black"/>
<path fill-rule="evenodd" clip-rule="evenodd" d="M162.411 239.264C163.126 236.856 170.193 239.437 169.796 242.089C169.585 243.499 166.695 243.83 165.176 243.457C162.94 242.908 162.36 241.44 162.411 239.264Z" fill="black"/>
<path fill-rule="evenodd" clip-rule="evenodd" d="M79.1073 104.736C79.1586 101.622 85.1382 100.353 85.5761 103.491C85.9721 106.326 79.0323 109.343 79.1073 104.736Z" fill="black"/>
<path fill-rule="evenodd" clip-rule="evenodd" d="M160.436 271.351C160.867 269.785 161.052 267.9 163.007 267.694C165.245 267.458 165.179 269.175 164.916 270.954C164.2 275.796 161.466 276.038 160.436 271.351Z" fill="black"/>
<path fill-rule="evenodd" clip-rule="evenodd" d="M66.0065 141.785C62.8892 142.489 57.1798 136.481 60.6694 135.192C63.1284 134.282 66.0065 139.972 66.0065 141.785Z" fill="black"/>
<path fill-rule="evenodd" clip-rule="evenodd" d="M105.766 188.451C104.18 189.199 103.814 189.653 102.596 188.426C101.534 187.357 101.581 184.381 102.492 183.269C105.981 179.013 105.899 186.729 105.766 188.451Z" fill="black"/>
<path fill-rule="evenodd" clip-rule="evenodd" d="M118.71 179.82C120.364 180.03 125.281 184.697 122.721 186.551C119.584 188.823 117.809 181.706 118.71 179.82Z" fill="black"/>
<path fill-rule="evenodd" clip-rule="evenodd" d="M154.508 181.049C153.305 185.683 150.303 182.565 150.473 179.058C150.746 173.441 153.857 178.333 154.508 181.049Z" fill="black"/>
<path fill-rule="evenodd" clip-rule="evenodd" d="M172.761 255.48C174.795 256.322 177.557 264.105 174.651 264.523C171.387 264.991 172.474 257.1 172.761 255.48Z" fill="black"/>
<path fill-rule="evenodd" clip-rule="evenodd" d="M147.35 251.107C149.679 250.321 150.532 255.235 149.179 256.148C146.201 258.157 146.829 252.266 147.35 251.107Z" fill="black"/>
<path fill-rule="evenodd" clip-rule="evenodd" d="M125.276 237.715C125.247 238.368 125.218 239.02 125.187 239.669C125.216 239.015 125.246 238.365 125.276 237.715Z" fill="black"/>
<path fill-rule="evenodd" clip-rule="evenodd" d="M203.218 268.01C203.193 268.679 203.169 269.348 203.144 270.014C203.167 269.344 203.192 268.677 203.218 268.01Z" fill="black"/>
<path fill-rule="evenodd" clip-rule="evenodd" d="M162.411 239.264C162.398 239.832 162.384 240.4 162.37 240.964C162.382 240.395 162.397 239.83 162.411 239.264Z" fill="black"/>
<path fill-rule="evenodd" clip-rule="evenodd" d="M419.94 229.498C424.767 229.343 430.152 227.525 434.895 228.103C436.201 228.263 439.207 228.592 437.115 230.53C436.114 231.456 431.324 230.977 429.874 231.285C421.012 233.162 410.951 234.374 401.864 234.217C397.609 234.144 393.324 233.803 389.072 233.578C384.823 233.353 384.405 231.625 389.186 231.076C394.152 230.505 399.247 230.717 404.238 230.711C409.484 230.704 414.704 229.848 419.94 229.498Z" fill="black"/>
<path fill-rule="evenodd" clip-rule="evenodd" d="M430.537 217.86C430.073 219.184 429.665 222.222 427.884 222.421C425.391 222.7 424.978 218.416 425.07 216.849C425.181 214.958 425.861 211.817 428.21 212.472C430.194 213.025 430.393 216.347 430.537 217.86Z" fill="black"/>
<path fill-rule="evenodd" clip-rule="evenodd" d="M415.442 216.891C415.806 215.474 415.985 212.278 417.989 212.169C420.228 212.049 420.867 215.378 420.852 216.974C420.838 218.488 420.278 221.349 418.495 221.699C416.078 222.173 415.862 218.511 415.442 216.891Z" fill="black"/>
<path fill-rule="evenodd" clip-rule="evenodd" d="M390.302 219.434C389.577 221.137 389.097 223.484 386.852 222.322C385.116 221.424 384.874 217.801 385.201 216.143C385.541 214.424 386.259 212.453 388.232 213.226C390.508 214.118 390.278 217.558 390.302 219.434Z" fill="black"/>
<path fill-rule="evenodd" clip-rule="evenodd" d="M409.34 217.86C407.2 224.351 403.297 219.96 404.779 215.114C406.329 210.048 409.143 214.968 409.34 217.86Z" fill="black"/>
<path fill-rule="evenodd" clip-rule="evenodd" d="M398.914 218.182C398.32 219.325 397.687 221.79 396.086 221.53C394.122 221.212 394.059 217.43 394.274 216.022C394.462 214.789 395.015 212.734 396.659 212.761C399.034 212.8 398.875 216.702 398.914 218.182Z" fill="black"/>
<path fill-rule="evenodd" clip-rule="evenodd" d="M441.598 219.428C440.005 223.004 437.814 219.923 438.515 217.383C439.555 213.616 441.508 216.954 441.598 219.428Z" fill="black"/>
<path fill-rule="evenodd" clip-rule="evenodd" d="M402.587 230.715C400.847 230.708 399.107 230.702 397.368 230.696C399.109 230.367 400.849 230.24 402.587 230.715Z" fill="black"/>
<path fill-rule="evenodd" clip-rule="evenodd" d="M437.158 228.088C435.649 228.098 434.14 228.108 432.632 228.118C434.138 227.665 435.647 227.656 437.158 228.088Z" fill="black"/>
<path fill-rule="evenodd" clip-rule="evenodd" d="M419.94 229.498C418.732 229.579 417.525 229.66 416.318 229.741C417.525 229.66 418.733 229.579 419.94 229.498Z" fill="black"/>
<path fill-rule="evenodd" clip-rule="evenodd" d="M390.302 219.434C390.291 218.566 390.279 217.698 390.269 216.833C390.715 217.696 390.684 218.562 390.302 219.434Z" fill="black"/>
<path fill-rule="evenodd" clip-rule="evenodd" d="M399.769 234.199C400.469 234.205 401.169 234.211 401.864 234.218C401.161 234.211 400.465 234.205 399.769 234.199Z" fill="black"/>
<path fill-rule="evenodd" clip-rule="evenodd" d="M388.009 233.578C388.718 233.578 389.427 233.578 390.132 233.578C389.419 233.578 388.714 233.578 388.009 233.578Z" fill="black"/>
<path fill-rule="evenodd" clip-rule="evenodd" d="M393.824 230.79C392.838 230.871 391.851 230.952 390.865 231.033C391.852 230.952 392.838 230.871 393.824 230.79Z" fill="black"/>
<path fill-rule="evenodd" clip-rule="evenodd" d="M407.159 230.704C406.185 230.706 405.212 230.708 404.238 230.71C405.211 230.3 406.185 230.288 407.159 230.704Z" fill="black"/>
<path fill-rule="evenodd" clip-rule="evenodd" d="M398.914 218.182C398.89 217.278 398.866 216.373 398.843 215.47C398.867 216.375 398.891 217.279 398.914 218.182Z" fill="black"/>
<path fill-rule="evenodd" clip-rule="evenodd" d="M385.202 216.143C385.196 217.024 385.191 217.906 385.184 218.785C385.19 217.902 385.195 217.022 385.202 216.143Z" fill="black"/>
<path fill-rule="evenodd" clip-rule="evenodd" d="M425.474 229.17C424.613 229.248 423.752 229.325 422.892 229.403C423.753 229.325 424.614 229.248 425.474 229.17Z" fill="black"/>
<path fill-rule="evenodd" clip-rule="evenodd" d="M441.598 219.428C441.57 218.657 441.543 217.887 441.515 217.118C441.543 217.889 441.57 218.658 441.598 219.428Z" fill="black"/>
<path fill-rule="evenodd" clip-rule="evenodd" d="M404.971 234.224C405.571 234.213 406.17 234.202 406.763 234.191C406.162 234.203 405.567 234.214 404.971 234.224Z" fill="black"/>
<path fill-rule="evenodd" clip-rule="evenodd" d="M430.537 217.86C430.484 217.307 430.431 216.752 430.379 216.201C430.432 216.755 430.485 217.308 430.537 217.86Z" fill="black"/>
<path fill-rule="evenodd" clip-rule="evenodd" d="M409.34 217.86C409.301 217.292 409.262 216.723 409.224 216.156C409.263 216.725 409.301 217.293 409.34 217.86Z" fill="black"/>
<path fill-rule="evenodd" clip-rule="evenodd" d="M100.305 50.7993C97.9486 50.1805 97.5067 46.8662 97.8854 44.8306C98.315 43.8495 98.7445 42.869 99.1741 41.8879C99.0059 41.5252 98.8382 41.1625 98.6706 40.7998C98.8861 38.7794 98.3352 37.9015 100.656 38.7197C104.966 40.2406 105.655 50.6434 100.305 50.7993Z" fill="black"/>
<path fill-rule="evenodd" clip-rule="evenodd" d="M135.193 44.3914C137.135 44.2384 140.661 46.501 138.729 48.6902C137.531 50.0463 133.585 49.4047 131.976 49.688C129.841 50.0636 127.614 50.5773 128.769 47.3775C129.676 44.8646 132.915 44.3257 135.193 44.3914Z" fill="black"/>
<path fill-rule="evenodd" clip-rule="evenodd" d="M133.15 59.4418C131.178 57.8592 132.058 50.6508 135.059 51.9477C138.147 53.2826 134.795 58.4016 133.15 59.4418Z" fill="black"/>
<path fill-rule="evenodd" clip-rule="evenodd" d="M97.8855 44.8306C97.8855 45.5891 97.885 46.3481 97.8835 47.1031C97.4722 46.3431 97.485 45.5866 97.8855 44.8306Z" fill="black"/>
<path fill-rule="evenodd" clip-rule="evenodd" d="M100.305 50.7993C100.707 50.788 101.11 50.7761 101.507 50.7658C101.103 50.7786 100.704 50.789 100.305 50.7993Z" fill="black"/>
<path fill-rule="evenodd" clip-rule="evenodd" d="M343.821 258.394C343.637 261.673 340.118 259.249 340.367 257.055C340.821 253.075 343.07 257.008 343.821 258.394Z" fill="black"/>
<defs>
<linearGradient id="paint0_linear_139_14" x1="254.997" y1="138.931" x2="254.997" y2="249.262" gradientUnits="userSpaceOnUse">
<stop stop-color="#FFC700"/>
<stop offset="1" stop-color="#B48C00"/>
</linearGradient>
</defs>
</svg>
