<svg width="66" height="76" viewBox="0 0 66 76" fill="none" xmlns="http://www.w3.org/2000/svg">
<path fill-rule="evenodd" clip-rule="evenodd" d="M17.3381 16.9365C17.2602 18.1978 17.1823 19.4589 17.1045 20.7202C17.6054 20.5772 20.7914 19.6481 20.5947 20.5901C20.4534 21.2659 19.5577 21.9968 19.1013 22.4672C18.6813 22.9004 18.2487 23.3222 17.8052 23.7317C18.6204 23.4224 19.4424 23.1295 20.2703 22.8555C20.8967 22.6481 21.5278 22.4458 22.1697 22.2904C22.408 22.2326 23.0513 21.9971 23.2765 22.1577C23.8679 22.5797 20.6586 25.6873 20.2189 26.1254C20.8406 25.8388 21.4772 25.5785 22.1245 25.3552C22.5919 25.1939 24.036 24.5776 24.4496 25.1039C24.8923 25.667 23.7956 26.9599 23.4913 27.3699C23.0555 27.9573 22.5832 28.5208 22.0876 29.0597C24.1474 30.8933 26.5678 32.5254 29.1437 33.5397C31.0324 34.2836 32.8877 34.4729 34.8807 34.0647C36.9282 33.6454 38.8918 32.8411 40.7583 31.9216C41.8546 31.3815 42.9364 30.7971 43.9669 30.1407C43.5421 29.6284 43.1296 29.1055 42.7288 28.5746C42.1568 27.8167 41.4538 26.9885 41.1277 26.0861C40.8085 25.203 42.006 25.3754 42.5804 25.4234C43.4122 25.4929 44.2418 25.6402 45.057 25.8165C44.4806 25.4192 43.9146 25.0059 43.3601 24.5793C42.6373 24.0232 41.6732 23.3945 41.2001 22.5945C40.7841 21.8912 41.6971 22.0688 42.1193 22.1609C43.1259 22.3807 44.1054 22.7552 45.0655 23.1205C45.7685 23.3881 46.4674 23.6683 47.1593 23.9634C46.7298 23.5932 46.3147 23.2054 45.9157 22.8033C45.3793 22.2629 44.6562 21.6028 44.4157 20.8587C43.9261 19.3429 47.2199 20.4862 47.7822 20.7202C47.6783 19.1501 47.5745 17.58 47.4707 16.0099C43.1094 17.1601 38.7481 18.3105 34.3866 19.4608C33.9153 19.5852 33.3255 19.8559 32.8339 19.8703C32.3887 19.8836 31.851 19.6848 31.4169 19.6027L23.5245 18.1081C21.4624 17.7175 19.4002 17.327 17.3381 16.9365Z" fill="#FF5678"/>
<path fill-rule="evenodd" clip-rule="evenodd" d="M64.2131 70.9397C63.7422 71.2067 63.1907 71.413 62.6676 71.5512C62.3604 71.6326 61.8528 71.8836 61.5829 71.6536C61.4533 71.543 61.4236 71.2922 61.3472 71.1469C61.2262 70.9166 61.0542 70.7179 60.8931 70.5145C60.5025 70.0214 60.0962 69.5458 59.671 69.082C59.4695 68.8623 59.1015 68.3491 58.7465 68.3829C58.304 68.425 58.3146 69.032 58.4255 69.3422C58.7786 70.3296 59.8474 71.1904 60.5456 71.9343C60.368 72.2051 59.3932 72.1728 59.1225 72.1095C58.7091 72.0128 58.6673 71.7211 58.4787 71.3874C58.0375 70.6077 57.1424 70.1714 56.4067 69.713C56.1385 69.5456 55.5684 69.0823 55.2188 69.199C54.8875 69.3095 54.9019 69.7289 55.0074 70.0028C55.1667 70.4168 55.6201 70.7039 55.9555 70.9655C56.4026 71.3143 56.8115 71.6938 57.184 72.1208C56.647 72.1642 56.1119 72.2392 55.5762 72.283C54.9283 72.3359 54.3884 71.9835 53.7919 71.7838C53.2378 71.5982 52.6856 71.4413 52.1406 71.2275C51.5288 70.9873 50.8879 70.9037 50.2707 70.693C47.8486 69.8662 45.4754 68.8263 43.1414 67.778C42.0292 67.2785 40.94 66.7788 39.781 66.3879C38.9365 66.1028 37.6094 65.5351 37.4075 64.538C37.3009 64.0111 37.6892 63.4446 37.7465 62.9183C37.8136 62.299 37.7607 61.6177 37.5705 61.0236C37.4026 60.5002 37.1247 60.0155 36.9056 59.513C36.6504 58.9273 36.8789 58.9368 37.3747 58.8702C37.9682 58.7905 38.6608 58.4593 39.2186 58.2437C39.8612 57.9951 40.4982 57.6478 41.0867 57.2908C41.6191 56.9679 42.0822 56.5517 42.506 56.0996C42.9371 55.6398 43.2162 55.0949 43.633 54.6237C45.1712 56.4987 46.6332 58.4023 48.2677 60.1963C49.0391 61.043 49.878 61.7431 50.8287 62.3869C51.2256 62.656 51.6195 62.963 52.0519 63.1756C52.5928 63.4416 53.1974 63.6067 53.7532 63.8495C55.8845 64.7803 57.9187 65.7978 59.907 66.9988C60.8689 67.5797 61.6762 68.2458 62.5232 68.9746C62.7869 69.2015 64.9465 70.5238 64.2131 70.9397ZM39.2111 55.5791C38.8667 55.7338 38.5384 55.9346 38.1709 56.0339C38.2751 55.4056 38.8666 54.458 39.6249 54.5622C39.9147 54.6021 40.1332 54.825 40.0059 55.1325C39.8902 55.4119 39.4565 55.4691 39.2111 55.5791ZM15.2369 38.5392C14.8464 38.7528 14.4826 38.8773 14.2536 38.4187C14.4233 38.3849 15.1936 38.2832 15.2369 38.5392ZM14.5868 37.2426C14.285 37.1519 14.5263 37.0566 14.6302 36.9471C14.711 36.862 14.9789 36.5632 15.0726 36.5138C15.4865 36.2965 15.8064 37.1051 16.0044 37.3675C15.5358 37.3263 15.0429 37.3798 14.5868 37.2426ZM17.8131 40.0424C17.2412 40.1384 17.3046 39.4292 17.3217 39.0699C17.4424 39.2158 18.2591 39.9675 17.8131 40.0424ZM19.7085 38.8174C19.0112 38.934 18.5505 37.7399 18.6755 37.2177C18.7854 36.7575 19.3258 36.5006 19.7561 36.4328C20.173 36.3669 20.7536 36.4567 20.8774 36.9334C20.9869 37.3546 20.1732 38.7396 19.7085 38.8174ZM36.2142 56.8427C35.713 56.9953 35.2221 57.0145 34.7184 57.1644C34.147 57.3343 33.6181 57.3193 33.0455 57.435C32.8126 57.4819 32.1842 57.8183 31.957 57.7432C31.7319 57.6688 31.4061 56.9765 31.2768 56.7964C32.2898 56.3791 33.1541 55.8402 33.8218 54.9607C34.3527 54.2613 34.9222 53.2136 34.5881 52.311C34.2114 51.2934 32.9128 51.0724 32.0469 51.4974C31.6373 51.6985 31.2313 51.9484 30.8936 52.2548C30.5074 52.605 30.3556 52.9872 30.1054 53.4192C29.8525 53.8561 29.6749 53.6131 29.4221 53.2421C29.2062 52.925 29.2343 52.6048 28.9644 52.2919C28.8267 52.1323 28.6134 51.9783 28.5415 51.7721C28.4959 51.6414 28.592 51.4096 28.5055 51.3067C28.384 51.1621 28.2362 51.332 28.1343 51.2029C28.0604 51.1091 28.0846 50.8953 28.0082 50.778C27.9419 50.7113 27.8683 50.6544 27.7867 50.607C27.6878 50.5587 27.6699 50.4981 27.7325 50.4253C27.654 50.2811 27.7297 50.2324 27.5614 50.0569C27.299 49.7834 27.0597 49.5214 26.8729 49.1985C26.7876 49.0507 26.796 48.8316 26.6899 48.7038C26.5444 48.5281 26.3019 48.5545 26.1768 48.3372C26.0653 48.1435 26.1399 47.8047 25.9561 47.629C25.8592 47.6015 25.7622 47.5746 25.6652 47.548C25.5922 47.4778 25.5497 47.3925 25.5375 47.2922C25.4355 47.1363 25.4152 46.9534 25.2863 46.7887C25.0395 46.474 24.7077 46.1831 24.4897 45.8512C24.2607 45.5024 24.3821 45.4436 24.7801 45.3189C25.1389 45.2061 25.4667 45.1015 25.7994 44.9097C27.3374 44.0224 28.7954 41.6693 26.3542 40.9504C25.4484 40.6835 24.7042 39.9661 23.6996 40.2481C23.2642 40.3704 22.8511 40.6307 22.5263 40.9396C22.3018 41.1531 22.0939 41.7242 21.8184 41.8336C21.3229 42.0303 21.5323 41.539 21.3917 41.3132C21.3245 41.2055 21.0543 41.0813 20.9541 40.9832C20.8366 40.8683 20.7229 40.7231 20.6412 40.5809C20.4897 40.317 20.397 40.1699 20.1785 39.955C20.0962 39.8738 19.6849 39.4547 20.0558 39.5094C19.9056 39.0557 20.1248 38.9875 20.4278 38.6559C20.7836 38.2667 21.1509 37.7257 21.153 37.1803C21.1571 36.1329 19.9051 35.6638 19.1187 36.2853C18.9587 36.4119 18.0123 37.633 18.206 36.8542C18.3104 36.4342 19.2771 35.3378 19.7252 35.6216C19.223 34.8961 18.0693 36.6576 17.8 37.0181C17.5707 36.5996 17.5545 36.2723 17.1751 35.9484C16.8662 36.4393 17.0293 35.9028 16.9612 35.7936C16.8141 35.5581 16.8949 35.8275 16.8151 35.7438C16.7158 35.6396 16.5594 35.5575 16.4537 35.4194C16.2726 35.6629 16.345 35.4009 16.2895 35.3101C16.1599 35.0973 16.21 34.9742 15.9877 34.7892C15.8259 34.6547 15.5072 34.4459 15.2895 34.4268C15.0385 34.4048 14.9689 34.5001 14.7131 34.4296C14.3877 34.3399 13.9782 34.2021 14.1357 34.7415C14.2501 35.1336 14.7151 35.3564 14.817 35.757C14.9195 36.1601 14.5173 36.5664 14.3222 36.897C14.0716 37.321 13.8666 37.2863 13.4127 37.3819C13.1225 37.4431 12.7353 37.5739 12.9842 37.9227C13.1618 38.172 13.5783 38.1195 13.8128 38.2671C14.1416 38.4741 14.1371 38.9844 14.557 39.0732C15.0194 39.171 15.2842 38.6608 15.6741 38.5375C15.9513 38.4499 16.81 38.4596 17.0282 38.6659C17.3255 38.947 17.0686 39.4841 17.1434 39.8333C17.2548 40.3511 17.6082 40.3828 18.0553 40.3993C18.6056 40.4196 18.799 40.9434 19.095 41.3588C19.7882 42.3319 20.3907 43.3692 21.1008 44.3293C21.4152 44.7545 21.8751 45.1326 22.1324 45.594C22.4502 46.1638 22.009 46.4924 21.6282 46.9014C21.1306 47.4358 20.7592 48.0439 20.3276 48.628C19.9441 49.1472 19.4675 49.0179 18.8547 49.0179C18.9913 48.7389 19.1556 48.5649 19.4916 48.5987C19.1402 48.1735 18.8593 48.6598 18.6314 48.9292C18.3017 49.3189 17.8718 49.4129 17.4483 49.6691C17.2985 49.7597 16.4824 50.3473 16.7304 50.5478C16.7585 50.5706 18.1094 49.6898 18.2633 49.609C18.2633 49.9341 18.1915 50.272 18.2376 50.5953C18.2712 50.8324 18.4394 51.0797 18.4035 51.3263C18.3357 51.7917 17.7288 52.1582 17.4684 52.5208C17.2723 52.7938 17.3196 53.009 17.2199 53.3019C17.1289 53.5691 17.1766 53.4883 16.9499 53.5709C16.4882 53.739 15.7109 53.6482 15.2928 53.4092C15.0333 53.2609 14.8343 53.0264 14.6234 52.8198C14.4646 52.6639 14.0652 52.3978 14.021 52.1798C13.9453 51.8045 14.6971 51.1071 14.8459 50.7199C15.2661 49.6272 14.5455 48.7779 13.4241 48.7159C13.7697 48.4517 14.1981 48.6507 14.5624 48.7516C13.9397 47.8963 12.876 48.6001 12.3478 49.1813C11.9868 48.277 11.8128 47.323 11.5923 46.3799C11.4421 45.7378 10.8704 44.5916 11.1254 43.9304C11.2487 43.6107 11.5967 43.4326 11.8374 43.2109C12.1109 42.9591 12.3452 42.658 12.5452 42.3461C13.0163 41.6118 13.2884 40.6847 12.6396 39.961C12.8367 39.9288 13.0339 39.8968 13.231 39.8646C12.9104 39.5661 12.4046 39.7115 11.9886 39.623C11.7246 39.5668 10.9649 39.6032 10.7887 39.4551C10.5767 39.2771 10.7126 38.4579 10.7202 38.2154C10.7376 37.6487 10.7854 37.1039 10.8485 36.5407C10.9083 36.0087 10.8963 35.4339 11.0072 34.9112C11.0973 34.487 11.3851 34.3577 11.7171 34.1078C12.5107 33.5101 13.1575 32.7831 12.8865 31.753C12.9825 31.7379 13.0785 31.7228 13.1745 31.7077C12.864 31.4851 12.4622 31.566 12.1168 31.4483C12.4339 30.5635 13.1355 29.008 14.2745 28.9242C14.3137 29.3198 14.2869 29.7902 14.5561 30.1177C14.8627 30.4904 15.4007 30.5281 15.816 30.3309C16.1929 30.1517 16.5465 29.7722 16.7202 29.3972C16.8377 29.1434 16.8166 28.7142 17.0228 28.5129C17.2993 28.2431 19.2063 28.406 19.148 28.8614C19.1135 29.1292 18.6036 29.5792 18.4611 29.8166C18.2003 30.2509 17.9915 30.7207 17.8957 31.2195C17.7504 31.9771 17.8345 32.9771 18.6107 33.3753C19.4934 33.8284 20.5691 33.2524 21.293 32.7547C21.6905 32.4815 22.0755 32.18 22.4385 31.8632C22.632 31.6948 22.8263 31.5211 22.9968 31.3295C23.1227 31.1879 23.2232 30.9599 23.3782 30.8539C23.7442 30.6036 24.103 31.0282 24.4127 31.2427C24.9172 31.5922 25.4192 31.9239 25.9608 32.2147C27.0597 32.8047 28.0645 33.5863 29.0361 34.3623C30.0134 35.1429 31.0211 35.946 31.8128 36.9184C31.3333 37.2108 31.4188 37.2868 31.2055 37.8082C31.0541 38.1783 30.8456 38.4933 30.8215 38.9046C30.7799 39.6142 31.2395 40.2189 31.9371 40.376C32.3274 40.4639 32.699 40.3935 33.0604 40.2354C33.3414 40.1125 33.6213 39.8101 33.9149 39.7349C34.4604 39.5955 34.897 40.617 35.2028 40.9769C36.561 42.575 37.9967 44.1099 39.2756 45.7732C39.4172 45.9575 39.838 46.3173 39.8722 46.5612C39.9213 46.9116 39.3654 47.2453 39.1348 47.4462C39.0137 47.5515 37.7296 48.7487 38.1608 48.9391C38.2837 48.9932 38.6434 48.2587 38.7334 48.1958C39.0702 47.9607 38.8155 48.4217 38.7954 48.6548C38.7452 49.2339 39.1466 49.5496 39.7109 49.4762C40.313 49.3979 40.849 48.9267 41.2217 48.4818C41.6886 49.0178 42.4186 49.8281 42.5535 50.5442C42.6398 51.0016 42.2405 52.1213 42.986 52.2146C43.0998 52.2288 43.5116 51.926 43.5884 52.0979C43.6524 52.2414 43.2072 52.4867 43.143 52.5342C42.8687 52.7372 42.7029 52.9546 42.4815 53.2005C42.2215 53.4892 41.8661 53.7322 41.5736 54.0088C41.2654 54.3001 40.6557 55.0913 40.249 54.709C40.0447 54.517 40.0984 54.2658 39.771 54.1531C39.4728 54.0504 39.0951 54.1805 38.8181 54.2944C38.5062 54.4226 37.4789 54.8903 37.3649 55.2754C37.2076 55.8064 38.0568 55.168 38.2077 55.0747C38.0355 55.5078 37.9404 56.1348 37.502 56.3876C37.1377 56.5975 36.6137 56.721 36.2142 56.8427ZM30.391 53.5665C30.6826 52.6378 32.4018 50.9818 33.4885 51.4997C32.2221 51.7628 31.2171 52.6218 30.391 53.5665ZM31.0339 56.2262C30.6102 55.9921 30.633 55.3122 30.4851 54.9144C30.4002 54.6863 30.2303 54.5195 30.2803 54.2663C30.3387 53.9693 30.7209 53.6392 30.9242 53.4251C31.5643 52.7511 32.6907 51.8301 33.721 51.9845C35.0323 52.1813 34.1433 53.9262 33.6968 54.5271C33.3162 55.0393 31.8497 56.6768 31.0339 56.2262ZM27.9748 55.0903C26.5566 54.9965 25.1434 54.8708 23.7445 54.6128C23.2486 54.5213 22.8331 54.5348 23.1169 53.9696C23.2105 53.7832 23.7754 52.6142 23.903 52.6476C23.9786 52.6675 23.9614 53.471 23.9836 53.5631C24.0838 53.9768 24.3649 54.3622 24.839 54.3359C25.6147 54.2931 26.1146 53.2991 26.523 52.7655C26.8502 53.2015 27.087 53.6858 27.4158 54.1146C27.5731 54.3195 28.1203 54.7963 27.9748 55.0903ZM19.6606 49.5728C19.4227 50.114 18.9442 50.6287 18.6114 51.1189C18.4233 50.7242 18.291 49.8179 18.7372 49.526C18.9062 49.4156 19.8111 49.2306 19.6606 49.5728ZM24.5791 51.1842C24.6446 50.9758 24.7171 50.7692 24.798 50.5663C24.9367 50.9992 25.0076 51.012 24.5791 51.1842ZM25.793 51.6275C25.9651 51.9167 26.2521 52.2011 26.207 52.5642C26.1729 52.8394 25.922 53.1214 25.7428 53.3132C25.4462 53.6304 24.7891 54.2393 24.3594 53.8181C24.0004 53.4662 24.1255 52.4987 24.2924 52.1027C24.5308 51.537 25.3827 50.9386 25.793 51.6275ZM24.9508 51.0349C25.0494 50.996 24.8422 50.3649 25.0345 50.302C25.2023 50.6812 25.3604 50.7838 24.9508 51.0349ZM22.241 42.5405C22.1771 42.3076 22.0306 42.3174 22.0833 42.0295C22.118 41.8407 22.2691 41.6391 22.3838 41.4896C22.6123 41.1915 22.9138 40.9457 23.2398 40.7597C23.9281 40.367 24.8731 40.2039 25.4893 40.8186C24.9133 40.9087 23.1473 41.4723 23.1361 42.2533C23.7766 42.131 24.2804 41.4932 24.9229 41.2922C25.4502 41.1273 26.0221 41.1389 26.5467 41.3131C27.9827 41.7898 27.3856 43.02 26.5751 43.819C26.0939 44.2935 25.517 44.6476 24.8863 44.892C24.5945 45.0051 24.4154 45.0176 24.1285 44.9608C24.0747 44.95 24.0119 44.8513 23.9475 44.8302C23.7874 44.7776 23.8338 44.9556 23.7019 44.8757C23.5868 44.806 23.3414 44.3558 23.2632 44.227C23.1386 44.0219 23.0806 43.8224 22.9276 43.6352C22.7745 43.4479 22.7001 43.1969 22.5585 43.0273C22.4905 42.9457 22.3041 42.949 22.2541 42.8695C22.179 42.7498 22.2747 42.6628 22.241 42.5405ZM20.0356 51.7151C20.362 51.153 20.9204 50.6758 21.3524 50.1845C21.3789 50.992 20.7948 51.5449 20.0356 51.7151ZM20.4767 51.9746C21.1507 51.7396 21.5221 51.1772 21.5908 50.4954C21.6781 49.6316 22.2252 49.1783 22.5546 48.4023C22.681 48.105 22.8282 47.1264 23.3178 47.4065C23.4858 47.5025 23.5854 47.8639 23.6729 48.0271C23.8847 48.4219 24.1255 48.8047 24.35 49.1925C24.5329 49.5082 24.807 49.8256 24.7263 50.2057C24.6559 50.537 24.4296 50.8901 24.297 51.2026C23.9839 51.9405 23.5726 52.6203 23.229 53.3421C23.0904 53.6332 22.9263 54.3226 22.503 54.3191C22.1679 54.3163 22.2054 53.9532 21.9848 53.8288C21.7063 53.6717 21.3897 53.9706 21.161 54.0944C21.4244 53.6537 21.8849 53.4041 22.4024 53.4871C21.7827 52.8754 21.3639 53.7008 20.832 53.8846C20.3281 54.0588 19.434 53.2373 19.0097 53.0044C19.172 52.732 19.3187 52.3987 19.5979 52.2195C19.8626 52.0494 20.1876 52.0755 20.4767 51.9746ZM14.9969 57.5651C15.0707 57.2128 15.2792 57.0047 15.4114 56.6848C15.5647 57.0726 15.2058 57.3014 14.9969 57.5651ZM25.7056 59.7266C25.6694 60.9128 25.5716 62.0958 25.5363 63.2823C25.5201 63.8295 25.4223 64.3514 25.3574 64.8923C25.3026 65.3497 25.3305 65.7989 25.0401 66.1896C24.5821 66.8057 23.6917 66.9828 23.0004 67.211C22.4928 67.3786 21.9794 67.5306 21.478 67.7168C21.0269 67.8843 20.6634 68.1382 20.2345 68.3373C19.8508 68.5155 19.4366 68.6211 19.0547 68.811C18.6596 69.0074 18.3475 69.2466 17.9417 69.4214C17.4559 69.6307 17.0557 70.003 16.6237 70.2986C16.2434 70.5588 15.841 70.7597 15.5139 71.0868C15.2071 71.3938 14.8188 71.5284 14.4711 71.8011C14.1036 72.0895 13.7188 72.2769 13.3127 72.503C12.4807 72.9664 11.3583 73.7578 10.3571 73.3076C10.6435 72.9451 11.2296 72.5968 11.2741 72.0973C11.3321 71.4467 10.7608 71.6862 10.43 71.894C9.92885 72.2086 9.65165 72.5884 9.27017 73.0079C8.82424 73.4981 8.26089 73.1682 7.7152 73.0304C8.0883 72.6975 8.45842 72.3615 8.83085 72.028C9.14525 71.7466 9.62638 71.4422 9.81784 71.0529C9.95468 70.7746 9.94794 70.3932 9.61777 70.2487C9.24832 70.0871 8.83052 70.4278 8.55685 70.6307C7.83052 71.1694 7.35215 71.8525 6.87521 72.6021C6.62151 73.0007 6.50464 72.9702 6.03786 72.8904C5.54326 72.806 5.04867 72.716 4.54999 72.6568C5.21055 71.9844 5.9488 71.2558 6.47054 70.4691C6.6396 70.2141 6.86009 69.5422 6.34508 69.4804C6.13287 69.455 5.71033 69.885 5.54668 70.001C4.83127 70.5078 4.14345 71.1471 3.66938 71.887C3.51279 72.1313 3.46369 72.4029 3.16055 72.4232C2.76428 72.4498 2.02801 72.0749 1.64576 71.9591C2.37628 71.0463 3.10173 70.1268 3.9553 69.3218C4.73957 68.5821 5.52186 68.0447 6.4391 67.4775C7.42211 66.8692 8.3378 66.1691 9.24026 65.4506C10.1042 64.7629 11.0067 64.1142 11.8019 63.3463C13.3904 61.8124 14.8052 60.0484 15.9768 58.183C16.2509 57.7465 16.509 57.2987 16.732 56.8343C16.9416 56.3981 17.0381 55.8765 17.321 55.4798C17.4186 55.3427 17.5564 55.2409 17.6434 55.098C17.7255 54.9632 17.6977 54.8005 17.823 54.6812C18.1126 54.4056 18.6401 54.5718 18.9108 54.765C19.3463 55.0756 19.6985 55.4528 20.1771 55.7129C20.6584 55.9744 21.1791 56.1646 21.7121 56.2931C22.9577 56.5933 24.1927 56.8396 25.4617 57.022C25.3312 57.502 25.6519 57.5776 25.7581 58.0095C25.8871 58.5336 25.7218 59.1927 25.7056 59.7266ZM13.711 51.7222C13.4287 51.3063 13.1766 50.8714 12.899 50.4528C12.7299 50.1979 12.5204 49.9241 12.6649 49.6123C12.9082 49.0866 13.7669 48.993 14.2328 49.2221C15.292 49.7432 14.308 51.2329 13.711 51.7222ZM10.9073 42.2101C10.8098 41.3972 11.1234 40.8205 11.8654 40.3942C12.3942 40.0904 12.8201 40.5056 12.7478 41.0594C12.638 41.9031 11.7284 42.8415 11.0341 43.2817C10.9888 42.925 10.9503 42.5672 10.9073 42.2101ZM10.7942 39.8842C11.0131 39.712 11.5992 39.9317 11.8528 39.9467C11.5041 40.2487 11.1553 40.5508 10.8065 40.8527C10.7836 40.6455 10.5923 40.0431 10.7942 39.8842ZM11.971 32.0335C13.7358 31.8061 11.7043 33.6832 11.1928 33.9774C11.276 33.578 11.4805 32.0968 11.971 32.0335ZM16.6691 28.7471C16.4322 29.7092 14.59 30.7587 14.5707 29.1829C14.5636 28.5956 14.8963 28.6431 15.3821 28.5868C15.6592 28.5547 16.8046 28.1972 16.6691 28.7471ZM10.3059 30.237C10.0991 30.775 9.93327 31.3269 9.73055 31.8656C9.64073 32.1041 9.53512 32.268 9.36783 32.457C9.22779 32.6151 9.06116 32.6549 9.06668 32.9047C9.24213 32.8711 9.37941 32.7674 9.5211 32.6676C9.48678 33.1627 9.31022 33.6956 9.2247 34.1891C9.12229 34.7809 9.03699 35.3729 9.00532 35.9731C8.93668 37.2781 8.93613 38.5784 8.96504 39.8842C8.97983 40.5496 8.98645 41.2153 9.02265 41.8799C9.04074 42.2105 9.06116 42.5426 9.10243 42.8711C9.1192 43.0038 9.21631 43.2862 9.15628 43.4106C8.92057 43.8987 7.87642 42.558 7.42299 42.7548C7.48821 42.3833 7.3378 42.4646 7.08653 42.2819C6.96481 42.1933 6.88558 42.0427 6.75867 41.9639C6.72027 41.9229 6.67801 41.8863 6.63188 41.8543C6.57946 41.7834 6.52407 41.7911 6.46591 41.8769C5.95498 41.5743 5.823 40.9292 5.54878 40.4953C5.40775 40.2722 5.27147 40.2374 5.24741 39.9289C5.22655 39.66 5.26738 39.3861 5.25635 39.1162C5.24388 38.8117 5.22589 38.4759 5.13971 38.181C5.03973 37.8387 4.90212 37.8667 4.63407 37.6843C4.71662 37.6484 4.77113 37.5883 4.79751 37.5038C4.71187 37.519 4.45177 37.6241 4.38711 37.5485C4.25998 37.4001 4.55992 37.3803 4.63871 37.321C4.30247 37.173 4.37486 37.0514 4.49625 36.7803C4.53057 36.7035 4.56334 36.5889 4.59258 36.5241C4.65637 36.3828 4.69311 36.4724 4.71419 36.2967C4.73416 36.1293 4.58442 35.8001 4.54028 35.6217C4.46634 35.3224 4.4254 35.0638 4.49183 34.752C4.54568 34.4996 4.69057 34.271 4.70062 34.0114C4.70348 33.9385 4.59148 33.9143 4.58993 33.844C4.58773 33.7411 4.68462 33.6959 4.70978 33.6008C4.77411 33.3576 4.74509 33.1003 4.85511 32.8696C4.9541 32.6622 5.15405 32.3939 5.29552 32.213C5.39363 32.0876 5.6343 31.9463 5.66068 31.7808C5.67811 31.6711 5.50585 31.6837 5.51347 31.6011C5.52395 31.4893 5.61863 31.4531 5.64456 31.3699C5.71618 31.1418 5.73417 30.9226 5.91923 30.7477C6.1524 30.5277 6.25359 30.6198 6.26331 30.2569C6.26794 30.0798 6.12504 30.0526 6.20162 29.8484C6.24322 29.7376 6.36593 29.6721 6.44439 29.5936C6.67745 29.3606 6.8346 29.1537 7.00056 28.8657C7.14733 28.6113 7.38139 28.4633 7.5318 28.2437C7.72756 27.9573 7.4348 27.8153 7.83217 27.7345C7.77567 27.5568 7.71564 27.4131 7.86429 27.2626C7.95808 27.1676 8.19589 27.2257 8.27888 27.1159C8.374 26.9899 8.23341 26.6912 8.37676 26.6094C8.49329 26.543 8.66776 26.7477 8.85094 26.6463C8.99042 26.5691 9.2012 26.1423 9.15628 25.9854C9.51713 26.1866 9.42719 26.0481 9.59989 25.7899C9.63863 25.7321 9.75593 25.7193 9.78926 25.6608C9.85591 25.5441 9.84068 25.4251 9.9368 25.3301C10.0968 25.1722 10.3587 25.2128 10.5348 25.0999C10.6803 25.0067 10.6726 24.9062 10.7887 24.8183C10.8879 24.7431 11.0509 24.7287 11.1474 24.6508C11.3363 24.4982 11.3382 24.3372 11.5745 24.2058C11.8545 24.0503 12.1024 23.918 12.3571 23.7118C12.5231 23.5775 12.6807 23.3392 12.8749 23.2506C13.1435 23.128 13.3527 23.1193 13.6155 22.9443C13.8054 22.8179 13.9849 22.6092 14.1713 22.5026C14.312 22.4223 14.4107 22.4396 14.5879 22.3898C14.9069 22.3001 14.9846 22.0022 15.2448 21.8809C15.4235 21.7976 15.6836 21.8739 15.8798 21.8301C16.4902 21.6943 17.0933 21.4013 17.706 21.239C18.4537 21.041 19.2069 20.8675 19.9604 20.6924C19.2679 21.6226 18.386 22.462 17.4915 23.2008C17.1978 23.4433 15.5889 24.549 16.4561 25.0211C16.8043 25.2106 17.5605 24.5985 17.8416 24.4489C18.4076 24.1476 18.9938 23.9064 19.5866 23.6627C20.5451 23.2686 21.7934 22.5678 22.8586 22.6242C22.2102 23.4127 21.4008 24.0456 20.6591 24.7421C19.9776 25.3823 18.9506 25.9827 19.272 27.0305C18.3147 26.7891 17.4548 26.5037 16.4595 26.5669C16.0136 26.5953 15.5675 26.542 15.1237 26.604C14.6411 26.6716 14.1867 26.8316 13.7228 26.9722C13.3559 27.0832 12.9505 27.0919 12.6129 27.2767C12.4498 27.366 12.2481 27.4936 12.1016 27.6044C11.9061 27.7521 11.8618 27.85 11.7083 28.0447C11.1609 28.7395 10.6312 29.3907 10.3059 30.237ZM7.31176 43.386C7.28185 43.2657 7.2547 43.1561 7.22038 43.0187C7.52507 43.2046 7.52507 43.2046 7.31176 43.386ZM5.00905 39.5564C4.97153 39.6078 4.81373 39.6244 4.76793 39.5799C4.71088 39.5247 4.86085 39.3096 4.8849 39.264C4.94438 39.3091 5.08122 39.4572 5.00905 39.5564ZM4.35676 38.1627C4.39704 38.0158 4.43754 37.869 4.47782 37.7222C4.52737 37.8583 4.75072 38.0088 4.75568 38.1384C4.75877 38.2243 4.4009 38.1816 4.35676 38.1627ZM4.48621 38.364C4.8358 38.5922 4.87243 38.8614 4.88281 39.2551C4.46446 39.1177 4.5245 38.7163 4.48621 38.364ZM10.566 22.8262C10.5308 22.9209 10.381 23.2159 10.2713 23.0096C10.2362 22.9436 10.4931 22.8534 10.566 22.8262ZM10.4657 22.5048C10.5521 22.4275 10.7263 22.5236 10.824 22.4612C10.8926 22.4174 10.8698 22.3731 10.902 22.3471C10.9084 22.3419 11.0016 22.1551 11.0398 22.1126C11.1072 22.0382 11.2542 21.9917 11.3361 21.9243C11.565 21.7362 11.6943 21.4889 11.8384 21.2373C12.0102 20.937 12.065 20.9022 12.3422 20.7646C12.5334 20.6698 12.6815 20.5537 12.8369 20.3926C13.0162 20.207 13.003 20.0741 13.1501 19.8712C13.2228 19.771 13.3275 19.7587 13.4121 19.678C13.5136 19.5814 13.5652 19.4462 13.6591 19.3487C13.6996 19.3065 13.8298 19.3066 13.8543 19.2705C13.8856 19.2248 13.91 19.0421 13.9394 19.0084C13.9953 19.0834 14.0515 19.1584 14.1074 19.2335C14.3283 18.8483 14.4896 18.5302 14.859 18.2739C15.247 18.0047 15.5819 17.611 15.983 17.37C16.0731 17.3159 16.2567 17.293 16.3256 17.2133C16.442 17.0782 16.3412 16.9581 16.4261 16.8434C16.5225 16.7133 16.7092 16.8187 16.8317 16.7626C16.9867 16.6917 17.0311 16.4844 17.2306 16.5073C16.5743 17.277 16.5825 18.4744 16.5477 19.4357C16.5326 19.8499 16.7958 20.0587 16.4073 20.3625C16.0768 20.6212 15.6107 20.5444 15.22 20.7146C14.7293 20.9283 14.2044 21.042 13.7039 21.2282C13.186 21.4208 12.7696 21.7581 12.2713 21.9812C11.8318 22.1778 11.5317 22.4574 11.1297 22.7002C10.9803 22.7904 10.7489 22.9215 10.5707 22.8136C10.4591 22.746 10.32 22.6349 10.4657 22.5048ZM17.8786 16.0516C17.9071 15.9423 18.4673 15.6549 18.6051 15.5612C18.8119 15.4202 19.1182 15.0761 19.349 15.2128C19.429 14.8952 19.7412 14.5418 20.017 14.4746C20.323 14.3997 20.8478 14.1398 21.1488 13.9127C21.2368 13.8464 21.2657 13.7495 21.3692 13.6873C21.5494 13.579 21.7281 13.638 21.9017 13.4905C21.9281 13.468 22.1683 13.075 22.1778 13.0787C22.19 13.1209 22.2013 13.1636 22.211 13.2065C22.3932 13.1063 22.5555 13.0265 22.6691 12.8988C22.6948 12.8698 22.5278 12.7944 22.5805 12.7371C22.6451 12.6668 22.7891 12.7453 22.8543 12.6786C22.6515 13.6767 22.8025 14.9612 23.824 15.467C22.6092 15.5972 21.4227 15.2351 20.193 15.4575C19.6044 15.564 19.0059 15.7387 18.4705 16.0071C18.1424 16.1716 17.7229 16.7606 17.3963 16.4746C17.5259 16.3033 17.7236 16.1969 17.8786 16.0516ZM23.7727 13.1806C24.227 12.6299 24.916 12.412 25.6099 12.6092C26.4223 12.8402 26.0797 13.4028 25.957 14.0275C25.7226 13.6868 25.2148 13.349 24.7823 13.3387C24.1692 13.3243 24.4009 13.8305 24.769 14.0119C25.1037 14.1767 25.6778 14.2227 25.9174 14.5225C26.1505 14.814 26.0611 15.291 26.0988 15.6349C25.9175 15.6082 25.7362 15.5815 25.5549 15.5548C25.707 14.7521 25.0373 14.7132 24.4129 14.4869C23.7819 14.2583 23.2558 13.8074 23.7727 13.1806ZM25.8074 11.204V11.949C25.555 11.8061 25.3023 11.6635 25.0496 11.5208C25.3023 11.4152 25.555 11.3096 25.8074 11.204ZM27.838 17.1564C28.6814 17.3829 29.5191 17.6227 30.33 17.9353C30.6244 18.0488 30.947 18.089 31.2355 18.2171C31.5103 18.3391 31.5516 18.3264 31.4538 18.5651C31.18 19.2338 30.5315 19.1183 29.9633 19.016C29.0739 18.8559 28.2029 18.6339 27.3246 18.425C26.466 18.221 25.5894 18.0871 24.7439 17.8314C23.8762 17.5691 23.0307 17.3206 22.1381 17.1473C21.8777 17.0968 19.8172 16.9095 19.8329 16.696C21.1305 16.5289 22.4666 16.6936 23.77 16.7109C25.1246 16.729 26.5241 16.8035 27.838 17.1564ZM26.693 14.5698C26.7091 14.11 26.7156 13.6488 26.7732 13.1917C27.1593 13.664 27.5077 13.8054 27.9944 13.3626C28.4603 12.9389 28.5643 12.718 29.155 13.1163C29.667 13.462 30.1515 13.446 30.6954 13.1436C31.0271 12.959 31.5602 12.2052 31.9089 12.3604C32.075 12.4344 32.1968 12.7325 32.3645 12.8422C32.5751 12.9796 32.8987 13.075 33.1441 13.1284C33.7236 13.2541 34.0688 12.8848 34.4325 12.4896C34.96 11.9167 34.9446 12.2494 35.4336 12.6467C35.979 13.0899 36.4351 12.8734 36.929 12.4952C37.2298 13.369 37.3424 14.3232 37.4275 15.2392C37.4561 15.5485 37.5632 15.9876 37.2829 16.2064C37.0854 16.3606 36.6662 16.3666 36.4281 16.4518C35.5779 16.7566 34.7608 17.1889 34.0497 17.7422C33.7726 17.9579 33.5311 18.222 33.1525 18.1728C32.7916 18.126 32.441 17.8267 32.1508 17.6289C31.8358 17.4146 31.5171 17.1711 31.1491 17.0516C30.9336 16.9816 30.5883 17.007 30.3997 16.8786C30.049 16.6401 30.4617 16.0142 30.3743 15.5941C30.3082 15.2752 30.1231 14.6102 29.6799 14.7971C29.0203 15.0752 29.4041 16.1611 29.7669 16.5001C29.0249 16.3695 28.2034 16.1787 27.4878 15.9363C26.935 15.7492 26.6732 15.1306 26.693 14.5698ZM39.1369 16.8093C40.6601 16.3853 42.0853 16.0995 43.6704 16.0223C44.3721 15.9881 45.0513 16.0097 45.7452 16.016C46.1446 16.0196 46.4489 15.7003 46.1299 15.333C45.6883 14.8246 44.3411 15.0181 43.7442 14.9953C42.1443 14.934 40.6774 15.1143 39.1622 15.637C39.3224 15.3444 39.7073 15.3065 39.9712 15.1552C40.2947 14.9695 40.5148 14.6636 40.653 14.3241C41.0128 13.4411 40.6507 12.609 40.2744 11.8025C41.0136 11.9996 41.7782 12.4312 42.5213 12.5408C42.6772 12.5638 42.7771 12.549 42.9149 12.6052C42.9996 12.6397 43.0263 12.7589 43.1311 12.7849C43.1817 12.7975 43.3034 12.6841 43.3607 12.7002C43.5871 12.7636 43.4081 12.7804 43.5512 12.8722C43.6648 12.945 43.6555 13.0389 43.8638 13.0044C43.9562 12.9893 44.0564 12.8477 44.1051 12.8438C44.1671 12.8388 44.1527 12.764 44.2476 12.7858C44.4202 12.8256 44.405 13.046 44.4625 13.1545C44.5238 13.2699 44.4367 13.4235 44.6229 13.4867C44.7621 13.534 44.7971 13.3882 44.9155 13.3987C44.9873 13.4051 45.1365 13.5077 45.2 13.5702C45.4044 13.7717 45.6845 13.9941 45.9595 14.1251C45.9325 14.0982 46.0892 14.0333 46.0517 14.0181C46.0265 14.008 46.191 14.0473 46.1885 14.0467C46.3473 14.0826 46.4313 14.3242 46.5114 14.4123C46.659 14.5738 46.8883 14.7443 47.0951 14.8156C47.4528 14.9388 47.4419 14.7914 47.5724 15.2127C47.8267 14.8165 47.9242 15.48 48.2395 15.5531C48.4028 15.5909 48.3838 15.5216 48.5321 15.6064C48.6341 15.6644 48.702 15.8423 48.7788 15.9281C48.8118 15.8043 48.8447 15.6804 48.8775 15.5567C49.1047 15.9833 49.5949 16.6595 50.1326 16.5373C50.1326 16.6536 50.0841 16.7928 50.1751 16.8921C50.2385 16.9615 50.3414 16.8827 50.391 16.923C50.4344 16.9582 50.5381 17.0985 50.5713 17.1215C50.6368 17.167 50.7555 17.2002 50.8123 17.2456C50.8624 17.2855 50.8873 17.4761 50.9428 17.5449C51.0472 17.6744 51.2277 17.7001 51.313 17.8553C51.3325 17.7023 51.352 17.5491 51.3714 17.396C51.5408 17.5257 51.5552 17.6263 51.5968 17.8161C51.6561 18.0862 51.5775 18.0229 51.7656 18.137C51.9503 18.2491 52.0466 18.2365 52.216 18.4311C52.382 18.6218 52.3835 18.7393 52.6231 18.5407C52.6677 18.6877 52.682 18.8778 52.801 18.9904C52.8908 19.0755 53.2629 19.0792 53.2983 19.2803C52.5994 18.6957 53.0593 19.5836 53.2988 19.2818C53.3493 19.6048 53.5878 19.7091 53.8602 19.9391C54.1143 20.1535 54.1559 20.138 54.2426 20.4982C54.2406 20.4903 54.3703 20.5699 54.3797 20.5859C54.1322 20.6209 54.5158 20.895 54.5807 20.9451C54.6281 20.9817 54.6898 20.8943 54.7683 20.9535C54.8583 21.0213 54.9315 21.1753 55.0047 21.2682C55.2031 21.5199 55.3499 21.7362 55.5587 21.9409C55.7839 22.1619 55.8935 22.4412 56.1098 22.6994C56.3498 22.9862 56.4796 23.3159 56.6803 23.6273C56.871 23.9233 57.1243 24.161 57.3453 24.4322C57.6974 24.8635 57.8172 25.8138 58.4736 25.8388C58.4352 25.8782 58.4887 26.1728 58.495 26.2271C58.526 26.4945 58.5054 26.7519 58.6651 26.9941C58.7016 26.7178 58.8475 26.8243 58.9742 26.9694C59.1849 27.2109 58.9999 27.1501 59.011 27.3949C59.0245 27.6915 59.0585 27.4621 59.1726 27.7211C59.2618 27.924 59.3107 28.0556 59.3586 28.2807C58.9878 28.3098 58.818 28.0096 58.681 27.7186C58.6237 27.5968 58.6038 27.3968 58.5024 27.3017C58.3945 27.2004 58.2462 27.1925 58.1353 27.0795C57.9224 26.8624 57.8302 26.5238 57.5792 26.3125C57.2957 26.0739 57.2329 25.9611 56.9985 25.6758C56.7393 25.3601 56.3813 25.1384 56.1094 24.8331C55.8371 24.5272 55.8592 24.6942 55.5171 24.5835C55.1532 24.4656 54.565 23.3318 54.1066 23.7686C54.1246 23.4829 53.6931 23.2142 53.4749 23.1107C53.3805 23.066 53.2708 23.1064 53.1764 23.0394C53.074 22.9666 53.0667 22.8264 52.9634 22.739C52.9635 22.7391 52.8052 22.7772 52.7731 22.7611C52.7077 22.7283 52.7072 22.6122 52.6495 22.5739C52.4898 22.4681 52.2993 22.3572 52.1298 22.2671C51.7178 22.048 51.3536 21.7783 50.956 21.5146C50.6154 21.2886 50.2031 20.8805 49.8094 20.7614C49.4655 20.6574 49.2493 20.7103 48.9677 20.5021C48.8143 20.3886 48.8594 20.3505 48.613 20.28C48.3783 20.2128 48.2466 20.2474 48.1222 20.0007C47.9047 19.5691 48.042 18.7267 47.9999 18.2427C47.9552 17.7291 47.9021 17.2027 47.7671 16.7033C47.6073 16.113 47.3962 15.8044 46.7574 15.9435C45.4916 16.2192 44.2412 16.4815 42.9698 16.7236C40.4361 17.206 37.9459 17.9933 35.468 18.6922C35.2793 18.7455 34.2263 18.9844 34.4414 18.4448C34.5405 18.1958 35.207 18.1031 35.43 18.0249C36.6548 17.5952 37.8851 17.1575 39.1369 16.8093ZM38.7113 15.7108C38.5262 15.7807 38.3413 15.8506 38.1562 15.9206V15.4106C38.3413 15.5106 38.5262 15.6106 38.7113 15.7108ZM37.9423 13.0141C38.103 13.1443 38.43 12.8309 38.5666 12.7673C38.8002 12.6589 39.0975 12.5657 39.3585 12.5881C39.8396 12.6293 40.1916 13.0988 40.1034 13.5749C39.9542 14.3804 38.7964 14.7612 38.158 15.0761C38.1376 14.7906 38.0443 14.4475 38.2463 14.2007C38.4216 13.9863 38.7616 14.0018 38.9234 13.7738C39.3305 13.2008 38.2272 13.1488 37.9805 13.6045C37.8832 13.3132 37.786 13.022 37.6887 12.7308C37.9235 12.6923 37.8203 12.9154 37.9423 13.0141ZM39.0811 11.4375C38.8513 11.5848 38.6216 11.732 38.3919 11.8792C38.2781 11.3696 38.6662 11.3026 39.0811 11.4375ZM60.0135 29.1728C59.7126 29.3151 59.6374 28.9753 59.4211 28.9606C59.6767 28.8049 59.6767 28.8049 60.0135 29.1728ZM61.2369 36.5932C61.2744 37.0817 61.2451 37.5758 61.3107 38.0623C61.3607 38.4324 61.512 38.7768 61.5281 39.1511C61.5635 39.9708 61.2841 40.8056 60.7201 41.4065C60.1866 41.9749 59.4233 42.4642 58.703 42.7031C58.3786 42.8107 58.0398 43.0493 57.7247 43.1375C57.3759 43.2351 57.0447 43.0227 56.757 43.4037C56.5652 41.7694 56.7053 40.0617 56.6902 38.4172C56.6751 36.769 56.693 35.1203 56.4117 33.4899C56.1612 32.0379 55.6673 30.4046 54.757 29.2167C54.3872 28.7343 53.932 28.3393 53.4518 27.9693C53.2027 27.7775 52.9535 27.5723 52.6761 27.4208C52.249 27.1875 51.8853 27.2198 51.4208 27.1533C50.7562 27.0583 50.1383 26.9779 49.4711 27.1634C48.8501 27.3361 48.1661 27.5328 47.6097 27.833C47.0556 28.132 46.4121 28.2553 45.8368 28.523C45.4455 28.7052 44.6327 29.3139 44.1984 29.2043C43.7782 29.0981 43.156 28.3911 42.8877 28.0745C42.5447 27.6698 42.261 27.2007 41.9567 26.7651C41.8499 26.6123 41.6321 26.376 41.6044 26.1796C41.5562 25.8389 41.6939 25.9503 42.0223 25.9883C42.8668 26.0866 43.661 26.2419 44.4703 26.5054C44.8731 26.6364 45.6607 27.1668 46.0635 26.8489C46.6785 26.3637 45.744 25.5297 45.4018 25.2496C44.8186 24.7722 44.1406 24.4177 43.519 23.9935C42.8585 23.5427 41.9853 23.0628 41.5602 22.3687C42.8014 22.7318 44.0413 23.1477 45.2461 23.6159C45.7974 23.8301 46.3423 24.0563 46.86 24.3412C47.1509 24.5011 47.7385 24.9338 48.0886 24.7265C48.85 24.2761 47.1014 22.9678 46.8492 22.7005C46.4571 22.2851 46.073 21.8737 45.6421 21.4968C45.3515 21.2425 44.8948 21.0636 44.7597 20.6886C45.2421 20.8617 45.6322 21.2008 46.084 21.4311C46.3205 21.5519 46.5363 21.6213 46.7975 21.6583C47.0761 21.6978 47.1093 21.7418 47.3287 21.8515C47.4995 21.9371 47.675 22.0514 47.8669 22.1096C48.0036 22.1511 48.2424 22.1583 48.3619 22.2351C48.423 22.3214 48.486 22.4064 48.5512 22.4898C48.6241 22.5111 48.6958 22.5355 48.7665 22.5634C48.8725 22.657 48.9354 22.7862 49.0384 22.8828C49.7867 23.5841 50.7875 24.086 51.6264 24.6736C52.4201 25.2294 53.2623 25.7322 54.0246 26.3388C54.9017 27.037 55.8121 27.7875 56.5582 28.6247C56.9799 29.0979 57.3265 29.6344 57.6807 30.1576C57.9372 30.5365 58.3102 30.8507 58.5318 31.2414C59.0151 32.0931 59.4162 33.0137 59.9365 33.8516C60.4667 34.7055 61.1574 35.554 61.2369 36.5932ZM54.1066 41.5349C54.2511 40.9438 55.0666 40.2537 55.5878 39.9931C55.3252 40.6371 54.6253 41.0763 54.1066 41.5349ZM55.4513 43.5968C55.0068 44.5109 53.0523 44.6155 53.3174 43.2627C53.4473 42.6 53.9989 42.1932 54.4723 41.7596C54.6911 41.5592 55.2271 40.8421 55.5658 40.9576C55.5499 41.4731 55.5194 41.9909 55.5205 42.5064C55.5212 42.8506 55.6087 43.2733 55.4513 43.5968ZM54.8864 33.0613C55.0667 33.4627 55.2464 33.7971 54.9118 34.1561C54.7608 34.3182 54.2689 34.6729 54.0463 34.5942C53.3319 34.3415 54.694 33.2419 54.8864 33.0613ZM50.5652 29.4892C50.7372 29.4799 50.9043 29.5053 51.0743 29.4949C51.2437 29.4845 51.2616 29.4547 51.4186 29.476C51.4352 29.4998 51.4517 29.5237 51.4683 29.5475C51.4897 29.7078 51.5747 29.7251 51.7229 29.5998C51.929 29.6453 52.0631 29.6757 52.2601 29.7861C51.7281 30.1663 51.0806 30.6082 50.4284 30.7359C49.3975 30.9376 49.6823 29.5375 50.5652 29.4892ZM34.7616 38.0393C34.6548 38.2525 34.3473 37.7199 34.2712 37.6207C34.4131 37.6203 34.8697 37.8243 34.7616 38.0393ZM43.0446 32.429C43.8455 31.9658 44.7967 31.5589 45.6569 31.2141C45.8082 31.9365 45.0705 32.8689 44.6161 33.3632C44.2487 33.7629 43.8058 34.1775 43.3077 34.4075C42.769 34.6562 42.1804 34.5469 42.2066 33.849C42.2162 33.594 42.2748 33.1837 42.3795 32.9505C42.5146 32.6501 42.7699 32.5876 43.0446 32.429ZM32.2179 19.2898C32.3371 19.2829 33.632 19.117 33.6252 19.2767C33.6048 19.7566 32.3479 19.3797 32.2179 19.2898ZM23.0607 28.558C23.7446 27.7215 24.8488 26.8187 24.8649 25.6497C24.8888 23.9295 22.9627 24.7877 21.9944 24.8593C22.5064 24.3606 25.0795 22.2686 23.5575 21.5256C23.1201 21.312 22.4982 21.5207 22.0592 21.6326C21.2804 21.8311 20.5563 22.175 19.7911 22.4142C20.3379 21.8373 21.2825 21.1818 21.2516 20.3082C21.2137 19.2447 20.333 19.5019 19.5715 19.6578C19.2788 19.7179 17.9715 20.2334 17.7259 19.8834C17.6359 19.7552 17.7815 19.5923 17.8123 19.4781C17.8668 19.2762 17.8499 19.2057 17.8518 18.9994C17.8555 18.5832 18.1345 18.0487 17.9069 17.6616C17.855 17.7496 17.8104 17.8411 17.7733 17.9362C17.6983 17.711 17.7487 17.472 17.6737 17.2467C19.5749 17.7287 21.509 17.9925 23.4222 18.4038C24.3908 18.6121 25.3023 18.9706 26.2841 19.1321C27.2742 19.2947 28.2472 19.5438 29.2392 19.699C30.1443 19.8404 31.0114 20.0761 31.9077 20.2568C32.7814 20.433 33.6775 20.0469 34.5303 19.8513C36.4404 19.4135 38.3498 18.9649 40.2624 18.5401C42.4694 18.0496 44.7653 17.6303 46.8779 16.8124C46.9188 17.9026 47.0068 18.9906 47.1412 20.0733C46.2082 19.6362 44.8237 19.0661 43.8805 19.8484C43.503 20.1613 43.3867 20.7016 43.5359 21.1612C43.6983 21.6615 44.1957 21.8938 44.5238 22.2704C43.5251 22.0165 40.9482 20.2271 40.4896 22.0359C40.1656 23.3134 41.7459 24.1385 42.5184 24.8575C41.7512 24.7087 40.7237 24.1006 40.2731 25.0778C39.8838 25.9226 40.3528 26.8418 40.8331 27.5385C41.0935 27.9161 41.3862 28.2713 41.663 28.6371C41.8093 28.8306 41.9522 29.0268 42.1059 29.2146C42.2602 29.4028 42.5511 29.6001 42.6592 29.8027C42.8768 30.2114 42.4376 30.2365 42.0962 30.3841C41.6698 30.5685 41.3037 30.8781 40.9138 31.1249C40.0209 31.69 39.2405 32.2147 38.1855 32.3953C37.0992 32.5811 36.0531 32.7753 34.9812 33.0346C33.9125 33.2931 33.0402 33.5413 31.9479 33.2073C31.4498 33.0551 31.0442 32.9197 30.5159 32.9483C29.9611 32.9784 29.6366 32.9499 29.1805 32.6093C27.2175 31.1439 25.0867 29.9414 23.0607 28.558ZM19.5217 27.0868C20.2804 26.7096 21.0441 26.3304 21.8278 26.0063C22.4765 25.7378 23.4615 25.4251 24.1716 25.5428C23.9714 26.0524 23.6062 26.4706 23.2143 26.8458C22.8678 27.1778 22.4349 27.6787 22.0157 27.9104C21.6348 28.1206 21.1919 27.7876 20.8164 27.648C20.4038 27.4948 19.8359 27.4233 19.5217 27.0868ZM19.7124 28.9903C20.0905 28.8345 20.903 29.3571 21.2468 29.4929C21.9226 29.76 22.6021 30.0389 23.1976 30.4603C22.4704 31.2933 21.6469 32.0547 20.6683 32.5898C20.0245 32.9418 18.9393 33.3456 18.3319 32.7064C17.5689 31.9032 18.4862 30.2668 19.0263 29.5785C19.0442 29.6963 19.0622 29.8138 19.0802 29.9316C19.2526 29.6582 19.3841 29.1256 19.7124 28.9903ZM33.592 36.1193C33.1202 36.2178 32.96 36.1288 32.6486 35.7703C32.4381 35.528 32.2313 35.2764 31.994 35.0585C31.7518 34.8361 31.1537 34.3 31.9157 34.6087C32.6104 34.8901 33.2054 35.0307 33.9697 34.9205C34.8436 34.7946 35.6583 34.4283 36.5199 34.2429C36.0475 34.6526 35.5786 35.0663 35.1055 35.4748C34.6055 35.9064 34.2272 35.9866 33.592 36.1193ZM33.6998 39.4139C32.6661 40.1849 30.5852 40.1016 31.2856 38.4051C31.392 38.1476 31.5409 37.9051 31.7131 37.6856C31.7705 37.6123 31.8727 37.4604 31.9546 37.4111C32.1832 37.2738 32.1198 37.2571 32.3396 37.4863C32.5292 37.684 34.0112 39.2991 33.6998 39.4139ZM33.3933 36.4665C33.488 36.436 33.8869 36.2067 33.9779 36.3336C34.0699 36.462 33.2877 36.9063 33.3933 36.4665ZM40.9181 48.2246C40.6857 48.7758 38.8257 49.5738 39.1722 48.4626C39.3257 47.9705 39.4704 47.5979 40.0494 47.5605C40.3836 47.5391 41.1228 47.7393 40.9181 48.2246ZM44.2546 40.7554C44.5608 40.3135 45.572 39.716 46.0037 40.375C46.2117 40.6925 45.7069 40.8551 45.4017 40.7736C45.2378 40.7295 45.1037 40.6325 44.9255 40.6251C44.6964 40.6158 44.4725 40.794 44.2546 40.7554ZM45.0663 41.1941C44.8581 41.403 43.6024 42.4503 43.399 42.2887C43.8091 41.7077 44.28 41.0588 45.0663 41.1941ZM43.0155 51.7922C42.5795 51.8167 42.7972 51.1654 42.8393 50.905C42.9448 51.0864 43.4999 51.7651 43.0155 51.7922ZM44.1234 50.6249C43.9824 50.3761 43.6023 50.0058 43.6882 49.6856C43.7539 49.441 44.3472 49.1119 44.5956 49.2523C44.9255 49.4389 44.4473 50.6662 44.1234 50.6249ZM54.4702 48.016C54.2837 48.653 54.0903 48.4886 53.5055 48.6121C52.9186 48.7359 52.513 49.2298 51.9964 49.4946C52.1758 49.1186 52.2872 48.6605 52.5876 48.3553C52.6571 48.2849 53.0828 48.1458 52.8403 47.9826C52.6282 47.8399 52.3233 48.3028 52.2322 48.429C51.7848 49.05 51.4718 49.8083 51.2135 50.5227C51.0863 50.8736 50.9846 51.2311 50.9245 51.5996C50.8708 51.9279 50.9287 52.2715 50.874 52.5914C50.7861 53.1066 50.0802 53.1091 49.6556 53.242C49.2713 53.3622 48.8887 53.4926 48.4898 53.5573C48.1439 53.6134 47.7851 53.5111 47.4499 53.5786C47.087 53.6518 46.924 53.8652 46.5114 53.817C46.1751 53.7777 45.8604 53.6244 45.5195 53.609C45.2005 53.5948 44.8824 53.7042 44.5652 53.6152C44.2452 53.5253 44.2607 53.4905 44.3335 53.1789C44.379 53.263 44.4245 53.3471 44.4701 53.4311C44.5977 53.3319 44.686 53.0297 44.7641 52.8877C44.8854 52.6679 44.9841 52.5919 44.9392 52.3181C44.8729 51.9136 44.5051 51.626 44.4217 51.2413C44.3346 50.84 44.634 50.5118 44.811 50.1767C45.0529 49.7181 45.0497 49.378 44.847 48.9037C44.9998 48.9436 45.1526 48.9837 45.3056 49.0238C45.096 48.5729 44.3854 48.7556 44.029 48.8893C43.8499 48.9563 43.566 49.2201 43.3733 49.2134C43.1085 49.2042 42.9704 48.8591 42.8567 48.6691C42.5273 48.1193 42.1513 47.5763 41.7617 47.0658C41.6546 46.9255 41.5142 46.8352 41.5512 46.6752C41.5828 46.5395 41.8899 46.3469 41.9895 46.2633C42.3632 45.9501 42.8388 45.7766 43.1897 45.4469C43.7202 44.9488 44.3318 44.5919 44.8741 44.1036C45.4391 43.595 46.0212 43.1279 46.6099 42.6471C47.2063 42.1603 47.7228 41.5866 48.3149 41.0948C48.4683 41.3703 48.7654 42.3569 49.1052 42.4332C49.5015 42.5221 49.4897 42.0574 49.47 41.7778C49.4419 41.3794 49.2186 40.9922 49.1938 40.6119C49.1671 40.205 49.5621 40.0232 49.86 39.7879C50.3204 39.4244 51.3392 38.5964 50.7915 37.915C50.3197 37.3281 48.7856 38.4535 48.3629 38.7919C48.0035 39.0794 47.7258 39.3395 47.3213 39.5664C47.0367 39.7257 46.5594 40.3389 46.2222 40.2822C45.821 40.215 45.6643 39.7808 45.1736 39.7951C44.694 39.809 44.2867 40.1513 43.9893 40.495C43.317 41.2719 43.0861 42.3115 42.4734 43.1214C42.1714 43.5206 41.7796 43.8503 41.452 44.2281C41.0922 44.6427 41.0158 45.1204 40.661 45.5262C39.6458 44.1857 38.5396 42.9164 37.4691 41.6199C36.9343 40.9724 36.4108 40.3172 35.8876 39.6608C35.6915 39.4147 35.4704 39.1838 35.2908 38.9253C35.0449 38.5714 35.0891 38.2871 34.9926 37.8923C34.9499 37.7174 34.7493 37.5078 34.803 37.3406C34.8753 37.1159 35.382 36.9395 35.5648 36.8476C36.3112 36.4721 36.9881 36.0028 37.684 35.544C38.9727 34.6946 40.2764 33.898 41.6471 33.1725C41.6235 33.4851 41.4182 33.8091 41.556 34.1227C41.6203 33.9423 41.7219 33.1385 41.9649 33.104C41.9183 33.1106 41.9566 34.1347 41.9943 34.2808C42.1064 34.7172 42.4318 35.0156 42.8975 35.0127C43.7844 35.007 44.5792 34.0508 45.0715 33.4174C45.4048 32.9886 45.7249 32.4898 45.8422 31.953C45.9478 31.4711 45.8317 31.1359 46.3371 30.8912C47.3742 30.3892 48.4197 29.9801 49.5288 29.7139C49.4792 30.1876 49.3406 30.7708 49.775 31.1116C50.2546 31.4877 50.8821 31.1525 51.3335 30.9037C51.7808 30.6572 52.4704 29.9803 52.9956 30.177C53.5123 30.3703 53.872 31.0126 54.1612 31.4391C54.416 31.815 54.6934 32.086 54.3982 32.505C54.0674 32.9746 53.8521 33.4328 53.587 33.9429C53.4852 34.1389 53.3879 34.2668 53.46 34.4676C53.4833 34.5328 53.7489 34.921 53.8211 34.9767C54.2812 35.3316 54.9026 34.6564 55.2311 34.4002C55.347 35.5038 55.373 36.6025 55.4196 37.7096C55.4539 38.5205 55.7707 39.3189 55.0993 39.9116C54.4281 40.5042 53.8679 41.1124 53.4588 41.9148C53.2403 42.3434 53.0443 42.7833 52.8079 43.2031C52.65 43.4834 52.317 43.8947 52.5208 44.2248C52.7359 44.0224 52.7999 43.7149 52.9791 43.4868C53.0865 43.9602 53.1946 44.4854 53.6998 44.686C54.2811 44.9169 54.8588 44.5175 55.3737 44.2952C55.1891 45.5608 54.829 46.7906 54.4702 48.016ZM53.8759 49.4708C53.477 50.316 53.1167 51.3349 52.38 51.9573C52.2182 52.0939 51.5308 52.6273 51.2693 52.5379C51.0473 52.462 51.1694 52.0174 51.2082 51.8269C51.4045 50.8597 51.744 50.2511 52.5353 49.6342C52.8627 49.3787 53.2831 49.0524 53.7054 48.9894C54.16 48.9216 54.0291 49.1461 53.8759 49.4708ZM65.1289 69.5309C64.0946 68.1368 62.6326 67.0533 61.251 66.006C60.6252 65.5316 59.9357 65.1759 59.3033 64.7013C58.5886 64.1648 57.8626 63.6473 57.0619 63.243C55.5439 62.4763 53.8878 61.9419 52.4553 61.0353C51.7566 60.5932 50.9923 60.1658 50.3355 59.6695C50.0469 59.4514 49.7921 59.1725 49.5314 58.9228C49.2892 58.6907 48.7691 58.3538 48.6727 58.0142C49.0758 57.9488 49.305 57.5611 49.6649 57.5216C49.7834 57.5085 50.5261 57.7032 50.4246 57.3462C50.6939 57.3395 50.7253 57.3356 50.9511 57.277C51.0445 57.2529 51.1553 57.2907 51.2499 57.2576C51.3946 57.2069 51.4929 57.0608 51.639 57.0048C51.7428 56.965 52.1284 57.0094 52.1869 56.9598C52.3464 56.8247 52.1769 56.8367 52.0817 56.6678C52.3919 56.6601 52.6049 56.8154 52.9159 56.6502C53.0105 56.5999 53.0907 56.484 53.1825 56.4239C53.3451 56.3173 53.4039 56.4825 53.5154 56.2613C53.6197 56.5665 53.6168 56.4821 53.8682 56.3923C54.1186 56.3028 54.2994 56.2383 54.5846 56.2159C55.2659 56.1625 55.9496 56.2444 56.6278 56.1965C56.8758 56.1789 57.0878 56.123 57.3343 56.1552C57.5513 56.1835 57.486 56.3331 57.6664 56.1315C57.7083 56.0847 57.5728 55.9566 57.6377 55.8893C57.6664 55.8594 57.7597 55.8804 57.7952 55.8651C58.1122 55.728 58.1136 55.9196 58.1699 56.1693C58.3559 56.1261 58.5456 56.087 58.7071 55.979C58.6254 55.9068 58.4889 55.8271 58.5677 55.6953C58.8359 55.7959 59.0112 55.7494 58.8772 56.0412C59.147 56.1296 59.1974 56.0144 59.4397 55.9891C59.5831 55.9743 59.7831 56.0624 59.9025 55.949C60.033 55.8252 59.8273 55.6906 60.0668 55.584C60.116 55.6089 60.1523 55.6463 60.1761 55.6961C60.3054 55.7348 60.2822 55.7854 60.1064 55.8475C60.5774 56.0896 60.4667 55.819 60.6645 55.5328C60.7102 55.4669 60.9148 55.2619 61.008 55.3609C61.1494 55.511 60.8607 55.5588 60.9226 55.7079C61.0299 55.9666 61.4041 55.6351 61.519 55.5041C61.6059 55.4051 61.6414 55.2152 61.735 55.1413C61.8652 55.0385 62.0524 55.1973 62.2153 55.1688C62.9596 55.0394 63.6624 54.0476 63.1018 53.3837C62.9511 53.2053 62.8236 53.2408 62.644 53.1281C62.4665 53.0169 62.3669 52.8243 62.2245 52.6652C61.8993 52.3023 61.5011 52.0304 61.0465 51.8566C59.9917 51.4534 58.8553 51.1593 57.7478 50.9428C57.2349 50.8425 56.6889 50.6893 56.1638 50.6904C55.8544 50.6909 55.3885 50.9293 55.0993 50.8152C54.5369 50.593 55.3625 49.4562 55.4987 49.0889C55.8989 48.0101 56.2008 46.8598 56.3988 45.7274C56.4375 45.5057 56.4226 45.2186 56.5032 45.0073C56.5956 44.7646 56.6155 44.7989 56.8134 44.7792C57.1709 44.7433 57.5619 44.9291 57.9342 44.8649C58.3468 44.7938 58.7927 44.8269 59.2093 44.7003C59.4008 44.6423 59.5783 44.5791 59.7044 44.4189C59.7441 44.3687 59.6998 44.325 59.725 44.2898C59.7327 44.2787 59.8752 44.1264 59.8798 44.1177C59.8784 44.0389 59.8852 43.9607 59.9006 43.8833C60.0449 44.0021 59.9737 44.2512 60.2171 44.257C60.2604 43.9915 60.2609 43.9379 60.4368 43.7885C60.4234 43.8 60.5693 43.677 60.5505 43.6901C60.5594 43.6428 60.5769 43.5986 60.6031 43.5577C60.6853 43.5184 60.7722 43.4974 60.8636 43.4951C61.0537 43.3013 60.9748 43.198 60.9748 42.9371C61.1282 43.0161 61.2816 43.095 61.4351 43.1741C61.4722 42.4013 61.9469 41.9781 62.2624 41.3518C62.3968 41.0849 62.5338 40.8764 62.5659 40.5545C62.5844 40.3688 62.5361 40.2049 62.6137 40.0299C62.684 39.8711 62.8414 39.7856 62.9072 39.6125C63.0366 39.2722 62.9401 38.8376 62.9471 38.4841C62.9571 37.9938 63.0064 37.5052 63.0226 37.0152C63.0543 36.0533 62.9567 35.0647 62.8115 34.1139C62.7421 33.6591 62.6259 33.2179 62.5347 32.7678C62.4596 32.3981 62.2801 32.0511 62.2158 31.707C62.1891 31.5641 62.2304 31.4358 62.1869 31.2776C62.1296 31.0698 62.0338 30.8654 61.9625 30.6613C61.7962 30.1844 61.6316 29.7083 61.4445 29.2389C61.0818 28.3291 60.6572 27.4466 60.2539 26.5544C59.8659 25.6963 59.5446 24.8116 59.042 24.0104C58.547 23.2213 58.014 22.4454 57.4685 21.6899C56.9002 20.9033 56.1818 20.2273 55.6307 19.4334C54.596 17.9427 53.1528 16.7143 51.6428 15.7C48.5271 13.6068 45.16 11.5168 41.4238 10.7991C40.8607 10.691 40.2904 10.616 39.7166 10.602C39.3605 10.5933 38.7706 10.7639 38.4334 10.6445C38.0558 10.5106 38.0904 10.0903 37.9959 9.7606C37.8743 9.33666 37.6002 9.05907 37.2888 8.75938C36.961 8.44394 36.6636 8.07557 36.2549 7.86108C35.8406 7.64386 35.352 7.5626 34.893 7.49697C34.4833 7.43813 33.8711 7.49303 33.4967 7.31606C33.1558 7.15485 33.3242 6.98696 33.6434 7.12499C33.6668 6.98542 33.6857 6.8953 33.7759 6.78746C33.8212 6.73321 34.0353 6.65719 34.0405 6.60655C34.0465 6.54739 33.867 6.37871 33.8413 6.30232C33.7861 6.13786 33.8174 5.91007 33.883 5.75571C34.2049 6.03931 34.2981 6.1649 34.6575 5.89382C34.8093 5.77936 34.8558 5.72889 35.0316 5.67114C35.0793 5.65546 35.1862 5.70388 35.2278 5.67672C35.3866 5.57305 35.2405 5.59749 35.316 5.47496C35.297 5.50588 35.4304 5.18023 35.424 5.24832C35.4403 5.07486 35.492 5.12817 35.3864 4.91505C35.1794 4.49813 34.6525 4.48108 34.9211 4.00528C35.0267 3.81808 35.1197 3.83671 35.1495 3.56529C35.1655 3.41934 35.1456 3.25203 35.145 3.10359C35.1436 2.79998 35.2013 2.58743 34.9143 2.43285C34.6384 2.28418 34.384 2.44729 34.272 2.07856C34.1547 1.69165 34.2728 1.19561 33.85 0.930664C33.5409 0.737093 33.0947 0.902588 32.7533 0.807913C32.4111 0.713107 32.0964 0.366093 31.7491 0.632519C31.5024 0.821891 31.3715 1.28746 30.9066 1.03569C30.6967 0.922144 30.5813 0.540907 30.4488 0.327111C30.2381 -0.0136575 30.069 -0.136759 29.7446 0.195139C29.5446 0.399857 29.123 0.898158 29.0971 1.18153C29.0689 1.49433 29.3442 1.62504 28.9985 1.81008C28.6546 1.99422 28.4617 1.85919 28.1825 2.23292C27.9057 2.60369 28.12 2.80851 27.7993 3.16326C27.3983 3.60667 27.185 3.79807 27.1906 4.39549C27.1945 4.80525 26.8292 5.1592 27.0423 5.54793C27.2811 5.9836 27.9781 6.16478 28.4006 6.3421C28.2596 6.60047 28.066 6.76613 28.2307 7.03202C28.3799 7.27286 28.8015 7.32296 29.0629 7.27921C29.2387 7.24978 29.245 7.27625 29.3834 7.15364C29.4741 7.07347 29.3497 6.97328 29.5364 6.92888C29.7351 6.8813 30.0525 7.26728 30.1815 7.36386C29.8931 7.73475 29.1012 7.8041 28.6822 7.992C28.427 8.10674 28.1923 8.27638 27.9323 8.37886C27.6964 8.47183 27.4094 8.45028 27.1956 8.59411C26.8263 8.84261 26.6726 9.45817 26.4463 9.8201C26.19 10.2298 25.9416 10.42 25.45 10.5051C24.8368 10.6111 24.343 10.6538 23.771 10.9184C23.0726 11.2418 22.3841 11.583 21.6982 11.9316C20.5918 12.4937 19.564 13.0706 18.5366 13.7504C17.4618 14.4618 16.4163 15.2042 15.3792 15.9474C14.3534 16.6825 13.4922 17.5868 12.6011 18.4757C11.8809 19.1943 11.2488 19.97 10.5313 20.6884C9.6842 21.5367 9.06116 22.6072 8.27579 23.5071C7.84608 23.9994 7.43491 24.4835 7.16532 25.0634C6.94682 25.5336 6.56677 25.9948 6.31308 26.488C5.98897 27.1185 5.68219 27.739 5.31826 28.3488C5.16895 28.5989 4.9915 28.8136 4.83392 29.0525C4.63198 29.3583 4.6439 29.6537 4.5896 30.0063C4.53288 29.9203 4.47627 29.8342 4.41955 29.7483C4.3167 29.9708 4.19245 30.1898 4.10339 30.4177C4.04656 30.5631 4.0555 30.7695 3.99845 30.8967C3.92683 31.0563 3.83965 31.0351 3.75038 31.1681C3.65493 31.3103 3.62414 31.5013 3.52361 31.6539C3.08871 32.3132 2.92142 33.1497 2.69796 33.902C2.39824 34.9112 2.44547 36.0711 2.46181 37.1117C2.47913 38.2108 2.53971 39.31 2.70645 40.3975C2.85753 41.3824 3.18041 42.3271 3.68593 43.1906C4.12646 43.9431 4.73383 44.3816 5.51192 44.7671C5.86924 44.944 6.20085 44.8894 6.57582 44.9177C6.98666 44.9486 7.26684 45.0592 7.70152 44.962C7.90997 44.9151 8.00874 44.7648 8.17437 44.7146C8.27689 44.6836 8.33218 44.7342 8.43061 44.7224C8.57142 44.7055 8.86429 44.637 9.01702 44.6535C9.4923 44.7049 9.41252 45.4171 9.45931 45.7805C9.53126 46.3406 9.58389 46.9068 9.681 47.4633C9.88504 48.6337 10.3257 49.7272 10.586 50.8775C9.37919 51.0234 8.34399 51.2466 7.21288 51.6993C6.07814 52.1535 4.93081 52.3076 3.73659 52.5333C2.61939 52.7445 1.54478 53.1392 0.650495 53.8542C0.23138 54.1891 -0.204067 54.5811 0.103703 55.1327C0.30057 55.4855 0.655351 55.5752 0.961576 55.7802C1.02348 55.7026 0.844493 55.5382 0.811719 55.4926C1.06917 55.545 1.06133 55.6641 1.24937 55.7678C1.41369 55.8583 1.54821 55.8552 1.72808 55.9191C2.16728 56.0756 2.38312 56.4658 2.81725 56.5753C2.95386 56.6097 3.13252 56.6922 3.27212 56.7156C3.43996 56.7436 3.56554 56.6709 3.73559 56.7017C3.8273 56.7617 3.92661 56.8044 4.03321 56.8301C4.10317 56.798 4.17225 56.764 4.24034 56.7282C4.48466 56.7533 4.63551 56.9056 4.83403 57.0307C4.84727 56.8731 4.82818 56.7094 4.9787 56.6065C5.03752 56.7598 4.94251 56.8568 5.10296 56.9624C5.30623 57.0961 5.57317 56.9291 5.75514 56.8446C5.80667 57.3541 6.99703 57.3242 7.37432 57.3168C7.89684 57.3069 8.4188 57.1014 8.94595 57.216C9.21488 57.2745 9.5019 57.3356 9.76962 57.4115C10.092 57.5027 10.4816 57.5843 10.7989 57.6994C10.9251 57.7453 11.0796 57.892 11.2139 57.8821C11.3208 57.8741 11.3495 57.7179 11.474 57.7223C11.6148 57.7274 11.6621 57.883 11.784 57.9298C11.9665 57.9997 12.1342 57.8667 12.3076 57.9338C12.3699 57.9579 12.4544 58.0615 12.5341 58.0953C12.6552 58.1464 12.8949 58.1471 13.0296 58.1717C13.2206 58.2068 13.3917 58.1832 13.5553 58.1948C13.6873 58.2042 13.6844 58.2923 13.7476 58.2979C13.8201 58.3044 13.9462 58.0575 14.0435 58.0213C14.1852 57.9686 14.4425 58.0942 14.587 58.1163C13.5399 59.523 12.2774 60.7664 10.9088 61.8551C9.4326 63.0296 7.9209 64.2026 6.3379 65.2326C4.90057 66.168 3.50926 66.977 2.39493 68.2973C1.45529 69.4107 -0.0404155 70.6019 0.190109 72.2155C0.420523 73.8279 2.18692 74.484 3.60229 74.7918C5.38248 75.179 7.21498 75.0231 8.99991 75.2408C9.76112 75.3336 10.6069 75.2841 11.3731 75.205C12.2781 75.1116 13.0538 74.5262 13.8319 74.103C15.2314 73.3415 16.4278 72.3227 17.8063 71.5376C19.5323 70.5543 21.2401 69.5126 23.1323 68.8542C24.0126 68.5478 24.9188 68.1981 25.6289 67.5681C25.7346 67.4744 25.8133 67.3329 25.9327 67.2555C26.1356 67.1243 26.19 67.2574 26.3079 67.2176C26.3985 67.1871 26.4863 67.0899 26.5647 67.0608C26.7632 66.9871 26.8518 67.0175 27.0742 67.0175C26.8834 66.9085 26.7087 66.6274 26.9068 66.3984C27.2458 66.006 27.3043 66.633 27.4316 66.7783C27.5396 66.6407 27.4983 66.5183 27.4707 66.3621C27.5618 66.4218 27.6532 66.4814 27.7445 66.5412C27.6816 66.2387 27.7414 65.9601 27.903 65.6965C28.0521 65.4536 28.089 65.4878 28.13 65.1512C28.5932 65.5702 28.6837 64.5532 28.7254 64.1824C28.7656 63.8229 28.7258 63.5648 28.9644 63.2503C29.2205 62.9128 29.6099 62.6994 29.935 62.4372C30.4486 62.0228 31.0137 61.4995 31.7239 61.8968C32.2845 62.2107 32.5897 62.9798 33.1157 63.375C33.4347 63.6149 33.7715 63.6391 33.9749 64.0109C34.1393 64.3114 34.1927 64.6712 34.348 64.9798C34.7241 65.7278 35.2655 66.5838 35.8831 67.1575C36.458 67.6917 37.1961 67.689 37.8689 68.0202C38.5348 68.3482 39.2269 68.7036 39.9319 68.9412C40.7018 69.2008 41.5321 69.3111 42.2817 69.6257C42.6673 69.7876 43.0121 70.0311 43.4011 70.186C43.8207 70.353 44.2626 70.4707 44.6877 70.6237C46.3721 71.2301 48.0204 71.9738 49.7899 72.3099C50.5747 72.4588 51.3013 72.8638 52.0919 72.9492C52.431 72.9857 52.7075 73.032 53.0395 73.1161C53.56 73.248 53.4497 73.3181 53.6415 73.7483C53.957 74.4566 54.7275 74.0371 55.3214 74.0548C56.2721 74.0833 57.2083 73.9309 58.1575 73.9237C59.8174 73.911 61.4156 73.7256 63.0213 73.1855C64.6333 72.6432 66.4687 71.3364 65.1289 69.5309Z" fill="black"/>
<path fill-rule="evenodd" clip-rule="evenodd" d="M45.9417 14.1941C45.9646 14.2169 46.0183 14.2307 45.9417 14.1941V14.1941Z" fill="black"/>
<path fill-rule="evenodd" clip-rule="evenodd" d="M16.7031 44.3595C17.0636 43.9973 18.5975 44.0705 18.7135 44.7183C18.8427 45.4413 17.4721 46.5334 16.9705 46.8396C16.325 47.2336 15.5371 47.3075 15.6516 46.3182C15.7381 45.5709 16.1898 44.8751 16.7031 44.3595ZM17.9698 43.614C18.0166 43.8144 17.6719 43.7462 17.577 43.6986C17.5322 43.6076 17.923 43.413 17.9698 43.614ZM15.3247 44.9399C15.6306 44.9672 15.9812 44.4807 16.212 44.315C16.314 44.4713 15.6413 45.3304 15.5673 45.5264C15.3824 46.0162 15.2796 46.635 15.5316 47.1236C16.2681 48.5513 18.1529 46.5125 18.6243 45.8004C18.9542 45.3024 19.1825 44.6848 18.7166 44.1967C18.5507 44.0228 18.2767 43.9746 18.1227 43.8093C17.9198 43.5921 18.0794 43.3116 17.6717 43.3589C17.3903 43.3917 17.0525 43.6433 16.7789 43.7344C16.4492 43.844 16.1528 43.9578 15.865 44.161C15.8001 44.2068 14.9468 44.9063 15.3247 44.9399Z" fill="black"/>
<path fill-rule="evenodd" clip-rule="evenodd" d="M36.9479 45.4191C36.7556 46.4 35.775 47.4063 34.7431 47.4453C33.7155 47.4841 33.3828 46.4171 33.5642 45.5666C33.7189 44.8412 34.3514 43.581 35.2539 43.7199C35.9633 43.8289 37.1127 44.5784 36.9479 45.4191ZM36.2935 43.7797C35.642 43.2801 34.7419 43.0489 33.9867 43.4454C33.7391 43.5753 32.7508 44.1486 33.0515 44.5368C33.457 44.2253 33.8071 43.7931 34.334 43.6895C34.2454 44.0944 33.7393 44.4586 33.561 44.8529C33.3525 45.3135 33.2385 45.8407 33.2726 46.3469C33.3335 47.2477 33.9423 47.9477 34.8848 47.8239C35.7477 47.7104 36.5021 47.0549 36.9137 46.318C37.4634 45.3339 37.1537 44.4394 36.2935 43.7797Z" fill="black"/>
<path fill-rule="evenodd" clip-rule="evenodd" d="M30.2431 47.6489C29.7792 48.3296 29.0719 48.97 28.2541 49.1803C27.1952 49.4525 27.4927 48.5852 27.8091 47.9629C28.0889 47.4126 28.5688 46.4661 29.2996 46.4712C29.5477 46.4728 30.0096 46.5916 30.227 46.7231C30.6555 46.9823 30.4874 47.2907 30.2431 47.6489ZM29.2549 46.1526C29.4215 45.9689 30.1586 45.1809 30.2574 45.7951C30.469 45.5518 30.3021 45.35 30.031 45.3243C29.7042 45.2934 29.3468 45.6542 29.1108 45.8335C28.6253 46.2023 28.2515 46.5799 27.9297 47.0971C27.575 47.6671 26.6704 48.9555 27.4621 49.5211C28.3177 50.1326 29.5632 49.0034 30.099 48.4211C30.4417 48.0485 30.8955 47.5015 30.7652 46.9553C30.6052 46.2844 29.8178 46.214 29.2549 46.1526Z" fill="black"/>
<path fill-rule="evenodd" clip-rule="evenodd" d="M25.6039 35.1811C25.125 35.7226 24.1524 36.5115 23.3509 36.4185C22.62 36.3338 22.9053 35.5206 23.164 35.127C23.5526 34.5355 24.0733 33.9802 24.8255 33.9479C25.1503 33.934 25.5712 33.9405 25.8227 34.1842C26.1662 34.5172 25.8569 34.8951 25.6039 35.1811ZM25.553 33.6766C24.9921 33.4846 24.7717 33.4114 24.2266 33.7168C23.7888 33.962 23.4006 34.3086 23.1002 34.7021C22.6506 35.2912 22.1972 36.6163 23.3516 36.782C24.6179 36.9639 27.6299 34.3884 25.553 33.6766Z" fill="black"/>
<path fill-rule="evenodd" clip-rule="evenodd" d="M27.2789 37.0574C26.9147 37.4262 26.4599 37.7271 25.9408 37.8298C26.1604 37.3443 26.6507 36.2833 27.232 36.1355C27.4998 36.0673 27.8052 36.1566 27.7832 36.459C27.7672 36.6777 27.4226 36.9119 27.2789 37.0574ZM27.7478 35.7738C27.4462 35.624 27.5413 35.5216 27.1904 35.6392C26.9139 35.7317 26.5651 35.8924 26.3348 36.0774C26.2092 36.1785 25.818 36.5366 25.8659 36.7188C25.9526 37.05 26.2444 36.5425 26.3211 36.4449C26.4525 36.5511 25.7804 37.5043 25.7404 37.6613C25.5913 38.2455 26.054 38.3073 26.5075 38.1161C27.1189 37.8585 28.9297 36.3607 27.7478 35.7738Z" fill="black"/>
<path fill-rule="evenodd" clip-rule="evenodd" d="M36.7132 51.4943C36.7583 51.107 36.8224 50.6975 37.1811 50.48C37.5042 50.2839 37.8389 50.3124 37.8866 50.7144C37.9312 51.0878 37.5621 51.751 37.2635 51.9546C36.8478 52.2384 36.7677 51.8848 36.7132 51.4943ZM37.2473 52.3756C38.1008 51.8806 38.6388 49.6103 37.0654 50.2465C36.1713 50.6081 36.5002 52.8089 37.2473 52.3756Z" fill="black"/>
<path fill-rule="evenodd" clip-rule="evenodd" d="M29.9574 42.9611C30.0921 42.6877 30.246 42.597 30.519 42.4773C30.337 42.6476 30.1511 42.805 29.9574 42.9611ZM30.1544 42.2873C29.9611 42.4796 29.518 42.7727 29.5801 43.1029C29.6367 43.4043 29.869 43.387 30.0797 43.2931C30.5214 43.0962 30.7673 42.2345 31.2295 42.1537C30.7169 41.8317 30.5972 41.8467 30.1544 42.2873Z" fill="black"/>
<path fill-rule="evenodd" clip-rule="evenodd" d="M30.2223 25.1722C30.2469 26.09 30.2686 27.0076 30.289 27.9254C30.2961 28.2479 30.2185 28.7078 30.3161 29.0167C30.3593 29.1528 30.7492 29.7428 30.8876 29.7809C31.3717 29.9145 31.1988 28.7115 31.2021 28.4153C31.2139 27.4159 31.1992 26.4155 31.1951 25.4161C31.1927 24.9011 31.3395 20.5827 30.6653 20.6038C30.5492 20.6074 30.263 21.1012 30.22 21.2001C30.0845 21.511 30.1344 21.9718 30.1375 22.3032C30.1466 23.2591 30.1967 24.2164 30.2223 25.1722Z" fill="black"/>
<path fill-rule="evenodd" clip-rule="evenodd" d="M34.3046 27.8475C34.3425 28.1013 34.3226 28.5243 34.6108 28.6559C34.8615 28.7703 34.9576 28.6343 35.0514 28.4216C35.2671 27.9325 35.1893 27.1847 35.1853 26.679C35.1773 25.6766 35.0635 24.6786 34.9848 23.6801C34.9501 23.242 35.022 22.8019 34.9668 22.3434C34.9425 22.1423 34.9183 21.3329 34.542 21.3707C34.2018 21.4047 34.2325 22.2529 34.214 22.4714C34.0597 24.2908 34.0329 26.0315 34.3046 27.8475Z" fill="black"/>
<path fill-rule="evenodd" clip-rule="evenodd" d="M50.3629 48.7392C50.2187 49.4698 47.8661 52.0142 47.2738 50.5913C46.9223 49.7469 47.6842 48.8278 48.2782 48.3391C48.6459 48.0366 49.1052 47.7397 49.6063 47.8314C50.0317 47.9093 50.4544 48.2751 50.3629 48.7392ZM49.1481 47.4286C48.9819 47.4675 47.593 48.4342 47.5803 48.4215C47.4597 48.3015 48.3357 47.0073 48.4258 46.8941C49.1685 45.9614 49.6614 46.6676 50.1259 47.4007C50.027 46.9628 49.7549 46.3272 49.3002 46.142C48.726 45.9083 48.2782 46.4852 48.002 46.9001C47.6116 47.4864 47.3964 48.1231 47.1794 48.7848C47.0759 49.1004 46.958 49.3865 46.7829 49.671C46.61 49.9517 46.3074 50.2613 46.3521 50.6164C46.598 50.481 46.7285 50.2159 46.8833 49.9975C47.0562 50.0668 46.9968 50.6128 47.0319 50.7518C47.12 51.1011 47.3608 51.3744 47.7332 51.4344C48.4272 51.5463 49.1763 50.91 49.6404 50.4777C50.1293 50.0223 50.6556 49.398 50.6514 48.697C50.6469 47.9646 49.9202 47.2474 49.1481 47.4286Z" fill="black"/>
<path fill-rule="evenodd" clip-rule="evenodd" d="M51.0295 35.6879C50.6358 36.2852 49.9449 37.0012 49.2138 37.14C48.6772 37.2418 48.3232 36.8476 48.5388 36.3155C48.7209 35.8658 49.3413 35.5817 49.7479 35.3839C50.0705 35.2269 51.5745 34.8614 51.0295 35.6879ZM50.7399 34.711C49.9333 34.6808 49.2827 35.2588 48.6813 35.7201C48.8171 35.1902 49.1243 34.6137 49.557 34.2688C50.1457 33.7994 50.7039 34.0908 51.3237 34.3256C51.1708 33.8473 50.4844 33.6752 50.0471 33.7428C49.4942 33.8283 49.0966 34.2961 48.8171 34.7487C48.4836 35.2886 48.3695 35.9248 47.977 36.4313C47.7972 36.663 46.6843 37.5305 46.9364 37.885C47.352 37.4476 47.7678 37.0103 48.1835 36.5729C48.2913 37.0898 48.41 37.6785 49.0759 37.6281C49.6077 37.5879 50.2142 37.1399 50.603 36.7974C51.1051 36.3551 52.0934 34.7618 50.7399 34.711Z" fill="black"/>
<path fill-rule="evenodd" clip-rule="evenodd" d="M39.4412 39.8112C39.0996 39.9668 38.3474 40.1785 38.1564 39.7107C37.891 39.0609 38.7449 37.9212 39.1513 37.4882C39.4014 37.2218 39.571 37.084 39.9196 37.2564C40.1979 37.3941 40.6069 37.7852 40.7136 38.086C40.9428 38.7317 39.9757 39.5675 39.4412 39.8112ZM40.2252 36.6904C40.5034 36.7526 40.5375 37.1028 40.1895 36.9683C39.9289 36.8676 39.8683 36.6107 40.2252 36.6904ZM40.5744 37.1837C40.4706 36.8695 40.6819 36.3768 40.1702 36.3542C39.8803 36.3414 39.3492 36.6335 39.096 36.7523C38.7451 36.9168 38.415 37.168 38.2318 37.5219C38.0621 37.8497 38.1832 37.9361 38.4419 37.664C38.4736 37.6854 37.8568 39.2619 37.8514 39.4198C37.8273 40.1417 38.3429 40.6172 39.067 40.4892C39.7326 40.3715 40.3323 39.8321 40.6986 39.2877C40.8839 39.0121 41.036 38.6967 41.0498 38.3591C41.0712 37.8414 40.723 37.6333 40.5744 37.1837Z" fill="black"/>
<path fill-rule="evenodd" clip-rule="evenodd" d="M44.719 35.7447C44.1364 35.4809 43.4858 36.3829 43.7666 36.9189C44.135 37.6216 45.932 36.2941 44.719 35.7447ZM44.0243 36.7531C43.9031 36.5395 44.7262 36.2244 44.8563 36.2192C44.7911 36.3371 44.1905 37.0461 44.0243 36.7531Z" fill="black"/>
<path fill-rule="evenodd" clip-rule="evenodd" d="M5.07023 35.2286C5.03767 35.0002 4.52145 35.3317 4.52443 35.4787C4.60984 35.3094 5.13798 35.7042 5.07023 35.2286Z" fill="black"/>
<path fill-rule="evenodd" clip-rule="evenodd" d="M33.3048 17.9782C33.962 17.9303 33.1246 14.6438 32.6456 14.9344C32.1263 15.2494 32.7016 18.022 33.3048 17.9782Z" fill="black"/>
<path fill-rule="evenodd" clip-rule="evenodd" d="M34.5322 16.4435C35.148 16.5309 35.0501 15.1295 34.7189 14.8787C34.1076 14.4157 33.7846 16.3374 34.5322 16.4435Z" fill="black"/>
</svg>
