<svg width="105" height="89" viewBox="0 0 105 89" fill="none" xmlns="http://www.w3.org/2000/svg">
<g clip-path="url(#clip0_172_26)">
<g opacity="0.2">
<path opacity="0.2" d="M79.6547 10.1301H26.1233V64.2148H79.6547V10.1301Z" fill="#D9FAFF"/>
<path opacity="0.2" d="M48.604 11.2023L40.3478 36.5594H35.6528L43.9096 11.2023H48.604Z" fill="white"/>
<path opacity="0.2" d="M41.3566 11.2023L33.1004 36.5594H30.3823L38.638 11.2023H41.3566Z" fill="white"/>
<path opacity="0.2" d="M76.3904 10.9727L68.1337 36.3299H63.4392L71.6959 10.9727H76.3904Z" fill="white"/>
<path opacity="0.2" d="M69.1423 10.9727L60.8866 36.3299H58.1685L66.4241 10.9727H69.1423Z" fill="white"/>
<path opacity="0.2" d="M76.3904 38.1684L68.1337 63.5252H63.4392L71.6959 38.1684H76.3904Z" fill="white"/>
<path opacity="0.2" d="M69.1423 38.1684L60.8866 63.5252H58.1685L66.4241 38.1684H69.1423Z" fill="white"/>
<path opacity="0.2" d="M48.604 38.1684L40.3478 63.5252H35.6528L43.9096 38.1684H48.604Z" fill="white"/>
<path opacity="0.2" d="M41.3566 38.1684L33.1004 63.5252H30.3823L38.638 38.1684H41.3566Z" fill="white"/>
<path opacity="0.2" d="M53.8308 64.347V11.1469C53.8308 10.9238 53.6456 10.743 53.417 10.743H52.2822C52.0536 10.743 51.8684 10.9238 51.8684 11.1469V64.347C51.8684 64.5702 52.0536 64.7509 52.2822 64.7509H53.417C53.6456 64.7509 53.8308 64.5702 53.8308 64.347Z" fill="#E2B38E"/>
<path opacity="0.2" d="M25.1819 10.9938V64.1941C25.1819 64.4172 25.3671 64.5979 25.5957 64.5979H26.7305C26.959 64.5979 27.1443 64.4172 27.1443 64.1941V10.9938C27.1443 10.7708 26.959 10.59 26.7305 10.59H25.5957C25.3671 10.59 25.1819 10.7708 25.1819 10.9938Z" fill="#E2B38E"/>
<path opacity="0.2" d="M78.7129 10.9938V64.1941C78.7129 64.4172 78.8981 64.5979 79.1267 64.5979H80.2615C80.4901 64.5979 80.6753 64.4172 80.6753 64.1941V10.9938C80.6753 10.7708 80.4901 10.59 80.2615 10.59H79.1267C78.8981 10.59 78.7129 10.7708 78.7129 10.9938Z" fill="#E2B38E"/>
<path opacity="0.2" d="M53.3385 65.0033H52.2037C52.0252 65.0033 51.8545 64.9341 51.7283 64.8109C51.6021 64.6878 51.5312 64.5212 51.5312 64.347V11.1469C51.5312 10.9728 51.6021 10.8059 51.7283 10.6828C51.8545 10.5597 52.0252 10.4906 52.2037 10.4906H53.3385C53.5169 10.4906 53.6876 10.5597 53.8138 10.6828C53.94 10.8059 54.0109 10.9728 54.0109 11.1469V64.347C54.0109 64.5212 53.94 64.6878 53.8138 64.8109C53.6876 64.9341 53.5169 65.0033 53.3385 65.0033ZM52.2042 10.9954C52.1628 10.9954 52.1235 11.0114 52.0945 11.0397C52.0656 11.0682 52.049 11.1067 52.049 11.1469V64.347C52.049 64.3869 52.0656 64.4258 52.0945 64.454C52.1235 64.4823 52.1628 64.4985 52.2042 64.4985H53.339C53.3804 64.4985 53.4197 64.4823 53.4487 64.454C53.4776 64.4258 53.4942 64.3869 53.4942 64.347V11.1469C53.4942 11.1067 53.4776 11.0682 53.4487 11.0397C53.4197 11.0114 53.3804 10.9954 53.339 10.9954H52.2042Z" fill="#385868"/>
<path opacity="0.2" d="M26.6515 64.8504H25.5171C25.3388 64.8504 25.1677 64.7812 25.0416 64.658C24.9155 64.5349 24.8447 64.3683 24.8447 64.1941V10.9939C24.8447 10.8198 24.9155 10.6529 25.0416 10.5298C25.1677 10.4067 25.3388 10.3376 25.5171 10.3376H26.652C26.8303 10.3376 27.0013 10.4067 27.1274 10.5298C27.2535 10.6529 27.3244 10.8198 27.3244 10.9939V64.1941C27.3244 64.2804 27.307 64.3657 27.2731 64.445C27.2393 64.5248 27.1897 64.5975 27.1272 64.658C27.0647 64.7191 26.9906 64.7676 26.9089 64.8004C26.8273 64.8332 26.7398 64.8504 26.6515 64.8504ZM25.5171 10.8424C25.476 10.8424 25.4365 10.8584 25.4074 10.8868C25.3783 10.9152 25.362 10.9537 25.362 10.9939V64.1941C25.362 64.234 25.3783 64.2728 25.4074 64.3011C25.4365 64.3294 25.476 64.3455 25.5171 64.3455H26.652C26.6931 64.3455 26.7326 64.3294 26.7617 64.3011C26.7908 64.2728 26.8071 64.234 26.8071 64.1941V10.9939C26.8071 10.9537 26.7908 10.9152 26.7617 10.8868C26.7326 10.8584 26.6931 10.8424 26.652 10.8424H25.5171Z" fill="#385868"/>
<path opacity="0.2" d="M80.1827 64.8504H79.0479C78.8695 64.8504 78.6988 64.7812 78.5726 64.658C78.4463 64.5349 78.3755 64.3683 78.3755 64.1941V10.9939C78.3755 10.8198 78.4463 10.6529 78.5726 10.5298C78.6988 10.4067 78.8695 10.3376 79.0479 10.3376H80.1827C80.3612 10.3376 80.5319 10.4067 80.6581 10.5298C80.7843 10.6529 80.8551 10.8198 80.8551 10.9939V64.1941C80.8551 64.3683 80.7843 64.5349 80.6581 64.658C80.5319 64.7812 80.3612 64.8504 80.1827 64.8504ZM79.0479 10.8424C79.0065 10.8424 78.9672 10.8584 78.9382 10.8868C78.9093 10.9152 78.8927 10.9537 78.8927 10.9939V64.1941C78.8927 64.234 78.9093 64.2728 78.9382 64.3011C78.9672 64.3294 79.0065 64.3455 79.0479 64.3455H80.1827C80.2241 64.3455 80.2634 64.3294 80.2924 64.3011C80.3213 64.2728 80.3379 64.234 80.3379 64.1941V10.9939C80.3379 10.9537 80.3213 10.9152 80.2924 10.8868C80.2634 10.8584 80.2241 10.8424 80.1827 10.8424H79.0479Z" fill="#385868"/>
<path opacity="0.2" d="M80.732 9.13409H25.2827C25.0542 9.13409 24.8689 9.31487 24.8689 9.53795V10.6455C24.8689 10.8686 25.0542 11.0494 25.2827 11.0494H80.732C80.9606 11.0494 81.1458 10.8686 81.1458 10.6455V9.53795C81.1458 9.31487 80.9606 9.13409 80.732 9.13409Z" fill="#E2B38E"/>
<path opacity="0.2" d="M80.6524 11.3018H25.2042C25.0258 11.3018 24.8548 11.2327 24.7287 11.1096C24.6025 10.9865 24.5317 10.8196 24.5317 10.6456V9.53798C24.5317 9.36392 24.6025 9.19697 24.7287 9.0739C24.8548 8.95082 25.0258 8.88171 25.2042 8.88171H80.6524C80.8309 8.88171 81.0016 8.95082 81.1278 9.0739C81.254 9.19697 81.3248 9.36392 81.3248 9.53798V10.6456C81.3248 10.8196 81.254 10.9865 81.1278 11.1096C81.0016 11.2327 80.8309 11.3018 80.6524 11.3018ZM25.2042 9.38654C25.163 9.38654 25.1235 9.40249 25.0944 9.43086C25.0653 9.45928 25.049 9.4978 25.049 9.53798V10.6456C25.049 10.6857 25.0653 10.7242 25.0944 10.7526C25.1235 10.781 25.163 10.797 25.2042 10.797H80.6524C80.6938 10.797 80.7331 10.781 80.7621 10.7526C80.791 10.7242 80.8076 10.6857 80.8076 10.6456V9.53798C80.8076 9.4978 80.791 9.45928 80.7621 9.43086C80.7331 9.40249 80.6938 9.38654 80.6524 9.38654H25.2042Z" fill="#385868"/>
<path opacity="0.2" d="M80.732 63.2188H25.2827C25.0542 63.2188 24.8689 63.3995 24.8689 63.6226V64.7302C24.8689 64.9533 25.0542 65.134 25.2827 65.134H80.732C80.9606 65.134 81.1458 64.9533 81.1458 64.7302V63.6226C81.1458 63.3995 80.9606 63.2188 80.732 63.2188Z" fill="#E2B38E"/>
<path opacity="0.2" d="M80.6524 65.3865H25.2042C25.0258 65.3865 24.8548 65.3173 24.7287 65.1941C24.6025 65.071 24.5317 64.9039 24.5317 64.7302V63.6226C24.5317 63.4485 24.6025 63.2814 24.7287 63.1582C24.8548 63.0355 25.0258 62.9664 25.2042 62.9664H80.6524C80.8309 62.9664 81.0016 63.0355 81.1278 63.1582C81.254 63.2814 81.3248 63.4485 81.3248 63.6226V64.7302C81.3248 64.9039 81.254 65.071 81.1278 65.1941C81.0016 65.3173 80.8309 65.3865 80.6524 65.3865ZM25.2042 63.4712C25.163 63.4712 25.1235 63.4868 25.0944 63.5156C25.0653 63.5439 25.049 63.5823 25.049 63.6226V64.7302C25.049 64.7701 25.0653 64.809 25.0944 64.8372C25.1235 64.8655 25.163 64.8817 25.2042 64.8817H80.6524C80.6938 64.8817 80.7331 64.8655 80.7621 64.8372C80.791 64.809 80.8076 64.7701 80.8076 64.7302V63.6226C80.8076 63.5823 80.791 63.5439 80.7621 63.5156C80.7331 63.4868 80.6938 63.4712 80.6524 63.4712H25.2042Z" fill="#385868"/>
<path opacity="0.2" d="M80.732 36.4061H25.2827C25.0542 36.4061 24.8689 36.5869 24.8689 36.8099V37.9175C24.8689 38.1405 25.0542 38.3214 25.2827 38.3214H80.732C80.9606 38.3214 81.1458 38.1405 81.1458 37.9175V36.8099C81.1458 36.5869 80.9606 36.4061 80.732 36.4061Z" fill="#E2B38E"/>
<path opacity="0.2" d="M80.6524 38.5738H25.2042C25.0258 38.5738 24.8548 38.5046 24.7287 38.3816C24.6025 38.2585 24.5317 38.0916 24.5317 37.9175V36.81C24.5317 36.6359 24.6025 36.469 24.7287 36.3459C24.8548 36.2228 25.0258 36.1537 25.2042 36.1537H80.6524C80.8309 36.1537 81.0016 36.2228 81.1278 36.3459C81.254 36.469 81.3248 36.6359 81.3248 36.81V37.9175C81.3248 38.0916 81.254 38.2585 81.1278 38.3816C81.0016 38.5046 80.8309 38.5738 80.6524 38.5738ZM25.2042 36.6585C25.163 36.6585 25.1235 36.6745 25.0944 36.7029C25.0653 36.7313 25.049 36.7698 25.049 36.81V37.9175C25.049 37.9577 25.0653 37.9962 25.0944 38.0246C25.1235 38.053 25.163 38.069 25.2042 38.069H80.6524C80.6938 38.069 80.7331 38.053 80.7621 38.0246C80.791 37.9962 80.8076 37.9577 80.8076 37.9175V36.81C80.8076 36.7698 80.791 36.7313 80.7621 36.7029C80.7331 36.6745 80.6938 36.6585 80.6524 36.6585H25.2042Z" fill="#385868"/>
</g>
<g opacity="0.2">
<path opacity="0.2" d="M7.82983 53.0138V53.4177H14.2436V53.0138H7.82983Z" fill="#385868"/>
<path opacity="0.2" d="M16.2083 54.7206L16.2063 55.1244L22.62 55.1547L22.6221 54.7509L16.2083 54.7206Z" fill="#385868"/>
<path opacity="0.2" d="M8.20858 57.8298L8.17139 61.4594L8.58518 61.4635L8.62237 57.8338L8.20858 57.8298Z" fill="#385868"/>
<path opacity="0.2" d="M16.9273 51.3342L16.8901 54.9639L17.3039 54.9679L17.3411 51.3383L16.9273 51.3342Z" fill="#385868"/>
<path opacity="0.2" d="M11.2262 56.2572H19.2833C19.8192 56.2572 20.2536 55.8332 20.2536 55.3102V54.4076C20.2536 53.8846 19.8192 53.4605 19.2833 53.4605H11.2262C10.6903 53.4605 10.2559 53.8846 10.2559 54.4076V55.3102C10.2559 55.8332 10.6903 56.2572 11.2262 56.2572Z" fill="#F2F2F2"/>
<path opacity="0.2" d="M19.2833 56.4597H11.2241C10.912 56.4592 10.6128 56.338 10.3921 56.1225C10.1714 55.9074 10.0473 55.6151 10.0469 55.3107V54.4086C10.047 54.1037 10.1711 53.8114 10.3918 53.5958C10.6125 53.3803 10.9118 53.2591 11.2241 53.2586H19.2833C19.5954 53.2591 19.8945 53.3803 20.1152 53.5958C20.3359 53.8109 20.4601 54.1032 20.4605 54.4076V55.3097C20.4603 55.6146 20.3363 55.9069 20.1156 56.1225C19.8949 56.338 19.5955 56.4592 19.2833 56.4597ZM11.2241 53.6625C11.0217 53.663 10.8277 53.7412 10.6846 53.881C10.5415 54.0209 10.4609 54.2102 10.4607 54.4076V55.3097C10.4607 55.5076 10.541 55.6969 10.6842 55.8367C10.8273 55.9771 11.0215 56.0553 11.2241 56.0558H19.2833C19.4857 56.0553 19.6797 55.9771 19.8228 55.8372C19.9659 55.6974 20.0464 55.5081 20.0467 55.3107V54.4086C20.0467 54.2107 19.9663 54.0214 19.8232 53.8816C19.68 53.7412 19.4858 53.663 19.2833 53.6625H11.2241Z" fill="#385868"/>
<path opacity="0.2" d="M4.34876 59.054H12.4058C12.9418 59.054 13.3762 58.6299 13.3762 58.1069V57.2043C13.3762 56.6813 12.9418 56.2573 12.4058 56.2573H4.34876C3.81285 56.2573 3.37842 56.6813 3.37842 57.2043V58.1069C3.37842 58.6299 3.81285 59.054 4.34876 59.054Z" fill="#F2F2F2"/>
<path opacity="0.2" d="M12.406 59.2564H4.34939C4.19459 59.2559 4.04133 59.2261 3.89837 59.1681C3.7554 59.1105 3.62553 59.0257 3.51616 58.9187C3.40679 58.8117 3.32008 58.685 3.26097 58.5451C3.20185 58.4053 3.1715 58.2559 3.17163 58.1049V57.2028C3.17205 56.8979 3.2962 56.6061 3.5169 56.3906C3.73758 56.1755 4.03677 56.0543 4.34887 56.0538H12.406C12.7181 56.0543 13.0172 56.1755 13.2379 56.3906C13.4586 56.6061 13.5828 56.8979 13.5832 57.2028V58.1049C13.5835 58.4098 13.4596 58.7026 13.2388 58.9182C13.0181 59.1343 12.7185 59.2559 12.406 59.2564ZM4.34939 56.4597C4.147 56.4597 3.95297 56.5385 3.80986 56.6783C3.66674 56.8176 3.58622 57.0069 3.58594 57.2048V58.1049C3.58622 58.3023 3.66674 58.4916 3.80986 58.6315C3.95297 58.7713 4.147 58.8495 4.34939 58.85H12.406C12.6083 58.8495 12.8024 58.7713 12.9455 58.6315C13.0886 58.4916 13.1691 58.3023 13.1694 58.1049V57.2028C13.1691 57.0049 13.0886 56.8156 12.9455 56.6763C12.8024 56.5364 12.6083 56.4577 12.406 56.4577L4.34939 56.4597Z" fill="#385868"/>
</g>
<g opacity="0.2">
<path opacity="0.2" d="M4.67334 11.2595V11.6633H11.0871V11.2595H4.67334Z" fill="#385868"/>
<path opacity="0.2" d="M13.0367 12.7607L13.0347 13.1645L19.4484 13.1951L19.4504 12.7913L13.0367 12.7607Z" fill="#385868"/>
<path opacity="0.2" d="M5.02889 15.8L4.9917 19.4297L5.40548 19.4338L5.44267 15.8041L5.02889 15.8Z" fill="#385868"/>
<path opacity="0.2" d="M13.7489 9.30536L13.7117 12.935L14.1255 12.9391L14.1627 9.3094L13.7489 9.30536Z" fill="#385868"/>
<path opacity="0.2" d="M8.05457 14.2996H16.1116C16.6476 14.2996 17.082 13.8756 17.082 13.3526V12.45C17.082 11.9269 16.6476 11.5029 16.1116 11.5029H8.05457C7.51866 11.5029 7.08423 11.9269 7.08423 12.45V13.3526C7.08423 13.8756 7.51866 14.2996 8.05457 14.2996Z" fill="#F2F2F2"/>
<path opacity="0.2" d="M16.1111 14.5009H8.05508C7.74324 14.5001 7.44448 14.3788 7.22408 14.1634C7.00374 13.9481 6.87981 13.6563 6.87939 13.3519V12.4498C6.87981 12.1452 7.00395 11.8532 7.22465 11.6378C7.44536 11.4225 7.74453 11.3012 8.05664 11.3008H16.1111C16.4232 11.3012 16.7224 11.4225 16.9431 11.6378C17.1638 11.8532 17.2879 12.1452 17.2884 12.4498V13.3519C17.2879 13.6565 17.1638 13.9486 16.9431 14.1639C16.7224 14.3793 16.4232 14.5005 16.1111 14.5009ZM8.05457 11.7042C7.85243 11.705 7.65888 11.7839 7.51617 11.9236C7.37352 12.0634 7.29334 12.2526 7.29319 12.4498V13.3519C7.29345 13.5495 7.37398 13.7389 7.5171 13.8785C7.66022 14.0182 7.85424 14.0968 8.05664 14.097H16.1111C16.3135 14.0968 16.5075 14.0182 16.6507 13.8785C16.7938 13.7389 16.8743 13.5495 16.8746 13.3519V12.4498C16.8743 12.2523 16.7938 12.0629 16.6507 11.9232C16.5075 11.7836 16.3135 11.705 16.1111 11.7047L8.05457 11.7042Z" fill="#385868"/>
<path opacity="0.2" d="M1.17713 17.0957H9.2342C9.77011 17.0957 10.2045 16.6717 10.2045 16.1486V15.246C10.2045 14.723 9.77011 14.299 9.2342 14.299H1.17713C0.641226 14.299 0.206787 14.723 0.206787 15.246V16.1486C0.206787 16.6717 0.641226 17.0957 1.17713 17.0957Z" fill="#F2F2F2"/>
<path opacity="0.2" d="M9.23379 17.2981H1.17724C0.865055 17.2977 0.565779 17.1765 0.345077 16.961C0.124375 16.7454 0.000273699 16.4533 0 16.1486V15.2455C0.000410565 14.9409 0.124573 14.6489 0.34526 14.4335C0.565945 14.2181 0.865143 14.0969 1.17724 14.0965H9.23379C9.546 14.0968 9.84533 14.2179 10.0661 14.4333C10.2869 14.6487 10.4111 14.9408 10.4116 15.2455V16.1476C10.4116 16.4525 10.2875 16.745 10.0667 16.9608C9.84579 17.1765 9.54626 17.2978 9.23379 17.2981ZM1.17724 14.5009C0.974938 14.5012 0.780988 14.5797 0.637888 14.7192C0.494786 14.8588 0.414204 15.048 0.413793 15.2455V16.1476C0.414067 16.3451 0.494589 16.5345 0.637702 16.6742C0.780817 16.8138 0.974845 16.8924 1.17724 16.8927H9.23379C9.43619 16.8924 9.63021 16.8138 9.77333 16.6742C9.91645 16.5345 9.99698 16.3451 9.99724 16.1476V15.2455C9.99698 15.0479 9.91645 14.8586 9.77333 14.7189C9.63021 14.5792 9.43619 14.5007 9.23379 14.5004L1.17724 14.5009Z" fill="#385868"/>
</g>
<g opacity="0.2">
<path opacity="0.2" d="M90.243 54.9185L90.241 55.3223L96.6553 55.3526L96.6568 54.9487L90.243 54.9185Z" fill="#385868"/>
<path opacity="0.2" d="M98.566 56.3784L98.564 56.7823L104.978 56.8126L104.98 56.4087L98.566 56.3784Z" fill="#385868"/>
<path opacity="0.2" d="M90.7045 59.4881L90.6672 63.1178L91.081 63.1218L91.1183 59.4921L90.7045 59.4881Z" fill="#385868"/>
<path opacity="0.2" d="M99.423 52.9936L99.3862 56.6233L99.8 56.6273L99.8368 52.9976L99.423 52.9936Z" fill="#385868"/>
<path opacity="0.2" d="M93.5824 57.9156H101.639C102.175 57.9156 102.61 57.4916 102.61 56.9686V56.0659C102.61 55.5429 102.175 55.1189 101.639 55.1189H93.5824C93.0465 55.1189 92.6121 55.5429 92.6121 56.0659V56.9686C92.6121 57.4916 93.0465 57.9156 93.5824 57.9156Z" fill="#F2F2F2"/>
<path opacity="0.2" d="M101.638 58.118H93.5828C93.2709 58.1175 92.9714 57.9964 92.7505 57.7808C92.5302 57.5658 92.406 57.2735 92.4055 56.9691V56.0669C92.406 55.762 92.5302 55.4702 92.7505 55.2547C92.9714 55.0396 93.2709 54.9185 93.5828 54.918H101.638C101.95 54.9185 102.249 55.0396 102.469 55.2547C102.69 55.4702 102.814 55.762 102.815 56.0669V56.9691C102.814 57.2735 102.69 57.5658 102.469 57.7808C102.249 57.9964 101.95 58.1175 101.638 58.118ZM93.5812 55.3213C93.379 55.3213 93.185 55.4001 93.0417 55.5399C92.8985 55.6792 92.8183 55.8685 92.8178 56.0664V56.9686C92.8183 57.1659 92.8985 57.3552 93.0417 57.4951C93.185 57.6349 93.379 57.7132 93.5812 57.7137H101.638C101.84 57.7132 102.034 57.6349 102.177 57.4951C102.321 57.3552 102.401 57.1659 102.401 56.9686V56.0664C102.401 55.8685 102.321 55.6792 102.177 55.5399C102.034 55.4001 101.84 55.3213 101.638 55.3213H93.5812Z" fill="#385868"/>
<path opacity="0.2" d="M86.705 60.7128H94.762C95.2979 60.7128 95.7324 60.2887 95.7324 59.7657V58.8631C95.7324 58.3401 95.2979 57.9161 94.762 57.9161H86.705C86.1691 57.9161 85.7346 58.3401 85.7346 58.8631V59.7657C85.7346 60.2887 86.1691 60.7128 86.705 60.7128Z" fill="#F2F2F2"/>
<path opacity="0.2" d="M94.7616 60.9148H86.7051C86.3932 60.9143 86.0937 60.7931 85.8728 60.5776C85.6525 60.3625 85.5283 60.0702 85.5278 59.7658V58.8622C85.5283 58.5573 85.6525 58.2655 85.8728 58.0499C86.0937 57.8349 86.3932 57.7137 86.7051 57.7132H94.7616C95.0735 57.7137 95.373 57.8349 95.5939 58.0499C95.8142 58.2655 95.9383 58.5573 95.9389 58.8622V59.7643C95.9389 60.0692 95.8147 60.3615 95.5944 60.577C95.3735 60.7931 95.074 60.9143 94.7616 60.9148ZM86.7051 58.1181C86.5028 58.1181 86.3089 58.1968 86.1656 58.3366C86.0223 58.476 85.9421 58.6658 85.9416 58.8632V59.7653C85.9421 59.9627 86.0223 60.152 86.1656 60.2918C86.3089 60.4317 86.5028 60.5099 86.7051 60.5104H94.7616C94.9639 60.5099 95.1578 60.4317 95.3011 60.2918C95.4444 60.152 95.5246 59.9627 95.5251 59.7653V58.8622C95.5246 58.6648 95.4444 58.475 95.3011 58.3356C95.1578 58.1958 94.9639 58.1171 94.7616 58.1171L86.7051 58.1181Z" fill="#385868"/>
</g>
<g opacity="0.2">
<path opacity="0.2" d="M90.2435 2.01331L90.2415 2.41716L96.6558 2.44775L96.6578 2.0439L90.2435 2.01331Z" fill="#385868"/>
<path opacity="0.2" d="M98.5655 3.47339L98.564 3.87724L104.978 3.90783L104.98 3.50398L98.5655 3.47339Z" fill="#385868"/>
<path opacity="0.2" d="M90.7018 6.49414L90.6646 10.1238L91.0783 10.1278L91.1156 6.49818L90.7018 6.49414Z" fill="#385868"/>
<path opacity="0.2" d="M99.421 -0.000671387L99.3843 3.62899L99.7981 3.63303L99.8348 0.00336718L99.421 -0.000671387Z" fill="#385868"/>
<path opacity="0.2" d="M93.5824 5.01229H101.639C102.175 5.01229 102.61 4.58828 102.61 4.06524V3.16262C102.61 2.63958 102.175 2.21558 101.639 2.21558H93.5824C93.0465 2.21558 92.6121 2.63958 92.6121 3.16262V4.06524C92.6121 4.58828 93.0465 5.01229 93.5824 5.01229Z" fill="#F2F2F2"/>
<path opacity="0.2" d="M101.638 5.21413H93.5828C93.2709 5.21373 92.9714 5.09252 92.7505 4.87715C92.5302 4.66176 92.406 4.36975 92.4055 4.06514V3.16252C92.406 2.85792 92.5302 2.56591 92.7505 2.35052C92.9714 2.13513 93.2709 2.01395 93.5828 2.01355H101.638C101.95 2.01395 102.249 2.13513 102.469 2.35052C102.69 2.56591 102.814 2.85792 102.815 3.16252V4.06464C102.814 4.36933 102.691 4.66147 102.47 4.87697C102.249 5.09247 101.95 5.21373 101.638 5.21413ZM93.5812 2.41741C93.379 2.41767 93.185 2.49626 93.0417 2.63594C92.8985 2.77562 92.8183 2.96499 92.8178 3.16252V4.06464C92.8183 4.26218 92.8985 4.45154 93.0417 4.59122C93.185 4.7309 93.379 4.80949 93.5812 4.80976H101.638C101.84 4.80949 102.034 4.7309 102.177 4.59122C102.321 4.45154 102.401 4.26218 102.401 4.06464V3.16252C102.401 2.9649 102.321 2.77541 102.177 2.63562C102.034 2.49583 101.84 2.41717 101.638 2.4169L93.5812 2.41741Z" fill="#385868"/>
<path opacity="0.2" d="M86.705 7.8085H94.762C95.2979 7.8085 95.7324 7.38451 95.7324 6.86146V5.95884C95.7324 5.43579 95.2979 5.01178 94.762 5.01178H86.705C86.1691 5.01178 85.7346 5.43579 85.7346 5.95884V6.86146C85.7346 7.38451 86.1691 7.8085 86.705 7.8085Z" fill="#F2F2F2"/>
<path opacity="0.2" d="M94.7616 8.01088H86.7051C86.3932 8.01047 86.0937 7.88932 85.8728 7.67391C85.6525 7.45855 85.5283 7.16651 85.5278 6.8619V5.95676C85.5283 5.65215 85.6525 5.36016 85.8728 5.14475C86.0937 4.92938 86.3932 4.8082 86.7051 4.8078H94.7616C95.074 4.80807 95.373 4.92919 95.5939 5.1446C95.8147 5.36001 95.9389 5.6521 95.9394 5.95676V6.85887C95.9394 7.01002 95.9094 7.1597 95.8504 7.29938C95.7909 7.43907 95.7046 7.56603 95.5949 7.67305C95.4858 7.78002 95.3559 7.86493 95.2127 7.92289C95.0699 7.98084 94.9163 8.01078 94.7616 8.01088ZM86.7051 5.21417C86.5033 5.21447 86.3094 5.29267 86.1666 5.43185C86.0233 5.57097 85.9427 5.75968 85.9416 5.95676V6.85887C85.9421 7.05641 86.0223 7.24577 86.1656 7.38545C86.3089 7.52514 86.5028 7.60374 86.7051 7.60399H94.7616C94.9639 7.60374 95.1578 7.52514 95.3011 7.38545C95.4444 7.24577 95.5246 7.05641 95.5251 6.85887V5.95676C95.5246 5.75922 95.4444 5.56986 95.3011 5.43018C95.1578 5.2905 94.9639 5.21195 94.7616 5.21164L86.7051 5.21417Z" fill="#385868"/>
</g>
<path d="M86.6782 88.4568H16.1782V88.9616H86.6782V88.4568Z" fill="#385868"/>
<path d="M94.592 88.4568H88.1265V88.9616H94.592V88.4568Z" fill="#385868"/>
<path d="M15.092 88.4568H10.592V88.9616H15.092V88.4568Z" fill="#385868"/>
<path d="M57.9658 48.3305V50.8355C57.9658 51.4993 58.2358 52.1359 58.7168 52.6054C59.1979 53.0749 59.8506 53.3389 60.5308 53.3389H63.6606C65.0712 53.3389 66.4237 53.8856 67.421 54.8589C68.4182 55.8322 68.9784 57.1523 68.9784 58.529V72.8523H41.126V58.529C41.1261 57.1523 41.6865 55.8327 42.6837 54.8594C43.6809 53.8861 45.0335 53.3394 46.4437 53.3394H49.5736C49.9104 53.3394 50.244 53.2743 50.5551 53.1486C50.8663 53.0229 51.149 52.8381 51.3872 52.6059C51.6253 52.3732 51.8143 52.097 51.943 51.7936C52.0718 51.4897 52.138 51.1641 52.138 50.8355V48.3305" fill="#FFC6AD"/>
<path d="M68.7643 58.6855V73.0093H41.126V58.6855C41.1261 57.3088 41.6865 55.9892 42.6837 55.0159C43.6809 54.0426 45.0335 53.4959 46.4437 53.4959H47.9318C48.072 54.7968 49.0087 56.0311 50.1694 56.6839C51.3482 57.3467 52.7334 57.5744 54.0922 57.6344C55.8348 57.7117 57.6193 57.5224 59.2129 56.8298C60.7258 56.1735 62.0577 54.9776 62.7162 53.4979H63.4465C64.8565 53.4979 66.2086 54.0441 67.2058 55.0169C68.2031 55.9897 68.7637 57.3093 68.7643 58.6855Z" fill="#82F0B7"/>
<path d="M68.6572 58.6855V61.1379C68.6572 59.7612 68.097 58.4411 67.0997 57.4678C66.1025 56.4946 64.7499 55.9478 63.3394 55.9478H62.6091C61.9491 57.4295 60.6187 58.6234 59.1058 59.2797C57.5122 59.9723 55.7277 60.1616 53.9851 60.0843C52.6263 60.0243 51.2411 59.7961 50.0623 59.1338C48.9011 58.481 47.9644 57.2467 47.8247 55.9458H46.3366C45.638 55.9458 44.9461 56.0796 44.3007 56.3406C43.6552 56.6016 43.0687 56.9837 42.5747 57.4663C42.0807 57.9484 41.6889 58.5209 41.4217 59.1509C41.1545 59.7809 41.0171 60.4559 41.0173 61.1379V58.6855C41.0174 58.004 41.1551 57.329 41.4224 56.699C41.6898 56.0695 42.0817 55.497 42.5756 55.0154C43.0695 54.5333 43.6559 54.1512 44.3012 53.8907C44.9466 53.6297 45.6382 53.4959 46.3366 53.4959H47.8247C47.9649 54.7968 48.9016 56.0311 50.0623 56.6839C51.2411 57.3467 52.6263 57.5744 53.9851 57.6344C55.7277 57.7117 57.5122 57.5224 59.1058 56.8298C60.6187 56.1735 61.9506 54.9776 62.6091 53.4979H63.3394C64.7494 53.4979 66.1015 54.0441 67.0987 55.0169C68.096 55.9897 68.6566 57.3093 68.6572 58.6855Z" fill="#BEF8D9"/>
<path d="M57.8587 48.6955V50.5992L57.8122 50.6103C55.9191 51.0515 53.9561 51.1323 52.0315 50.8481V48.6955H57.8587Z" fill="#E39493"/>
<path d="M57.4412 48.3306C57.4412 49.1772 57.4257 50.0247 57.4412 50.8708C57.4489 51.2954 57.5544 51.7129 57.7494 52.092C57.945 52.4716 58.2253 52.8028 58.5698 53.0623C59.1155 53.4717 59.7594 53.6418 60.4417 53.6418C61.4338 53.6418 62.4258 53.6378 63.4179 53.6418C65.0456 53.6484 66.6072 54.4066 67.5434 55.7186C68.1894 56.6238 68.4522 57.6541 68.4522 58.7476V71.0702C68.4522 71.6321 68.4067 72.2152 68.4522 72.776C68.4522 72.8018 68.4522 72.8265 68.4522 72.8548L68.7625 72.5519H42.0419C41.6901 72.5519 41.3105 72.512 40.9598 72.5519C40.9438 72.5529 40.9277 72.5529 40.9117 72.5519L41.222 72.8548V59.054C41.222 58.2791 41.2629 57.5314 41.5463 56.7919C42.1494 55.2189 43.6019 54.0502 45.2834 53.7286C45.7753 53.6347 46.2698 53.6423 46.7679 53.6423H48.6082C49.0598 53.6423 49.5227 53.6691 49.967 53.5787C50.3861 53.4898 50.7795 53.3106 51.1187 53.0547C51.4578 52.7982 51.7339 52.4716 51.9274 52.098C52.1984 51.5645 52.2346 51.0152 52.2346 50.4347V48.3306C52.2346 47.9408 51.6139 47.9403 51.6139 48.3306C51.6139 49.1772 51.6294 50.0247 51.6139 50.8708C51.6047 51.2782 51.481 51.6755 51.2564 52.0188C51.0317 52.3626 50.7147 52.6392 50.34 52.8189C49.8672 53.0466 49.3707 53.036 48.8612 53.036H47.0508C46.6117 53.036 46.1658 53.0188 45.7277 53.0592C44.8599 53.1395 44.0225 53.4131 43.2805 53.8599C42.5384 54.3061 41.9115 54.9129 41.4481 55.6338C40.845 56.5778 40.6034 57.644 40.6034 58.7455V67.8783C40.6034 69.5083 40.5641 71.1439 40.6034 72.775C40.6034 72.8013 40.6034 72.8255 40.6034 72.8538C40.6046 72.9335 40.6377 73.0103 40.6956 73.0668C40.7536 73.1234 40.8318 73.1557 40.9138 73.1567H65.3415C66.4644 73.1567 67.5951 73.196 68.7175 73.1567C68.7336 73.1567 68.7496 73.1567 68.7656 73.1567C68.8474 73.1557 68.926 73.1234 68.9839 73.0668C69.0419 73.0103 69.075 72.9335 69.076 72.8538V59.054C69.076 58.273 69.0408 57.5067 68.776 56.757C68.492 55.9584 68.025 55.2335 67.4105 54.6378C66.796 54.0416 66.0507 53.5908 65.2308 53.3182C64.0836 52.9406 62.8443 53.0365 61.6515 53.0365C61.2119 53.0365 60.7722 53.0411 60.332 53.0365C59.9513 53.0365 59.5769 52.9436 59.2427 52.7664C58.9086 52.5892 58.6251 52.3328 58.4182 52.0213C58.096 51.5251 58.0639 50.9996 58.0639 50.4352V48.3306C58.0639 47.9408 57.4432 47.9403 57.4432 48.3306H57.4412Z" fill="#385868"/>
<path d="M51.3501 18.9548C51.7184 19.9645 52.833 20.4996 53.8747 20.8363C55.7549 21.4428 57.7266 21.7358 59.7066 21.7031C61.1208 21.6789 62.5515 21.49 63.9372 21.7738C65.3229 22.0575 66.6966 22.9591 66.9889 24.3095" fill="#EF7679"/>
<path d="M50.0032 14.5575C52.8371 12.5039 56.2716 11.0697 59.7997 11.1752C63.3278 11.2807 66.9061 13.1329 68.4221 16.2436C70.4658 20.4336 68.5856 25.6065 67.9168 29.9293C67.1761 34.7304 67.2904 39.6202 68.254 44.3834C68.6994 46.5788 69.3454 48.7879 70.5475 50.7123C70.8356 51.1737 71.3818 51.6487 71.5918 52.1319C71.8592 52.7472 71.6435 52.7679 70.9044 52.9694C69.8042 53.2687 68.6094 53.1375 67.4906 53.0577C66.2461 52.9694 64.9892 52.8664 63.8027 52.4913C61.8371 51.8699 59.8199 50.1499 60.1628 47.9257" fill="#EF7679"/>
<path d="M71.0649 52.9684C69.9647 53.2677 68.7699 53.1365 67.6511 53.0572C66.4066 52.9684 65.1497 52.8659 63.9632 52.4908C61.9977 51.8689 59.9804 50.1494 60.3228 47.9252L59.6846 45.8378C60.7578 47.8066 62.8154 49.2837 65.0535 49.8874C66.7744 50.3519 68.5749 50.3675 70.3434 50.0894C70.4587 50.3 70.5808 50.5079 70.7085 50.7128C70.9966 51.1742 71.5428 51.6488 71.7523 52.1319C72.0203 52.7468 71.8046 52.7669 71.0649 52.9684Z" fill="#DB6A72"/>
<path d="M47.3793 27.5127C50.3628 27.2098 49.6309 23.4908 50.7931 20.792C51.5369 19.0645 51.7888 16.9351 50.6581 15.4202C49.0133 13.2161 45.7164 12.7234 43.2041 13.6003C39.7759 14.7967 39.1402 18.3456 39.0021 21.523C38.8717 24.516 39.556 27.4682 40.3774 30.3321C40.859 32.0056 41.1564 33.722 41.4181 35.4384C41.9705 39.0655 42.3605 42.8087 41.4476 46.3652C40.5347 49.9217 38.0809 53.2995 34.5088 54.4364C37.4571 54.8882 40.5895 54.7009 43.2409 53.3662C45.8922 52.0314 47.9669 49.4138 48.0915 46.5045" fill="#EF7679"/>
<path d="M42.8663 51.8552C40.9463 52.822 38.7734 53.1859 36.602 53.1425C35.8522 53.6817 35.0195 54.1017 34.1348 54.3864C37.083 54.8382 40.2155 54.6509 42.8668 53.3162C45.5182 51.9814 47.5929 49.3638 47.7175 46.4546L47.6803 45.455C47.3689 48.1775 45.377 50.5917 42.8663 51.8552Z" fill="#DB6A72"/>
<path d="M63.4246 21.5811C64.155 22.83 64.5564 24.2239 64.5388 25.8246C64.5139 28.1039 63.6781 30.3716 64.0733 32.5852C64.1881 33.2268 64.4022 33.8261 64.5672 34.447C65.5448 38.1221 64.6608 42.458 62.6845 45.28C60.7081 48.1019 57.7914 49.4816 54.9377 49.4786H54.9191C52.0655 49.4816 49.1488 48.1019 47.1724 45.28C45.196 42.458 44.312 38.1221 45.2896 34.447C45.4546 33.8261 45.6688 33.2273 45.7836 32.5852C46.1793 30.3711 45.3434 28.1034 45.3181 25.8246C45.301 24.2244 45.7019 22.6216 46.4322 21.3726L48.2876 18.5911L53.58 17.0766L56.8386 17.7026" fill="#FFC6AD"/>
<path d="M62.6856 43.6625C60.7092 46.4845 57.7925 47.8641 54.9389 47.8611H54.9202C52.0666 47.8641 49.1499 46.4845 47.1735 43.6625C45.8628 41.7906 45.0332 39.2524 44.908 36.6833C44.7528 39.6951 45.6321 42.8179 47.1735 45.0195C49.1499 47.8414 52.0666 49.2211 54.9202 49.2181H54.9389C57.7925 49.2211 60.7092 47.8414 62.6856 45.0195C64.2275 42.8179 65.1042 39.6951 64.9511 36.6839C64.8259 39.2524 63.9963 41.7906 62.6856 43.6625Z" fill="#E39493"/>
<path d="M64.0645 22.9779C64.0578 22.9779 64.0505 22.9749 64.0438 22.9733C63.9404 22.9518 63.8359 22.933 63.7298 22.9168C62.4435 22.7174 61.1209 22.8804 59.8133 22.9027C57.4619 22.9425 53.3478 22.8825 51.9036 20.7052C53.3059 22.8158 46.693 26.4056 45.3347 27.128L45.2312 26.182C45.2204 26.081 45.2116 25.976 45.2669 25.8927C45.3186 25.8291 45.3874 25.7807 45.4655 25.7529C47.8174 24.6695 49.53 23.1041 50.5826 20.74C50.5893 20.7244 50.5961 20.7087 50.6023 20.6931C50.6323 20.6224 50.6617 20.5512 50.6892 20.479L50.6938 20.4679C50.9467 19.8834 51.1292 19.2721 51.2374 18.6465L51.5633 19.7177C51.5783 19.5663 51.5876 19.4118 51.5912 19.2604V19.2467C51.5943 19.0822 51.5912 18.9186 51.5783 18.7561C51.5522 18.3662 51.4741 17.9813 51.3461 17.6111V17.3734L52.4204 17.0659C52.3407 17.4991 52.1897 17.9559 52.3567 18.3648C52.5435 18.8222 53.0592 19.0514 53.5335 19.22C56.009 20.0989 58.6278 20.529 61.2616 20.4891C61.4954 20.4856 61.7297 20.478 61.9645 20.4699L63.3192 21.2681C63.3414 21.3064 63.3642 21.3458 63.3859 21.3852L63.3657 21.3821C63.3952 21.4326 63.4236 21.4831 63.4516 21.5336C63.7024 21.9948 63.9078 22.4785 64.0645 22.9779Z" fill="#E39493"/>
<path d="M51.4568 19.1114C51.8251 20.121 52.9398 20.6561 53.9815 20.9928C55.8617 21.5991 57.8334 21.8918 59.8134 21.8586C61.2275 21.8344 62.6582 21.6456 64.0439 21.9293C65.4296 22.213 66.8034 23.1146 67.0956 24.465L68.1756 16.5029L51.4429 15.668L51.4568 19.1114Z" fill="#EF7679"/>
<path d="M69.3016 53.41C68.7988 53.41 68.295 53.3722 67.8016 53.3348L67.4716 53.3106C66.1159 53.2142 64.8983 53.1041 63.7226 52.7326C62.6364 52.3898 61.618 51.7502 60.9228 50.9773C60.09 50.0519 59.7383 48.9837 59.9064 47.8893L60.418 47.964C60.2354 49.1554 60.8028 50.0792 61.3112 50.6441C61.9469 51.3509 62.8837 51.937 63.8819 52.2525C65.0023 52.6059 66.1878 52.7134 67.5094 52.8078L67.8414 52.8325C68.848 52.9083 69.8887 52.984 70.8378 52.728L70.949 52.6983C71.159 52.6417 71.3964 52.5776 71.4461 52.5296C71.4461 52.5125 71.4461 52.4408 71.3566 52.2328C71.249 51.9854 71.023 51.7189 70.8042 51.4609C70.6314 51.2671 70.4726 51.0616 70.3293 50.8466C69.6771 49.8025 68.7259 48.0018 68.0018 44.4353C67.0278 39.6447 66.913 34.7254 67.6625 29.8964C67.8088 28.9489 68.009 27.9827 68.2206 26.9589C68.9731 23.3216 69.7511 19.5607 68.1895 16.3576C67.4876 14.9174 66.2933 13.6891 64.7364 12.8057C63.2292 11.9584 61.5316 11.4846 59.7931 11.426C55.7938 11.3069 52.3449 13.1742 50.1585 14.7579L49.8481 14.354C52.1028 12.7204 55.6604 10.7995 59.8071 10.9212C61.6319 10.9743 63.4149 11.4694 64.995 12.362C66.6425 13.2969 67.9081 14.6009 68.6556 16.1335C69.3895 17.6389 69.6931 19.3987 69.5866 21.5139C69.4919 23.3625 69.1035 25.2384 68.7285 27.0528C68.518 28.07 68.3194 29.0307 68.1745 29.9656C67.4338 34.7376 67.5471 39.5987 68.5097 44.3328C69.2173 47.8206 70.1385 49.5683 70.7706 50.5795C70.9014 50.7739 71.0452 50.9596 71.2019 51.1348C71.4445 51.4205 71.6949 51.7164 71.8319 52.0314C71.9354 52.2737 72.0197 52.5276 71.9116 52.7457C71.79 52.991 71.5097 53.0668 71.084 53.1809L70.9744 53.2106C70.4266 53.3596 69.8649 53.41 69.3016 53.41Z" fill="#385868"/>
<path d="M54.9492 49.7636H54.9099C51.7754 49.7636 48.8783 48.1936 46.9604 45.455C44.8552 42.4498 44.084 38.0129 45.0404 34.4165C45.0957 34.2075 45.1573 33.9996 45.2173 33.7981C45.3444 33.3963 45.4488 32.9879 45.5302 32.5749C45.7609 31.2851 45.5623 29.9887 45.3518 28.6166C45.2142 27.7176 45.0714 26.7877 45.0616 25.8603C45.0435 24.2035 45.4516 22.579 46.2099 21.2806L46.6593 21.533C45.9559 22.7355 45.5623 24.3095 45.5793 25.8573C45.5892 26.7498 45.7288 27.662 45.8638 28.5445C46.0707 29.8964 46.2854 31.2937 46.0402 32.6643C45.9556 33.0951 45.847 33.5212 45.7149 33.9405C45.6564 34.1384 45.5959 34.3443 45.5421 34.5463C44.6209 38.0104 45.3626 42.2811 47.3881 45.1733C49.2083 47.7721 51.9502 49.2623 54.9109 49.2623H54.9497C57.9114 49.2623 60.6528 47.7726 62.473 45.1733C64.4985 42.2811 65.2407 38.0104 64.319 34.5463C64.2673 34.3443 64.2047 34.1389 64.1462 33.9405C64.0143 33.5211 63.9057 33.0951 63.8209 32.6643C63.5757 31.2942 63.7904 29.8964 63.9973 28.5445C64.1323 27.662 64.2724 26.7498 64.2818 25.8573C64.2978 24.3585 63.9445 23.0121 63.2012 21.742L63.6507 21.4896C64.4405 22.84 64.8161 24.2696 64.799 25.8608C64.7892 26.7882 64.6464 27.7181 64.5088 28.6171C64.2983 29.9893 64.0997 31.2856 64.3304 32.5754C64.4116 32.9884 64.5161 33.3968 64.6433 33.7986C64.7028 34.0006 64.7643 34.208 64.8202 34.417C65.7771 38.0139 65.0054 42.4503 62.9007 45.456C60.9828 48.1936 58.0862 49.7636 54.9492 49.7636Z" fill="#385868"/>
<path d="M50.6897 21.0509C49.633 23.5043 47.4973 25.6498 44.8754 26.245C44.6397 26.2989 44.401 26.3395 44.1606 26.3667C43.2233 25.4363 41.5314 23.5649 41.609 22.2413C41.7161 20.4153 44.8676 17.4934 45.6182 16.45C45.9621 15.9704 46.3625 14.731 46.6951 13.5306C46.7732 13.5422 46.8502 13.5553 46.9283 13.5689C48.359 13.8294 49.6868 14.516 50.5547 15.6791C51.6828 17.1961 51.432 19.3254 50.6897 21.0509Z" fill="#EF7679"/>
<path d="M37.3226 54.9109C36.3669 54.9084 35.4129 54.8337 34.469 54.6878L33.4045 54.5247L34.4292 54.1986C37.6149 53.1844 40.2083 50.1599 41.1973 46.3061C42.132 42.6633 41.6695 38.8065 41.1626 35.4777C40.9133 33.841 40.6159 32.0954 40.1282 30.4002C39.3311 27.6136 38.6106 24.6104 38.7451 21.5123C38.8811 18.3824 39.5018 14.625 43.1183 13.3624C44.4657 12.8999 45.9183 12.8125 47.3137 13.11C48.8261 13.4356 50.0551 14.1833 50.8687 15.2732C51.4294 16.0249 51.7051 16.9527 51.6885 18.0315C51.6745 18.9402 51.4475 19.9282 51.0332 20.8914C50.4345 22.2951 49.513 23.5457 48.3399 24.5463C47.0985 25.5917 45.6704 26.2218 44.2076 26.3697L44.1559 25.8673C46.8068 25.5998 49.3195 23.5699 50.5578 20.696C50.9473 19.7919 51.1599 18.868 51.1733 18.0245C51.1883 17.0572 50.9457 16.2319 50.4528 15.5705C49.7152 14.5821 48.5907 13.9016 47.2045 13.6017C45.9035 13.3246 44.5492 13.4064 43.2932 13.838C41.8056 14.3569 40.7649 15.3636 40.1106 16.9144C39.464 18.448 39.3166 20.2851 39.2623 21.534C39.1304 24.5629 39.8411 27.5192 40.6283 30.2644C41.1218 31.9843 41.4228 33.7507 41.6742 35.4035C42.1883 38.7807 42.657 42.6961 41.699 46.4288C40.768 50.0635 38.4502 52.9966 35.5361 54.3147C37.7251 54.5353 40.559 54.4349 43.1225 53.144C45.8701 51.7608 47.7192 49.1513 47.8335 46.4964L48.3507 46.5176C48.2292 49.3506 46.2704 52.1278 43.3604 53.5928C41.3649 54.5969 39.2225 54.9109 37.3226 54.9109Z" fill="#385868"/>
<path d="M66.7361 24.361C66.4418 23.0045 65.0158 22.2524 63.884 22.0201C62.8904 21.8182 61.8373 21.8662 60.8189 21.9141C60.4568 21.9313 60.0813 21.949 59.7114 21.955C57.702 21.9899 55.7008 21.6925 53.7932 21.0756C52.3102 20.5965 51.4314 19.9307 51.1035 19.0397L51.5908 18.8701C51.8628 19.6152 52.6133 20.1639 53.9535 20.5965C55.8058 21.1955 57.7485 21.4843 59.6995 21.4507C60.0616 21.4446 60.4325 21.427 60.7909 21.4103C61.842 21.3598 62.9287 21.3094 63.9875 21.5269C64.7313 21.6766 65.4301 21.9904 66.0306 22.4442C66.6725 22.9424 67.0904 23.5694 67.2394 24.257L66.7361 24.361Z" fill="#385868"/>
<path d="M49.9763 29.9126C49.9908 29.3946 50.4066 28.9635 50.9487 28.9635C51.4908 28.9635 51.9072 29.3946 51.9211 29.9126C51.932 30.3018 52.5527 30.3033 52.5418 29.9126C52.5185 29.0675 51.8327 28.3577 50.9487 28.3577C50.0647 28.3577 49.3789 29.068 49.3556 29.9126C49.3447 30.3023 49.9654 30.3023 49.9763 29.9126Z" fill="#385868"/>
<path d="M57.407 29.9126C57.4214 29.3946 57.8373 28.9635 58.3794 28.9635C58.9214 28.9635 59.3378 29.3946 59.3518 29.9126C59.3627 30.3018 59.9833 30.3033 59.9725 29.9126C59.9492 29.0675 59.2633 28.3577 58.3794 28.3577C57.4954 28.3577 56.8095 29.068 56.7863 29.9126C56.7754 30.3023 57.3961 30.3023 57.407 29.9126Z" fill="#385868"/>
<path d="M55.6372 35.4428C55.6227 35.9608 55.2068 36.3919 54.6648 36.3919C54.1227 36.3919 53.7063 35.9608 53.6924 35.4428C53.6815 35.0536 53.0608 35.0521 53.0717 35.4428C53.0949 36.2879 53.7808 36.9977 54.6648 36.9977C55.5487 36.9977 56.2346 36.2874 56.2579 35.4428C56.2687 35.0531 55.6481 35.0531 55.6372 35.4428Z" fill="#385868"/>
<path d="M68.323 19.3223C68.2382 18.2733 67.7768 17.2798 67.1566 16.4191C65.6049 14.2635 63.0363 12.8854 60.357 12.5613C57.6776 12.2372 54.9171 12.9258 52.6087 14.2918C52.4597 14.3802 52.303 14.4816 52.2399 14.6406C52.1602 14.8426 52.2549 15.0637 52.3325 15.2656C52.589 15.94 52.6557 16.6691 52.5264 17.3773C52.4463 17.8109 52.2952 18.2688 52.4623 18.6782C52.649 19.1356 53.1647 19.3653 53.639 19.5339C56.1145 20.4126 58.7333 20.8425 61.3671 20.8025C62.6147 20.7828 63.8814 20.6596 65.0964 20.9347C66.3114 21.2099 67.5032 21.9913 67.827 23.1676C68.022 23.0363 68.1802 22.8601 68.2883 22.6546C68.397 22.4492 68.4513 22.2208 68.4476 21.9898" fill="#DB6A72"/>
<path d="M40.0665 25.402C39.4524 22.9928 39.5203 20.4661 40.263 18.0916C40.5734 17.1067 41.0208 16.1228 41.8091 15.4388C42.5973 14.7548 43.6463 14.4342 44.6911 14.3332C45.496 14.256 46.323 14.3024 47.086 14.5634C49.0939 15.25 50.3487 17.4445 50.1496 19.5107C49.9504 21.5769 48.4603 23.4135 46.5516 24.3292C45.5301 24.8194 44.4035 25.0728 43.3784 25.5559C42.3532 26.039 41.3849 26.8361 41.1428 27.922" fill="#DB6A72"/>
<path d="M64.608 13.5321C64.9313 13.7538 65.2385 13.9974 65.5272 14.261C65.7935 14.5086 66.0439 14.7715 66.2777 15.0486C66.6692 15.5193 67.0054 16.032 67.2785 16.5767C67.3939 16.8089 67.4854 17.0244 67.5594 17.2158C67.5946 17.3122 67.6272 17.4015 67.6556 17.4848L67.7239 17.715L67.7508 17.813L67.7699 17.9003C67.7813 17.9548 67.7896 18.0013 67.7953 18.0386C67.8066 18.1138 67.8061 18.1552 67.7953 18.1588C67.7844 18.1623 67.757 18.129 67.7213 18.0618C67.7037 18.0285 67.683 17.9866 67.6603 17.9366L67.6241 17.8564L67.5806 17.7655L67.4818 17.552L67.3582 17.2996C67.2677 17.1209 67.1606 16.9199 67.0334 16.7034C66.7349 16.1971 66.3889 15.7193 65.9989 15.2762C65.7672 15.0179 65.5215 14.7718 65.2634 14.5387C64.9846 14.2908 64.6897 14.0603 64.3809 13.8486C64.0711 13.6364 63.7478 13.4432 63.4137 13.2701L63.2932 13.206L63.1716 13.1469C63.0909 13.1085 63.0118 13.0676 62.9316 13.0313C62.7708 12.9606 62.6146 12.8879 62.4573 12.8294C62.1625 12.7113 61.862 12.6079 61.5568 12.5194L61.3437 12.4634C61.2739 12.4447 61.2056 12.4255 61.1368 12.4129C61.0008 12.3856 60.8715 12.3513 60.7458 12.3346C60.6201 12.318 60.5011 12.2907 60.3868 12.2842L60.2208 12.266L60.1411 12.2569L60.0641 12.2534L59.7816 12.2382C59.6953 12.2382 59.6156 12.2382 59.5437 12.2382H59.4403L59.3513 12.2433C59.2959 12.2458 59.2478 12.2473 59.2101 12.2468C59.133 12.2468 59.0906 12.2397 59.088 12.2266C59.0854 12.2135 59.1222 12.1943 59.1961 12.1701C59.2334 12.158 59.2794 12.1443 59.3347 12.1297L59.4242 12.1065L59.5277 12.0898C59.6006 12.0784 59.6823 12.0666 59.7723 12.0545C59.8623 12.0474 59.9601 12.0429 60.0661 12.0373L60.1468 12.0333H60.2301L60.4044 12.0373C60.5249 12.0373 60.6501 12.053 60.7825 12.0646C60.9149 12.0762 61.052 12.1004 61.1963 12.1211C61.2682 12.1307 61.3406 12.1468 61.4141 12.1625L61.6391 12.2105C61.9613 12.2886 62.2789 12.3854 62.5897 12.5002C62.7553 12.5578 62.9192 12.629 63.0884 12.6991C63.1722 12.735 63.2554 12.7754 63.3403 12.8142L63.4675 12.8738L63.5937 12.9384C63.9454 13.1133 64.2842 13.3117 64.608 13.5321Z" fill="white"/>
<path d="M62.9948 29.0746C62.9173 29.8076 62.9493 30.4689 63.0362 30.9394C63.0781 31.1751 63.1293 31.3629 63.1593 31.4947C63.1893 31.6264 63.2043 31.7067 63.1795 31.7188C63.1547 31.7309 63.0978 31.6729 63.0171 31.5532C62.911 31.38 62.8262 31.1954 62.7642 31.003C62.5986 30.5174 62.519 29.801 62.6002 29.0342C62.6374 28.6769 62.6959 28.3219 62.7745 27.971C62.8448 27.6495 62.9183 27.3652 62.9814 27.126C63.1123 26.6499 63.2064 26.3576 63.2607 26.3652C63.315 26.3728 63.3176 26.6847 63.2566 27.1775C63.2271 27.4238 63.1816 27.7146 63.1324 28.0356C63.0833 28.3567 63.03 28.7086 62.9948 29.0746Z" fill="white"/>
<path d="M63.2586 23.3392C63.3599 23.5899 63.4158 23.8559 63.4236 24.1253C63.4236 24.3317 63.3879 24.4594 63.3346 24.4655C63.2813 24.4716 63.2182 24.3565 63.1479 24.1747C63.0775 23.993 62.9927 23.7446 62.8893 23.4796C62.8375 23.3473 62.7817 23.2231 62.7315 23.1096L62.5908 22.8067C62.5096 22.633 62.4631 22.5134 62.5049 22.477C62.5468 22.4407 62.6694 22.5012 62.8205 22.6502C62.9079 22.738 62.9855 22.8344 63.0522 22.9379C63.1339 23.0651 63.2027 23.1995 63.2586 23.3392Z" fill="white"/>
<path d="M40.0345 24.6352C39.9762 24.0082 39.9589 23.3783 39.9828 22.7492C40.0024 22.4594 40.0149 22.1838 40.0505 21.9284C40.0666 21.8001 40.078 21.676 40.0971 21.5578L40.1561 21.2181C40.1892 21.001 40.2409 20.8087 40.2797 20.6391C40.3004 20.5542 40.318 20.475 40.3376 20.4033L40.3976 20.2079C40.4705 19.9732 40.5145 19.8455 40.5233 19.848C40.5321 19.8505 40.5047 19.9833 40.4473 20.2206L40.3986 20.4179C40.3826 20.4906 40.3692 20.5694 40.3521 20.6547C40.32 20.8248 40.2755 21.0172 40.2486 21.2332L40.1969 21.5715C40.1809 21.6891 40.1721 21.8128 40.1586 21.9395C40.1276 22.1919 40.1199 22.467 40.1033 22.7543C40.0868 23.3775 40.1073 24.0012 40.1649 24.6221C40.2295 25.2834 40.335 25.9084 40.4483 26.4733L40.5378 26.8852C40.5517 26.9523 40.5668 27.0175 40.5838 27.0816L40.6309 27.2714C40.6624 27.3956 40.6899 27.5167 40.7219 27.6313L40.8135 27.9615C40.8688 28.173 40.9299 28.3608 40.979 28.5274L41.0483 28.7591L41.1104 28.953C41.1838 29.1862 41.2205 29.3169 41.2138 29.32C41.2071 29.323 41.1523 29.1978 41.0638 28.9666L40.9909 28.7758C40.965 28.7056 40.9392 28.6289 40.9107 28.5466C40.8549 28.3815 40.7876 28.1932 40.7261 27.9842L40.6262 27.6546C40.5916 27.54 40.5616 27.4188 40.5274 27.2946L40.4757 27.1043C40.4581 27.0402 40.4416 26.9746 40.424 26.9074L40.3288 26.4945C40.1963 25.8804 40.098 25.2597 40.0345 24.6352Z" fill="#516D7B"/>
<path d="M40.5854 21.9633C40.6334 21.6232 40.7011 21.2861 40.7881 20.9536C40.8311 20.8022 40.8709 20.6553 40.9169 20.522C40.9397 20.4554 40.9593 20.3897 40.9821 20.3286L41.0488 20.1525C41.0897 20.0399 41.1352 19.9409 41.173 19.8531C41.1921 19.8097 41.2097 19.7688 41.2247 19.7319L41.2764 19.631C41.3374 19.5113 41.3752 19.4472 41.3835 19.4508C41.4031 19.4593 41.2867 19.7309 41.1362 20.1817L41.0783 20.3589C41.0581 20.4205 41.0411 20.4856 41.0209 20.5523C40.9795 20.6856 40.9443 20.8299 40.905 20.9819C40.8326 21.2848 40.7649 21.624 40.7147 21.9814C40.6645 22.3388 40.6423 22.6821 40.6309 22.9946C40.6309 23.1511 40.6236 23.2975 40.6278 23.4383C40.6278 23.508 40.6278 23.5752 40.6314 23.6403L40.6397 23.826C40.664 24.2991 40.7038 24.5914 40.6826 24.5944C40.6738 24.5944 40.6547 24.5242 40.6273 24.3925L40.6055 24.2829C40.5983 24.243 40.5926 24.1991 40.5859 24.1522C40.573 24.0583 40.5554 23.9502 40.5461 23.8316L40.529 23.6443C40.5233 23.5792 40.5218 23.511 40.5176 23.4424C40.5088 23.3015 40.5093 23.1511 40.5083 22.9931C40.514 22.6487 40.5397 22.3048 40.5854 21.9633Z" fill="#516D7B"/>
<path d="M48.1862 15.5292C48.5609 15.891 48.8865 16.2982 49.155 16.7408C49.2807 16.9427 49.3836 17.1447 49.4767 17.333C49.5698 17.5213 49.6433 17.704 49.7053 17.8716C49.8055 18.1354 49.8881 18.4052 49.9526 18.6793C49.9971 18.8737 50.0121 18.9822 50.0043 18.9822C49.9966 18.9822 49.9624 18.8813 49.9009 18.6904C49.8393 18.4996 49.7509 18.2295 49.6164 17.9029C49.5497 17.7394 49.4679 17.5637 49.3759 17.3774C49.2838 17.1911 49.1752 16.9973 49.049 16.8004C48.78 16.3712 48.4586 15.9754 48.0921 15.6216C47.9006 15.4412 47.6966 15.2737 47.4817 15.1203C47.281 14.9779 47.0705 14.849 46.8517 14.7347L46.6966 14.6559C46.6448 14.6307 46.5931 14.609 46.5414 14.5852C46.4379 14.5347 46.3371 14.5014 46.2398 14.4615C46.1426 14.4217 46.0448 14.3929 45.9512 14.3646C45.8576 14.3364 45.7676 14.3086 45.6797 14.2909C45.4038 14.2234 45.1223 14.1795 44.8386 14.1597C44.7869 14.1541 44.7435 14.1521 44.7047 14.1511L44.6064 14.1455C44.5547 14.1415 44.5247 14.1375 44.5247 14.1334C44.5247 14.1294 44.5526 14.1243 44.6059 14.1198L44.7052 14.1127C44.7503 14.1094 44.7955 14.1084 44.8407 14.1097C45.13 14.1104 45.4184 14.1415 45.7009 14.2026C45.7914 14.2182 45.8829 14.2465 45.9802 14.2697C46.0774 14.2929 46.1752 14.3283 46.2776 14.3616C46.38 14.3949 46.4845 14.4343 46.5879 14.4817C46.6397 14.5045 46.6945 14.5262 46.7478 14.5514L46.9086 14.6297C47.1343 14.7436 47.3512 14.8734 47.5578 15.0179C47.7796 15.1734 47.9896 15.3443 48.1862 15.5292Z" fill="#516D7B"/>
<path d="M48.7602 17.3537C48.9234 17.6703 49.0511 18.003 49.1414 18.3462C49.1791 18.496 49.2084 18.6477 49.2294 18.8005C49.2382 18.8727 49.2511 18.9414 49.2552 19.0085L49.2656 19.2018C49.2721 19.3123 49.2721 19.4231 49.2656 19.5335C49.2656 19.584 49.2625 19.6279 49.2588 19.6693L49.2433 19.7829C49.2237 19.9192 49.2087 19.9929 49.1994 19.9919C49.19 19.9909 49.188 19.9147 49.1921 19.7794L49.1963 19.6668C49.1963 19.6254 49.1937 19.581 49.1921 19.533C49.1875 19.4371 49.1921 19.3275 49.1745 19.2079L49.1559 19.0196C49.1492 18.9545 49.1337 18.8873 49.1228 18.8177C49.1037 18.6773 49.0628 18.5309 49.0256 18.3765C48.842 17.7077 48.5138 17.0851 48.063 16.5505C47.9559 16.4309 47.8561 16.3138 47.7526 16.2163C47.7009 16.1659 47.6533 16.1154 47.6032 16.0725L47.4568 15.9483C47.3663 15.8655 47.2732 15.8044 47.1982 15.7463C47.1588 15.7176 47.1232 15.6888 47.089 15.6651L46.9928 15.603C46.8775 15.5273 46.8154 15.4813 46.8195 15.4732C46.8237 15.4652 46.8945 15.4965 47.0192 15.5601L47.1226 15.6136C47.1599 15.6348 47.1976 15.6605 47.24 15.6868C47.3364 15.7454 47.4291 15.8094 47.5178 15.8786L47.673 15.9993C47.7247 16.0417 47.7764 16.0921 47.8313 16.1411C47.9468 16.2467 48.0565 16.3582 48.1597 16.4753C48.3914 16.7463 48.5927 17.0409 48.7602 17.3537Z" fill="#516D7B"/>
<path d="M43.277 42.5674C43.2693 43.0909 43.2393 43.6017 43.1907 44.0929C43.142 44.5841 43.0681 45.0556 42.9838 45.5019L42.9165 45.8315C42.8932 45.9396 42.8648 46.0456 42.8415 46.1506C42.7945 46.3606 42.7334 46.561 42.6807 46.7564C42.6527 46.8533 42.6212 46.9477 42.5922 47.0411C42.5632 47.1345 42.5364 47.2264 42.5027 47.3142L42.4096 47.5742L42.3641 47.6999L42.3155 47.821C42.2503 47.9806 42.1924 48.1335 42.1257 48.2754C42.0589 48.4172 42.0046 48.5515 41.94 48.6727C41.8753 48.7938 41.822 48.9089 41.7662 49.0124L41.6079 49.2916C41.5836 49.3335 41.5619 49.3734 41.5396 49.4097L41.4755 49.5107L41.372 49.6687C41.3466 49.7138 41.3161 49.7559 41.281 49.7944C41.2984 49.7456 41.3213 49.6989 41.3493 49.6551L41.4403 49.4915L41.4993 49.3875C41.5195 49.3502 41.5396 49.3098 41.5619 49.2669L41.7088 48.9836C41.7605 48.8792 41.8122 48.7641 41.8717 48.6414C41.9312 48.5187 41.985 48.3839 42.0465 48.2431C42.1081 48.1022 42.1645 47.9493 42.2265 47.7887L42.2731 47.6676L42.316 47.5424L42.4045 47.2834C42.436 47.1956 42.4603 47.1037 42.4893 47.0113C42.5182 46.9189 42.5472 46.8245 42.5736 46.7281C42.6253 46.5338 42.6822 46.3348 42.7288 46.1259C42.752 46.0219 42.7805 45.9164 42.8001 45.8088L42.8643 45.4812C42.9445 45.038 43.0195 44.5725 43.0614 44.0818C43.1032 43.5911 43.1364 43.0868 43.1441 42.5674C43.1504 41.5893 43.0986 40.6116 42.9889 39.6394C42.8912 38.7418 42.7665 37.9377 42.6527 37.2637C42.5389 36.5898 42.4381 36.0451 42.3698 35.6685C42.3362 35.4802 42.3098 35.3338 42.2938 35.2343C42.282 35.1847 42.276 35.1339 42.2757 35.0829C42.2959 35.1304 42.3107 35.1801 42.3196 35.2308C42.3439 35.3287 42.3786 35.4736 42.42 35.6604C42.5038 36.034 42.6186 36.5761 42.7443 37.2496C42.87 37.923 43.0029 38.7277 43.1095 39.6283C43.227 40.6037 43.283 41.5852 43.277 42.5674Z" fill="#516D7B"/>
<path d="M44.6084 50.7345C44.8961 50.3178 45.145 49.8769 45.3522 49.4169L45.4816 49.1029L45.5131 49.0272C45.5229 49.002 45.5307 48.9767 45.5395 48.951L45.5912 48.7995C45.6233 48.7011 45.6595 48.6077 45.6848 48.5153L45.7557 48.2488C45.8074 48.0802 45.8297 47.9227 45.8591 47.7858C45.8726 47.7172 45.8871 47.6536 45.8969 47.5945L45.9191 47.4325C45.9471 47.2376 45.9667 47.1296 45.9755 47.1296C45.9843 47.1296 45.9822 47.2396 45.9703 47.4375L45.9595 47.6026C45.9533 47.6627 45.9419 47.7273 45.9321 47.7969C45.9118 47.9556 45.8833 48.1131 45.8467 48.269L45.7831 48.5411C45.7598 48.6355 45.7257 48.7309 45.6957 48.8313L45.6476 48.9828C45.6393 49.0085 45.6321 49.0333 45.6222 49.0605L45.5917 49.1383L45.4655 49.4639C45.0638 50.4112 44.4628 51.2656 43.7012 51.9718L43.4395 52.202L43.3764 52.2576C43.3552 52.2757 43.3324 52.2919 43.3107 52.308L43.1819 52.409C43.0966 52.4726 43.0179 52.5377 42.9357 52.5928L42.6983 52.7487C42.5625 52.8381 42.4221 52.9209 42.2778 52.9961C42.2147 53.0304 42.1567 53.0638 42.1014 53.091L41.9462 53.1602C41.761 53.2425 41.6576 53.2839 41.6534 53.2758C41.6493 53.2677 41.746 53.2112 41.9224 53.1157L42.0693 53.037C42.121 53.0067 42.1779 52.9704 42.2384 52.936C42.3584 52.8603 42.5007 52.7846 42.644 52.6755L42.8731 52.515C42.9522 52.459 43.0283 52.3923 43.111 52.3277L43.2357 52.2268C43.2564 52.2096 43.2786 52.1934 43.2993 52.1763L43.3603 52.1202L43.6143 51.8895C43.9804 51.5341 44.3131 51.148 44.6084 50.7345Z" fill="#516D7B"/>
<path d="M45.1919 47.0047C45.2255 46.7947 45.2467 46.5933 45.2597 46.4095C45.2643 46.3177 45.2705 46.2298 45.271 46.148C45.2716 46.0663 45.2736 45.9895 45.271 45.9194C45.271 45.6397 45.2566 45.465 45.2762 45.465C45.2959 45.465 45.3378 45.6336 45.3641 45.9194C45.3704 45.99 45.3766 46.0678 45.3781 46.1516C45.3797 46.2354 45.3781 46.3247 45.3781 46.4191C45.3662 46.8285 45.2995 47.2346 45.18 47.6272C45.151 47.717 45.1241 47.8029 45.0936 47.8796C45.0631 47.9563 45.0347 48.031 45.0062 48.0962C44.8904 48.3577 44.7926 48.5061 44.7781 48.5C44.7636 48.494 44.8298 48.3299 44.9193 48.0649C44.9421 47.9987 44.9669 47.926 44.9902 47.8473C45.0135 47.7685 45.0383 47.6842 45.0631 47.5949C45.1123 47.4126 45.1552 47.2147 45.1919 47.0047Z" fill="#516D7B"/>
<path d="M56.564 20.3335C57.0182 20.434 57.4775 20.5119 57.9399 20.5667C58.1535 20.5879 58.3563 20.6112 58.5477 20.6208C58.6428 20.6263 58.7349 20.6349 58.8239 20.6379L59.0789 20.6465C59.2413 20.6546 59.3892 20.651 59.518 20.6526H59.6985L59.8501 20.649C60.0327 20.646 60.134 20.649 60.1346 20.6571C60.1351 20.6652 60.0352 20.6803 59.8527 20.699L59.7011 20.7136C59.6458 20.7177 59.5852 20.7202 59.5201 20.7232C59.3902 20.7288 59.2418 20.7389 59.0778 20.7364H58.8192C58.7297 20.7364 58.6366 20.7298 58.5404 20.7263C58.3475 20.7212 58.1421 20.7015 57.9259 20.6834C56.9877 20.5907 56.0649 20.3817 55.1809 20.0614C54.9787 19.9847 54.7852 19.914 54.612 19.8358C54.524 19.7974 54.4377 19.7626 54.357 19.7247L54.1258 19.6141C53.9773 19.546 53.849 19.4728 53.7347 19.4122C53.6778 19.3814 53.6246 19.3531 53.5765 19.3254L53.4466 19.2466C53.2915 19.1517 53.2082 19.0952 53.2128 19.0876C53.2175 19.08 53.3096 19.1214 53.4715 19.2027L53.6059 19.2709L53.7683 19.3476C53.8852 19.4021 54.0156 19.4688 54.1651 19.5308L54.3978 19.6318C54.479 19.6671 54.5654 19.699 54.6533 19.7328C54.8292 19.8065 55.0216 19.8726 55.2223 19.9453C55.6625 20.0969 56.1104 20.2265 56.564 20.3335Z" fill="#516D7B"/>
<path d="M59.0611 20.2332C59.3839 20.2645 59.6927 20.2802 59.9741 20.2867C60.1148 20.2867 60.2482 20.2908 60.3734 20.2867C60.4986 20.2827 60.6149 20.2817 60.7215 20.2771C61.1472 20.259 61.4105 20.2327 61.4136 20.2524C61.4167 20.2721 61.1549 20.3261 60.7282 20.368C60.6211 20.3781 60.5037 20.3882 60.3775 20.3933C60.2513 20.3983 60.1158 20.4028 59.9736 20.4049C59.6891 20.4049 59.3756 20.3927 59.0482 20.3609C58.7208 20.3291 58.412 20.2776 58.1332 20.2216C57.9941 20.1913 57.8622 20.1636 57.7401 20.1307C57.618 20.0979 57.5042 20.0676 57.4018 20.0368C56.9911 19.9117 56.7486 19.8031 56.7542 19.7885C56.7599 19.7738 57.0129 19.8475 57.4267 19.949C57.5301 19.9743 57.6429 19.9995 57.7655 20.0268C57.888 20.054 58.0189 20.0772 58.1565 20.105C58.4332 20.1545 58.7384 20.1999 59.0611 20.2332Z" fill="#516D7B"/>
<path d="M54.3694 13.4242C54.6404 13.2743 54.9197 13.1385 55.2052 13.0173C55.3376 12.9638 55.4638 12.9118 55.5838 12.8704C55.6438 12.8492 55.7012 12.8275 55.7576 12.8094L55.9195 12.7589C56.3333 12.6322 56.5987 12.5877 56.6023 12.6029C56.6059 12.618 56.3519 12.6978 55.95 12.8452L55.7949 12.9038C55.74 12.9239 55.6842 12.9482 55.6257 12.9714C55.5083 13.0168 55.3863 13.0724 55.2564 13.1274C54.9978 13.2435 54.7211 13.3798 54.4366 13.5378C54.1521 13.6958 53.8919 13.8619 53.6607 14.0194C53.5459 14.1002 53.4352 14.1749 53.3354 14.2506C53.2837 14.288 53.2361 14.3228 53.19 14.3586L53.0587 14.4596C52.7245 14.7231 52.5285 14.8998 52.514 14.8857C52.4995 14.8715 52.6759 14.6747 52.9981 14.3905L53.1259 14.2804C53.1704 14.2425 53.219 14.2052 53.2681 14.1653C53.3659 14.085 53.475 14.0058 53.5899 13.9215C53.8407 13.7425 54.1009 13.5765 54.3694 13.4242Z" fill="#516D7B"/>
<path d="M55.7153 13.2803C55.8839 13.2075 56.0567 13.1435 56.2325 13.0884C56.3768 13.0439 56.5232 13.0067 56.6711 12.9769C56.9241 12.9264 57.0849 12.9193 57.0849 12.9355C57.0927 12.9743 56.4699 13.0869 55.7649 13.3984C55.0599 13.7099 54.553 14.0764 54.5287 14.0451C54.5184 14.0324 54.6322 13.9214 54.8391 13.7714C54.9611 13.6841 55.0873 13.6028 55.2177 13.5281C55.3791 13.437 55.5451 13.3542 55.7153 13.2803Z" fill="#516D7B"/>
<path d="M67.2821 28.1264C67.0033 29.3972 66.8864 30.6967 66.934 31.9954C66.9527 32.4936 66.9914 32.896 67.0183 33.1741C67.0452 33.4523 67.0644 33.6063 67.0551 33.6073C67.0395 33.5726 67.0297 33.5359 67.0256 33.4982C67.0111 33.4261 66.9899 33.319 66.9676 33.1807C66.9252 32.9036 66.872 32.5007 66.8414 31.9994C66.7649 30.6915 66.8694 29.3795 67.1518 28.0987C67.2371 27.7246 67.3302 27.3611 67.4363 27.0153C67.5423 26.6695 67.6483 26.3384 67.7466 26.0223C67.8449 25.7063 67.9339 25.4055 68.0052 25.1207C68.043 24.9789 68.0704 24.8406 68.1004 24.7078C68.1304 24.575 68.1521 24.4468 68.1666 24.3231C68.2271 23.9351 68.2401 23.5415 68.2054 23.1504C68.1961 23.0116 68.1754 22.9051 68.1656 22.8324C68.1568 22.7953 68.1537 22.7572 68.1568 22.7193C68.1739 22.7532 68.1858 22.7894 68.192 22.8268C68.2209 22.9311 68.2427 23.0372 68.2566 23.1444C68.312 23.5391 68.3125 23.9392 68.2592 24.3342C68.2473 24.4599 68.2214 24.5892 68.2008 24.7255C68.1801 24.8618 68.149 25.0011 68.1118 25.1445C68.0456 25.4332 67.9597 25.7371 67.8646 26.0531L67.5625 27.0476C67.458 27.3955 67.367 27.7554 67.2821 28.1264Z" fill="#516D7B"/>
<path d="M67.9246 47.9195C68.1496 48.5335 68.4113 49.1342 68.7077 49.7187L68.9146 50.1084C68.9793 50.2362 69.0548 50.3538 69.1215 50.4704C69.1882 50.5871 69.2529 50.7002 69.3201 50.8057L69.5146 51.1086C69.6346 51.3039 69.7588 51.4705 69.8617 51.621C69.9134 51.6957 69.9615 51.7664 70.007 51.8295L70.1353 52.0006C70.2905 52.2071 70.3707 52.3237 70.3639 52.3292C70.3572 52.3348 70.2605 52.2283 70.095 52.0309L69.9569 51.8658C69.9077 51.8042 69.8576 51.7356 69.8017 51.6639C69.6926 51.5165 69.5622 51.3524 69.4365 51.1591L69.2338 50.8587C69.1639 50.7537 69.0988 50.6406 69.0269 50.525C68.955 50.4093 68.88 50.2912 68.8127 50.1635L68.5986 49.7732C67.9805 48.6021 67.531 47.3533 67.2626 46.0623L67.1798 45.6266C67.1503 45.4858 67.1358 45.347 67.1151 45.2137C67.0945 45.0804 67.0753 44.9517 67.0634 44.827L67.0293 44.4691C67.0034 44.2414 66.9998 44.0339 66.991 43.8522C66.9874 43.7613 66.9827 43.677 66.9817 43.5998V43.3867C66.9853 43.1308 66.9915 42.9894 67.0003 42.9894C67.0091 42.9894 67.0205 43.1308 67.0329 43.3852L67.0422 43.5972C67.0469 43.6745 67.0557 43.7588 67.0624 43.8497C67.0784 44.0299 67.0888 44.2358 67.1198 44.4615L67.1622 44.8149C67.1772 44.9381 67.2015 45.0673 67.2217 45.1975C67.2419 45.3278 67.261 45.4671 67.2926 45.6064L67.3805 46.0376C67.5243 46.6746 67.7063 47.303 67.9246 47.9195Z" fill="#516D7B"/>
<path d="M66.8342 45.4874C66.9056 45.8282 66.9853 46.1502 67.0634 46.442C67.1042 46.5874 67.1415 46.7257 67.1813 46.8545C67.2211 46.9832 67.2568 47.1028 67.2915 47.2119C67.4306 47.6475 67.5273 47.9146 67.5087 47.9221C67.4901 47.9297 67.366 47.6723 67.203 47.2411C67.1627 47.1331 67.1192 47.015 67.0768 46.8878C67.0344 46.7606 66.991 46.6212 66.9465 46.4753C66.8611 46.183 66.7773 45.8584 66.7054 45.5162C66.6336 45.1739 66.5823 44.8417 66.5441 44.5398C66.527 44.3884 66.5094 44.2455 66.4996 44.1107C66.4898 43.976 66.4799 43.8508 66.4737 43.7357C66.4515 43.2768 66.467 42.9926 66.483 42.9921C66.4991 42.9916 66.5208 43.2743 66.5668 43.7286C66.5787 43.8422 66.5911 43.9664 66.6082 44.0996C66.6253 44.2329 66.6439 44.3748 66.6646 44.5242C66.7086 44.8195 66.7644 45.1461 66.8342 45.4874Z" fill="#516D7B"/>
<path d="M62.6412 50.8592C62.9049 51.0501 63.1842 51.2192 63.4775 51.3641C63.6151 51.4262 63.7439 51.4893 63.8706 51.5347C63.9337 51.5584 63.9932 51.5852 64.0527 51.6039L64.2239 51.6589C64.332 51.6972 64.4339 51.719 64.5218 51.7432C64.5663 51.7548 64.6072 51.7669 64.6449 51.7755L64.7484 51.7972C64.8746 51.8245 64.9444 51.8436 64.9434 51.8527C64.9424 51.8618 64.8705 51.8593 64.7401 51.8467L64.632 51.8356C64.5927 51.83 64.5503 51.8214 64.5048 51.8134C64.4003 51.7962 64.2968 51.7735 64.1944 51.7462L64.017 51.6957C63.9555 51.6786 63.8934 51.6543 63.8282 51.6321C63.6968 51.5902 63.5629 51.5312 63.4206 51.4686C62.8087 51.1874 62.2636 50.7835 61.8213 50.2841C61.723 50.167 61.6268 50.0574 61.5503 49.9449C61.511 49.8893 61.4706 49.8378 61.437 49.7848L61.3418 49.6334C61.2875 49.5454 61.2379 49.4548 61.1929 49.3618C61.1727 49.3209 61.1525 49.2835 61.1365 49.2482L61.0967 49.1472C61.0496 49.0281 61.0279 48.961 61.0361 48.9579C61.0444 48.9549 61.0827 49.015 61.1432 49.126L61.1949 49.2189C61.2141 49.2522 61.2368 49.2876 61.2601 49.3259C61.3077 49.4022 61.3563 49.492 61.4236 49.5834L61.5239 49.7293C61.5591 49.7798 61.601 49.8303 61.6413 49.8807C61.7199 49.9878 61.8167 50.0923 61.9155 50.2043C62.1379 50.4425 62.3805 50.6614 62.6412 50.8592Z" fill="#516D7B"/>
<path d="M64.5518 51.1056C64.8782 51.2383 65.2118 51.3519 65.5521 51.4458C65.7099 51.4857 65.8594 51.5261 66.0016 51.5534C66.0725 51.568 66.1408 51.5841 66.2085 51.5958L66.3994 51.6281C66.5209 51.6513 66.6321 51.6624 66.7294 51.6786L66.8649 51.6972L66.9797 51.7093C67.1173 51.7245 67.1939 51.7371 67.1939 51.7462C67.1939 51.7553 67.1163 51.7593 66.9766 51.7593H66.8602C66.8178 51.7593 66.7718 51.7543 66.7221 51.7512C66.6233 51.7437 66.5101 51.7391 66.3859 51.7215L66.1909 51.6967C66.1232 51.6876 66.0539 51.6735 65.9809 51.6609C65.8356 51.6377 65.683 51.6003 65.5216 51.5634C64.8239 51.3893 64.1571 51.1126 63.5447 50.7431C63.4056 50.6558 63.2721 50.574 63.1542 50.4882C63.0947 50.4456 63.0358 50.4068 62.9825 50.3654L62.8273 50.2457C62.7285 50.171 62.6463 50.0943 62.5718 50.0307C62.5351 49.9978 62.5004 49.9681 62.4683 49.9393L62.3871 49.858C62.2904 49.7596 62.2397 49.7025 62.2464 49.6965C62.2532 49.6904 62.3152 49.7348 62.4223 49.8212L62.5108 49.8933L62.6189 49.9756C62.697 50.0342 62.7823 50.1049 62.8837 50.1735L63.0389 50.2851C63.0932 50.324 63.1526 50.3603 63.2126 50.4002C63.3316 50.4815 63.4651 50.5583 63.6037 50.6416C63.9099 50.8143 64.2264 50.9693 64.5518 51.1056Z" fill="#516D7B"/>
<path d="M57.1474 41.5466C57.1303 42.8895 56.0136 44.0092 54.6243 44.0092C53.235 44.0092 52.1183 42.8895 52.1012 41.5466C52.096 41.1569 51.4753 41.1559 51.4805 41.5466C51.4867 42.1749 51.6876 42.7866 52.0567 43.3013C52.426 43.8159 52.9464 44.2093 53.5495 44.4297C54.766 44.8719 56.1977 44.4943 57.0269 43.521C57.5002 42.9661 57.7619 42.2685 57.7681 41.5466C57.7733 41.1569 57.1526 41.1564 57.1474 41.5466Z" fill="#385868"/>
<path d="M47.6151 53.6968C47.732 54.8499 48.3672 55.8777 49.2811 56.6046C50.3156 57.4275 51.6056 57.8243 52.9132 57.9934C55.5242 58.3306 58.4596 58.0484 60.663 56.5294C61.757 55.7767 62.6285 54.7666 63.1153 53.5439C63.2601 53.1804 62.6601 53.0229 62.5168 53.3828C61.6892 55.4622 59.6037 56.752 57.4515 57.2321C56.2065 57.5098 54.9092 57.5537 53.6384 57.4588C52.4192 57.3679 51.1711 57.1094 50.1279 56.4587C49.1498 55.8484 48.3522 54.8478 48.2353 53.6943C48.1965 53.3101 47.5753 53.3061 47.6146 53.6943L47.6151 53.6968Z" fill="#385868"/>
<path d="M36.6146 62.3646H74.7058C75.0937 62.3646 75.4656 62.5151 75.7398 62.7826C76.0139 63.0502 76.168 63.4131 76.168 63.7918V87.6728C76.168 87.899 76.076 88.1161 75.912 88.2766C75.748 88.4366 75.5251 88.5265 75.2934 88.5265H36.027C35.795 88.5265 35.5726 88.4366 35.4085 88.2766C35.2445 88.1161 35.1523 87.899 35.1523 87.6728V63.7918C35.1523 63.4131 35.3064 63.0502 35.5806 62.7826C35.8549 62.5151 36.2268 62.3646 36.6146 62.3646Z" fill="#256075"/>
<path d="M74.6828 62.3071H36.8632C35.9802 62.3071 35.2649 62.9664 35.2649 63.7791V64.556C35.2649 63.7433 35.9802 63.084 36.8632 63.084H74.6828C75.5658 63.084 76.2811 63.7433 76.2811 64.556V63.7791C76.2811 62.9659 75.5658 62.3071 74.6828 62.3071Z" fill="#347888"/>
<path d="M76.5476 88.7784H35.0054V63.7529C35.0058 63.3177 35.1829 62.9007 35.498 62.5933C35.813 62.2858 36.2403 62.1127 36.6859 62.1122H74.8676C75.3135 62.1127 75.7402 62.2858 76.0557 62.5933C76.3707 62.9007 76.5476 63.3177 76.5481 63.7529L76.5476 88.7784ZM35.5226 88.2735H76.0304V63.7529C76.0299 63.4515 75.9073 63.1632 75.6895 62.9502C75.4712 62.7372 75.1754 62.6175 74.8671 62.617H36.6859C36.3774 62.6175 36.0817 62.7372 35.8636 62.9502C35.6455 63.1632 35.5229 63.4515 35.5226 63.7529V88.2735Z" fill="#385868"/>
<path d="M26.5475 85.7812C25.8695 85.7792 25.2074 85.5813 24.6446 85.2123C24.0819 84.8433 23.6438 84.3198 23.3857 83.708C23.1276 83.0961 23.0611 82.4232 23.1945 81.7745C23.328 81.1258 23.6555 80.5306 24.1355 80.0631C24.6156 79.5962 25.2267 79.2781 25.8918 79.1499C26.5568 79.0212 27.2459 79.0883 27.8721 79.3418C28.4982 79.5957 29.0333 80.0248 29.4098 80.575C29.7862 81.1253 29.9871 81.772 29.9871 82.4338C29.9848 83.3223 29.6213 84.1739 28.9765 84.8014C28.3316 85.4289 27.4581 85.7812 26.5475 85.7812ZM26.5475 79.9955C26.0537 79.997 25.5715 80.1419 25.1618 80.411C24.7522 80.68 24.4334 81.0617 24.2458 81.5074C24.0582 81.9532 24.0102 82.4434 24.1077 82.9159C24.2053 83.3884 24.4441 83.822 24.794 84.1623C25.1439 84.502 25.5892 84.7337 26.0737 84.8266C26.5582 84.92 27.0602 84.8711 27.5162 84.6863C27.9722 84.501 28.3618 84.1885 28.6359 83.7877C28.91 83.3869 29.0562 82.9154 29.0561 82.4338C29.0539 81.7861 28.7886 81.1652 28.3183 80.7083C27.848 80.2514 27.2112 79.995 26.5475 79.9955Z" fill="#385868"/>
<path d="M27.9697 79.9476V81.0642C27.6594 84.4132 24.5823 87.0433 20.8318 87.0433C17.0813 87.0433 14.0042 84.4132 13.6938 81.0642V79.9476C13.7236 79.6225 13.7798 79.3004 13.862 78.9844C13.897 78.8496 13.977 78.7299 14.0894 78.6441C14.2018 78.5588 14.3401 78.5118 14.4826 78.5118H27.1788C27.3214 78.5118 27.4597 78.5588 27.5721 78.6441C27.6845 78.7299 27.7645 78.8496 27.7995 78.9844C27.8824 79.3004 27.9393 79.6225 27.9697 79.9476Z" fill="#68B9E1"/>
<path d="M27.9697 78.7642C27.9699 78.9167 27.9539 79.0691 27.9222 79.2186H19.9442C19.9442 80.1106 19.2558 80.834 18.4065 80.834H18.3103C18.1055 80.8325 17.9033 80.7901 17.7164 80.7088C17.5294 80.627 17.3617 80.5089 17.2241 80.361C16.9316 80.049 16.7706 79.6411 16.7735 79.2186H13.7932C13.7614 79.0691 13.7455 78.9167 13.7456 78.7642H27.9697Z" fill="#ACD8F8"/>
<path d="M20.8836 87.2957C19.0148 87.2957 17.2287 86.6581 15.8555 85.5006C14.4822 84.343 13.6448 82.7786 13.488 81.0869V81.0642V79.9248C13.5196 79.5866 13.5786 79.2514 13.6644 78.9222C13.7135 78.7329 13.8256 78.5653 13.9831 78.4452C14.1406 78.3255 14.3346 78.2599 14.5344 78.2594H27.2306C27.4309 78.2594 27.6255 78.3245 27.7835 78.4447C27.9416 78.5648 28.0541 78.7324 28.1032 78.9222C28.1889 79.2514 28.2477 79.5866 28.2791 79.9248V79.9475V81.0869C28.1239 82.7786 27.2813 84.346 25.9117 85.5006C24.542 86.6551 22.7523 87.2957 20.8836 87.2957ZM14.0042 81.0526C14.1517 82.6089 14.9286 84.0522 16.1937 85.1184C17.4734 86.1967 19.1389 86.7909 20.8836 86.7909C22.6282 86.7909 24.2942 86.1972 25.5734 85.1184C26.838 84.0522 27.6155 82.6089 27.7629 81.0526V79.9591C27.7336 79.6512 27.6796 79.3463 27.6015 79.0469C27.5806 78.9661 27.5327 78.895 27.4656 78.8435C27.3985 78.7925 27.3158 78.7647 27.2306 78.7647H14.5344C14.4493 78.7647 14.3666 78.7925 14.2994 78.8435C14.2323 78.895 14.1845 78.9661 14.1636 79.0469C14.0854 79.3463 14.0315 79.6512 14.0022 79.9591L14.0042 81.0526Z" fill="#385868"/>
<path d="M13.1768 86.3365H28.4871C28.4871 86.8853 28.2637 87.4118 27.8659 87.8C27.4682 88.1882 26.9289 88.4063 26.3664 88.4063H15.2974C14.735 88.4063 14.1956 88.1882 13.7979 87.8C13.4002 87.4118 13.1768 86.8853 13.1768 86.3365Z" fill="#68B9E1"/>
<path d="M28.1768 86.4375C28.1762 86.5905 28.1588 86.7424 28.1251 86.8918H19.8306C19.8306 87.7839 19.1142 88.5073 18.2313 88.5073H18.1314C17.9199 88.5068 17.7107 88.4649 17.5163 88.3836C17.3219 88.3023 17.1464 88.1832 17.0002 88.0343C16.6981 87.7273 16.5303 87.3174 16.5321 86.8918H13.4328C13.3991 86.7424 13.3817 86.5905 13.3811 86.4375H28.1768Z" fill="#ACD8F8"/>
<path d="M26.418 88.6587H15.349C14.7182 88.6582 14.1135 88.4128 13.6674 87.9777C13.2213 87.5425 12.9704 86.9519 12.9697 86.3365V86.0841H28.7973V86.3365C28.7966 86.9519 28.5457 87.5425 28.0997 87.9777C27.6536 88.4128 27.0488 88.6582 26.418 88.6587ZM13.5051 86.5889C13.568 87.0226 13.789 87.4199 14.1278 87.7071C14.4665 87.9949 14.9002 88.1534 15.349 88.1539H26.418C26.8669 88.1534 27.3004 87.9944 27.6392 87.7071C27.9778 87.4199 28.199 87.0226 28.262 86.5889H13.5051Z" fill="#385868"/>
<path d="M27.9697 80.001H24.1938V80.3544H27.9697V80.001Z" fill="#385868"/>
<g opacity="0.4">
<path opacity="0.4" d="M48.9123 37.6969C50.0198 37.6969 50.9177 37.2223 50.9177 36.6368C50.9177 36.0513 50.0198 35.5767 48.9123 35.5767C47.8048 35.5767 46.907 36.0513 46.907 36.6368C46.907 37.2223 47.8048 37.6969 48.9123 37.6969Z" fill="white"/>
<path opacity="0.4" d="M60.3293 37.6969C61.4367 37.6969 62.3347 37.2223 62.3347 36.6368C62.3347 36.0513 61.4367 35.5767 60.3293 35.5767C59.2219 35.5767 58.324 36.0513 58.324 36.6368C58.324 37.2223 59.2219 37.6969 60.3293 37.6969Z" fill="white"/>
</g>
</g>
<defs>
<clipPath id="clip0_172_26">
<rect width="105" height="89" rx="10" fill="white"/>
</clipPath>
</defs>
</svg>
