<svg width="238" height="51" viewBox="0 0 238 51" fill="none" xmlns="http://www.w3.org/2000/svg">
<g filter="url(#filter0_d_141_189)">
<path d="M0.0307503 46V1.2H10.3988V37.552H32.8628V46H0.0307503ZM58.1223 46.768C51.7649 46.768 46.7943 44.9973 43.2103 41.456C39.6263 37.9147 37.8343 32.8587 37.8343 26.288V1.2H48.2023V25.904C48.2023 30.1707 49.0769 33.2427 50.8263 35.12C52.5756 36.9973 55.0289 37.936 58.1863 37.936C61.3436 37.936 63.7969 36.9973 65.5463 35.12C67.2956 33.2427 68.1702 30.1707 68.1702 25.904V1.2H78.4103V26.288C78.4103 32.8587 76.6183 37.9147 73.0343 41.456C69.4503 44.9973 64.4796 46.768 58.1223 46.768ZM88.6558 46V1.2H97.2318L116.304 32.816H111.76L130.512 1.2H139.024L139.152 46H129.424L129.36 16.112H131.152L116.176 41.264H111.504L96.2078 16.112H98.3838V46H88.6558ZM171.541 46.768C167.999 46.768 164.714 46.192 161.685 45.04C158.698 43.888 156.095 42.2667 153.877 40.176C151.701 38.0853 149.994 35.632 148.757 32.816C147.562 30 146.965 26.928 146.965 23.6C146.965 20.272 147.562 17.2 148.757 14.384C149.994 11.568 151.722 9.11467 153.941 7.024C156.159 4.93333 158.762 3.312 161.749 2.16C164.735 1.008 167.978 0.431999 171.477 0.431999C175.018 0.431999 178.261 1.008 181.205 2.16C184.191 3.312 186.773 4.93333 188.949 7.024C191.167 9.11467 192.895 11.568 194.133 14.384C195.37 17.1573 195.989 20.2293 195.989 23.6C195.989 26.928 195.37 30.0213 194.133 32.88C192.895 35.696 191.167 38.1493 188.949 40.24C186.773 42.288 184.191 43.888 181.205 45.04C178.261 46.192 175.039 46.768 171.541 46.768ZM171.477 37.936C173.482 37.936 175.317 37.5947 176.981 36.912C178.687 36.2293 180.181 35.248 181.461 33.968C182.741 32.688 183.722 31.1733 184.405 29.424C185.13 27.6747 185.493 25.7333 185.493 23.6C185.493 21.4667 185.13 19.5253 184.405 17.776C183.722 16.0267 182.741 14.512 181.461 13.232C180.223 11.952 178.751 10.9707 177.045 10.288C175.338 9.60533 173.482 9.264 171.477 9.264C169.471 9.264 167.615 9.60533 165.909 10.288C164.245 10.9707 162.773 11.952 161.493 13.232C160.213 14.512 159.21 16.0267 158.485 17.776C157.802 19.5253 157.461 21.4667 157.461 23.6C157.461 25.6907 157.802 27.632 158.485 29.424C159.21 31.1733 160.191 32.688 161.429 33.968C162.709 35.248 164.202 36.2293 165.909 36.912C167.615 37.5947 169.471 37.936 171.477 37.936ZM218.501 46.768C214.917 46.768 211.482 46.2987 208.197 45.36C204.911 44.3787 202.266 43.12 200.261 41.584L203.781 33.776C205.701 35.1413 207.962 36.272 210.565 37.168C213.21 38.0213 215.877 38.448 218.565 38.448C220.613 38.448 222.255 38.256 223.493 37.872C224.773 37.4453 225.711 36.8693 226.309 36.144C226.906 35.4187 227.205 34.5867 227.205 33.648C227.205 32.4533 226.735 31.5147 225.797 30.832C224.858 30.1067 223.621 29.5307 222.085 29.104C220.549 28.6347 218.842 28.208 216.965 27.824C215.13 27.3973 213.274 26.8853 211.397 26.288C209.562 25.6907 207.877 24.9227 206.341 23.984C204.805 23.0453 203.546 21.808 202.565 20.272C201.626 18.736 201.157 16.7733 201.157 14.384C201.157 11.824 201.839 9.49866 203.205 7.408C204.613 5.27466 206.703 3.58933 209.477 2.352C212.293 1.072 215.813 0.431999 220.037 0.431999C222.853 0.431999 225.626 0.773332 228.357 1.456C231.087 2.096 233.498 3.07733 235.589 4.4L232.389 12.272C230.298 11.0773 228.207 10.2027 226.117 9.648C224.026 9.05067 221.978 8.752 219.973 8.752C217.967 8.752 216.325 8.98667 215.045 9.456C213.765 9.92533 212.847 10.544 212.293 11.312C211.738 12.0373 211.461 12.8907 211.461 13.872C211.461 15.024 211.93 15.9627 212.869 16.688C213.807 17.3707 215.045 17.9253 216.581 18.352C218.117 18.7787 219.802 19.2053 221.637 19.632C223.514 20.0587 225.37 20.5493 227.205 21.104C229.082 21.6587 230.789 22.4053 232.325 23.344C233.861 24.2827 235.098 25.52 236.037 27.056C237.018 28.592 237.509 30.5333 237.509 32.88C237.509 35.3973 236.805 37.7013 235.397 39.792C233.989 41.8827 231.877 43.568 229.061 44.848C226.287 46.128 222.767 46.768 218.501 46.768Z" fill="#B48C00"/>
</g>
<defs>
<filter id="filter0_d_141_189" x="0.0307617" y="0.432007" width="237.478" height="50.336" filterUnits="userSpaceOnUse" color-interpolation-filters="sRGB">
<feFlood flood-opacity="0" result="BackgroundImageFix"/>
<feColorMatrix in="SourceAlpha" type="matrix" values="0 0 0 0 0 0 0 0 0 0 0 0 0 0 0 0 0 0 127 0" result="hardAlpha"/>
<feOffset dy="4"/>
<feComposite in2="hardAlpha" operator="out"/>
<feColorMatrix type="matrix" values="0 0 0 0 1 0 0 0 0 0.780392 0 0 0 0 0 0 0 0 1 0"/>
<feBlend mode="normal" in2="BackgroundImageFix" result="effect1_dropShadow_141_189"/>
<feBlend mode="normal" in="SourceGraphic" in2="effect1_dropShadow_141_189" result="shape"/>
</filter>
</defs>
</svg>
