<svg width="70" height="71" viewBox="0 0 70 71" fill="none" xmlns="http://www.w3.org/2000/svg">
<path d="M34.9999 2.39856C16.4429 2.39856 1.3999 17.4416 1.3999 35.9986C1.3999 54.5556 16.4429 69.5986 34.9999 69.5986C53.5569 69.5986 68.5999 54.5556 68.5999 35.9986C68.5999 17.4416 53.5569 2.39856 34.9999 2.39856ZM48.6674 29.9226C48.6814 30.2096 48.6849 30.4966 48.6849 30.7766C48.6849 39.5266 42.0314 49.6101 29.8584 49.6101C26.2614 49.616 22.7393 48.583 19.7154 46.6351C20.2299 46.6981 20.7584 46.7226 21.2939 46.7226C24.3949 46.7226 27.2474 45.6691 29.5119 43.8911C28.1319 43.864 26.7948 43.407 25.6868 42.5839C24.5788 41.7607 23.7553 40.6125 23.3309 39.2991C24.3219 39.4875 25.3429 39.448 26.3164 39.1836C24.8186 38.8807 23.4716 38.0691 22.5039 36.8864C21.5362 35.7037 21.0073 34.2227 21.0069 32.6946V32.6141C21.8994 33.1076 22.9214 33.4086 24.0064 33.4436C22.6022 32.5088 21.6082 31.0729 21.2276 29.4295C20.847 27.7861 21.1086 26.0594 21.9589 24.6026C23.6212 26.6466 25.6943 28.3187 28.0439 29.5106C30.3935 30.7026 32.9672 31.3879 35.5984 31.5221C35.2639 30.1021 35.4079 28.6115 36.0079 27.2818C36.608 25.9522 37.6306 24.858 38.9167 24.1695C40.2027 23.4809 41.6803 23.2366 43.1195 23.4744C44.5588 23.7122 45.8792 24.4189 46.8754 25.4846C48.3565 25.1915 49.7768 24.6483 51.0754 23.8781C50.5818 25.4115 49.5483 26.7137 48.1669 27.5426C49.4789 27.3845 50.7599 27.0318 51.9679 26.4961C51.0806 27.8257 49.9629 28.9861 48.6674 29.9226Z" fill="#B48C00"/>
</svg>
